<svg id="e7mxsKJiGQW1" xmlns="http://www.w3.org/2000/svg" xmlns:xlink="http://www.w3.org/1999/xlink" viewBox="0 0 126.3 112" shape-rendering="geometricPrecision" text-rendering="geometricPrecision" style="background-color:rgba(0,0,0,0)">
<style><![CDATA[
#e7mxsKJiGQW4_ts {animation: e7mxsKJiGQW4_ts__ts 1600ms linear infinite normal forwards}@keyframes e7mxsKJiGQW4_ts__ts { 0% {transform: translate(382.668252px,678.919922px) scale(1.00012,1)} 12.5% {transform: translate(382.668252px,678.919922px) scale(0.440824,1)} 25% {transform: translate(382.668252px,678.919922px) scale(0.000069,1)} 37.5% {transform: translate(382.668252px,678.919922px) scale(-0.499077,1)} 50% {transform: translate(382.668252px,678.919922px) scale(-1,1)} 62.5% {transform: translate(382.668252px,678.919922px) scale(-0.645127,1)} 75% {transform: translate(382.668252px,678.919922px) scale(-0.033796,1)} 87.5% {transform: translate(382.668252px,678.919922px) scale(0.631952,1)} 100% {transform: translate(382.668252px,678.919922px) scale(1,1)}} #e7mxsKJiGQW6_ts {animation: e7mxsKJiGQW6_ts__ts 1600ms linear infinite normal forwards}@keyframes e7mxsKJiGQW6_ts__ts { 0% {transform: translate(366.674005px,457.984473px) scale(-1.083987,1.069256)} 12.5% {transform: translate(366.674005px,457.984473px) scale(-0.472603,1.069256)} 25% {transform: translate(366.674005px,457.984473px) scale(-0.007954,1.069256)} 37.5% {transform: translate(366.674005px,457.984473px) scale(0.472603,1.069256)} 50% {transform: translate(366.674005px,457.984473px) scale(1.083989,1.069256)} 100% {transform: translate(366.674005px,457.984473px) scale(1.083989,1.069256)}}
]]></style>
<g transform="matrix(.151644 0 0 0.151649 14.202487 4.521407)"><g transform="translate(-59.891327-.000716)"><g id="e7mxsKJiGQW4_ts" transform="translate(382.668252,678.919922) scale(1.00012,1)"><path d="M760.69,628.34L524.83,219.93c.306287,1.253824.464038,2.539322.47,3.83l1.41,434.07c.051172,7.365628-3.83805,14.196987-10.198006,17.912638s-14.220771,3.748968-20.611994.087362L124.51,462.9c-5.85418-3.350781-9.465993-9.579693-9.465993-16.325s3.611813-12.974219,9.465993-16.325L501.35,210c6.183114-3.563623,13.981398-2.583221,19.09,2.4L405.35,13.05c-4.678689-8.059139-13.284659-13.028014-22.603422-13.050657s-17.948779,4.90435-22.666578,12.940657L4.28,632.54c-5.590965,9.521991-5.654927,21.308821-.167631,30.890929s15.685566,15.492161,26.727631,15.489071h700.72c25.96,0,42.16-28.13,29.13-50.58Z" transform="translate(-382.663652,-678.92)" fill="#b31f27"/></g><g id="e7mxsKJiGQW6_ts" transform="translate(366.674005,457.984473) scale(-1.083987,1.069256)"><path d="M357.19,550.29L336,513.74L289.31,416.5c-.81-1.77-1.63-3.51-2.48-5.22-.876539-1.772492-1.592727-3.619858-2.14-5.52-.519438-1.61851-.812219-3.301161-.87-5q0-5.22,5.49-9.52t13.77-4.3q10.16,0,14.37,4.76t8.62,15.2l44.39,100.6L415,406.17q3.48-8,5.21-11.11c1.414321-2.329077,3.391617-4.265107,5.75-5.63q4-2.51,11-2.51c3.246404-.029696,6.461626.635169,9.43,1.95c2.670872,1.12422,5.01613,2.902076,6.82,5.17c1.528739,1.828498,2.398636,4.1177,2.47,6.5-.025871,1.650558-.295448,3.288238-.8,4.86-.53692,1.754548-1.205485,3.466075-2,5.12q-1.2,2.5-2.4,5.17L403,513.74L384.16,549.3c-5.16,9.81-21.03,10.36-26.97.99Z" transform="translate(-369.750002,-471.959151)" fill="#b31f27"/></g></g></g></svg>
