<svg xmlns="http://www.w3.org/2000/svg" xmlns:xlink="http://www.w3.org/1999/xlink" viewBox="0 0 425.24 430.97"><defs><style>.cls-1{isolation:isolate;}.cls-2{fill:none;}.cls-3,.cls-4{fill:#e0e0e0;}.cls-4,.cls-5,.cls-6{fill-rule:evenodd;}.cls-5,.cls-7{fill:#ebebeb;}.cls-6,.cls-8{fill:#f5f5f5;}.cls-9{fill:#fafafa;}.cls-10{fill:#263238;}.cls-11{fill:url(#linear-gradient);}.cls-12{fill:#83701a;}.cls-13{mix-blend-mode:screen;fill:url(#linear-gradient-2);}.cls-14{fill:#e6bd2c;}.cls-15{opacity:0.3;}.cls-16{fill:#eace2f;}.cls-17{fill:#455a64;}.cls-18{fill:#fff;}.cls-19{fill:#e8505b;}.cls-20{fill:#98242b;}.cls-21{fill:#0c0b0b;}</style><linearGradient id="linear-gradient" x1="323.38" y1="89.17" x2="323.38" y2="15.29" gradientUnits="userSpaceOnUse"><stop offset="0" stop-color="#e6bd2c"/><stop offset="0.51" stop-color="#f1ce3f"/><stop offset="1" stop-color="#fbf2c4"/></linearGradient><linearGradient id="linear-gradient-2" x1="315.53" y1="75.93" x2="315.53" y2="16.91" gradientUnits="userSpaceOnUse"><stop offset="0" stop-color="#141414"/><stop offset="1" stop-color="#5c5c5c"/></linearGradient></defs><title>Asset 3</title><g class="cls-1"><g id="Layer_2" data-name="Layer 2"><g id="UNAUTHORIZED"><g id="Robot"><path class="cls-2" d="M335.85,199.46A21.87,21.87,0,0,1,338,194.1l-2.92-4.48,6.15-6.36,4.57,2.78a22,22,0,0,1,5.3-2.3l1.09-5.23,8.85-.14,1.27,5.19a21.56,21.56,0,0,1,5.36,2.12l4.48-2.92,6.36,6.15-2.78,4.57a21.6,21.6,0,0,1,2.3,5.3l5.23,1.09.15,8.85-5.2,1.27a21.56,21.56,0,0,1-2.12,5.36l2.93,4.48-6.16,6.36-4.57-2.78a21.53,21.53,0,0,1-5.29,2.3l-1.1,5.23-8.85.15-1.27-5.2a21.87,21.87,0,0,1-5.36-2.12l-4.48,2.93-6.36-6.16,2.78-4.57a21.91,21.91,0,0,1-2.3-5.29l-5.23-1.1-.14-8.85,5.19-1.27Zm11.67,5a9.49,9.49,0,1,0,9.34-9.65A9.49,9.49,0,0,0,347.52,204.48Z"/><path class="cls-3" d="M347.52,204.48a7.24,7.24,0,0,1,.16-2.35,9.58,9.58,0,0,1,7.38-7.31,9.6,9.6,0,0,1,5.12.31,9.31,9.31,0,0,1,2.49,1.27,9.61,9.61,0,0,1,2.1,2A9.7,9.7,0,0,1,365,210a9,9,0,0,1-2,2.1,9.21,9.21,0,0,1-2.45,1.35,9.72,9.72,0,0,1-5.1.48,9.6,9.6,0,0,1-7.62-7.07,7,7,0,0,1-.23-2.34,21.48,21.48,0,0,0,.43,2.29,9.54,9.54,0,0,0,3.55,5,9.22,9.22,0,0,0,3.95,1.64,9.31,9.31,0,0,0,4.85-.5,8.6,8.6,0,0,0,2.32-1.3,8.7,8.7,0,0,0,1.92-2,9.22,9.22,0,0,0-.18-10.92,8.62,8.62,0,0,0-2-1.93,8.72,8.72,0,0,0-2.36-1.23,9.29,9.29,0,0,0-4.87-.34,9.13,9.13,0,0,0-3.89,1.78,9.46,9.46,0,0,0-3.39,5.16A20.37,20.37,0,0,0,347.52,204.48Z"/><path class="cls-3" d="M335.85,199.46a1.31,1.31,0,0,1-.32.1l-1,.26-3.87,1,.06-.08c.05,2.26.11,5.24.19,8.85l-.1-.13,5.24,1.08.09,0,0,.08a21.81,21.81,0,0,0,2.3,5.25l0,.09,0,.09-2.77,4.58,0-.23q3,2.9,6.37,6.14l-.25,0,4.47-2.93.11-.07.11.06a21.23,21.23,0,0,0,5.32,2.09l.13,0,0,.13c.4,1.61.83,3.38,1.28,5.19l-.23-.17,8.85-.16-.24.19c.34-1.63.72-3.42,1.09-5.23l0-.15.15,0a21.83,21.83,0,0,0,5.23-2.27l.13-.08.13.08L373,226l-.31,0,6.15-6.36,0,.32c-.93-1.41-1.92-2.94-2.93-4.47l-.08-.14.07-.13a21.4,21.4,0,0,0,2.1-5.3h0l0-.16.15,0,5.2-1.27-.2.26q-.08-4.48-.14-8.85l.2.25L378,199l-.16,0,0-.15a21.45,21.45,0,0,0-2.26-5.24l-.08-.13.08-.13q1.41-2.31,2.78-4.57l0,.31L372,182.93l.29,0-4.48,2.92-.12.08-.12-.07a21.09,21.09,0,0,0-5.31-2.11l-.13,0,0-.14-1.26-5.19.22.16-8.85.13.19-.16c-.39,1.84-.76,3.57-1.11,5.23l0,.11-.11,0a21.69,21.69,0,0,0-5.26,2.27l-.09.05-.09-.05-4.56-2.8.19,0-6.18,6.33v-.14l2.9,4.49,0,0,0,0a22.52,22.52,0,0,0-1.77,4c-.14.44-.24.78-.32,1s-.11.33-.11.33,0-.12.07-.35.14-.58.28-1a21.1,21.1,0,0,1,1.7-4v.08L335,189.68l-.05-.07.06-.07,6.13-6.39.09-.08.1.06,4.58,2.76h-.18a22.21,22.21,0,0,1,5.34-2.33l-.14.15c.35-1.67.71-3.4,1.09-5.24l0-.16h.16l8.85-.16h.17l0,.16c.42,1.69.84,3.42,1.28,5.2l-.17-.17a22.15,22.15,0,0,1,5.43,2.14h-.24l4.47-2.93.16-.11.14.13,6.36,6.15.15.14-.11.17q-1.37,2.27-2.77,4.57v-.26a21.53,21.53,0,0,1,2.32,5.36l-.19-.18,5.24,1.09.2,0v.21q.08,4.37.15,8.85v.21l-.2,0-5.2,1.26.19-.19h0a22.36,22.36,0,0,1-2.14,5.42v-.27l2.92,4.48.12.17-.15.15L373,226.37l-.14.15-.17-.11-4.57-2.78h.26A22.09,22.09,0,0,1,363,226l.18-.19c-.38,1.81-.76,3.6-1.1,5.23l0,.19h-.2l-8.85.13h-.18l0-.18c-.43-1.81-.86-3.58-1.25-5.19l.16.16a21.9,21.9,0,0,1-5.42-2.15h.23L342,226.87l-.14.09-.11-.12-6.35-6.17-.1-.1.07-.13,2.79-4.56v.18a22.28,22.28,0,0,1-2.29-5.34l.11.11-5.23-1.12-.1,0v-.11c0-3.6-.07-6.58-.1-8.85v-.07h.07l3.86-.9,1-.22Z"/><path class="cls-4" d="M77,175.06a23.91,23.91,0,0,1,2.37-6l-3.27-5L83,156.93,88.13,160a23.88,23.88,0,0,1,5.92-2.56l1.22-5.86,9.9-.16,1.42,5.81a24.24,24.24,0,0,1,6,2.38l5-3.28,7.11,6.89-3.11,5.11a24.46,24.46,0,0,1,2.57,5.92l5.85,1.23.16,9.89-5.81,1.42a24.06,24.06,0,0,1-2.37,6l3.27,5L118.39,205l-5.12-3.11a23.7,23.7,0,0,1-5.92,2.57l-1.22,5.85-9.9.17-1.42-5.81a24.63,24.63,0,0,1-6-2.38l-5,3.27-7.11-6.88,3.11-5.11a24.63,24.63,0,0,1-2.57-5.92l-5.85-1.23-.16-9.9L77,175.06Zm13,5.61a10.62,10.62,0,1,0,10.45-10.79A10.62,10.62,0,0,0,90.07,180.67Z"/><path class="cls-4" d="M305.09,149.48a7,7,0,0,1,.68-1.73l-.94-1.45,2-2.05,1.47.9a6.86,6.86,0,0,1,1.71-.74l.35-1.69,2.86-.05.41,1.68a7,7,0,0,1,1.73.68l1.45-.94,2.05,2-.89,1.47a7.69,7.69,0,0,1,.74,1.71l1.69.36,0,2.85-1.67.41a7.27,7.27,0,0,1-.69,1.73l.95,1.45-2,2.05-1.48-.89a7.25,7.25,0,0,1-1.71.74l-.35,1.69-2.86,0-.41-1.67a7,7,0,0,1-1.73-.69l-1.45.95-2.05-2,.9-1.48a6.86,6.86,0,0,1-.74-1.71l-1.69-.35,0-2.86,1.68-.41Zm3.76,1.62a3.07,3.07,0,1,0,3-3.11A3.07,3.07,0,0,0,308.85,151.1Z"/><path class="cls-5" d="M11.2,179.07a9.46,9.46,0,0,1,1-2.4l-1.31-2,2.75-2.85,2.05,1.25A9.77,9.77,0,0,1,18,172l.49-2.34,4-.06L23,172a9.54,9.54,0,0,1,2.39.95l2-1.31,2.85,2.75-1.24,2a9.81,9.81,0,0,1,1,2.37l2.34.49.07,4-2.33.56a9.61,9.61,0,0,1-.95,2.4l1.31,2L27.73,191l-2-1.24a9.84,9.84,0,0,1-2.37,1l-.49,2.34-3.95.06-.57-2.32a9.61,9.61,0,0,1-2.4-.95l-2,1.31-2.84-2.75,1.24-2.05a9.77,9.77,0,0,1-1-2.36l-2.34-.49-.06-4,2.32-.56Zm5.22,2.24A4.24,4.24,0,1,0,20.59,177,4.24,4.24,0,0,0,16.42,181.31Z"/><path class="cls-5" d="M371,115.36a22.37,22.37,0,0,1,2.17-5.49l-3-4.58,6.3-6.51,4.67,2.85a22,22,0,0,1,5.42-2.35l1.12-5.36,9.05-.14,1.3,5.31a22.37,22.37,0,0,1,5.49,2.17l4.58-3,6.5,6.3-2.84,4.67a22,22,0,0,1,2.35,5.42l5.35,1.12.15,9-5.31,1.3a22.37,22.37,0,0,1-2.17,5.49l3,4.58-6.3,6.5-4.67-2.84a22,22,0,0,1-5.42,2.35l-1.12,5.35-9.05.15-1.3-5.31a22.37,22.37,0,0,1-5.49-2.17l-4.58,3-6.51-6.3,2.85-4.67a22,22,0,0,1-2.35-5.42l-5.36-1.12-.14-9,5.31-1.3Zm11.94,5.13a9.71,9.71,0,1,0,9.55-9.87A9.7,9.7,0,0,0,382.9,120.49Z"/><path class="cls-6" d="M25.56,266.27a20.21,20.21,0,0,1,2-5l-2.71-4.14,5.7-5.89,4.23,2.57a20.43,20.43,0,0,1,4.9-2.13l1-4.84,8.19-.14L50,251.54a20.38,20.38,0,0,1,5,2l4.15-2.71L65,256.5l-2.57,4.23a20.09,20.09,0,0,1,2.12,4.91l4.85,1,.14,8.2L64.76,276a19.88,19.88,0,0,1-2,5l2.71,4.15L59.81,291l-4.24-2.58a19.67,19.67,0,0,1-4.9,2.13l-1,4.85-8.2.13-1.17-4.81a19.9,19.9,0,0,1-5-2l-4.15,2.71-5.89-5.7,2.58-4.23a19.83,19.83,0,0,1-2.13-4.9l-4.85-1-.13-8.19,4.81-1.18Zm10.8,4.65A8.8,8.8,0,1,0,45,262,8.8,8.8,0,0,0,36.36,270.92Z"/><path class="cls-6" d="M197.51,96.72a9,9,0,0,1,.85-2.16l-1.18-1.81,2.48-2.56,1.85,1.12a8.82,8.82,0,0,1,2.13-.93l.44-2.11,3.57-.06.51,2.1a8.91,8.91,0,0,1,2.17.85l1.8-1.18,2.57,2.49-1.12,1.84a8.58,8.58,0,0,1,.92,2.13l2.11.45.06,3.56-2.09.52a8.63,8.63,0,0,1-.86,2.16l1.18,1.81-2.48,2.56-1.84-1.12a8.89,8.89,0,0,1-2.14.93l-.44,2.11-3.57,0-.51-2.09a8.48,8.48,0,0,1-2.16-.86L200,107.7l-2.56-2.48,1.12-1.84a8.52,8.52,0,0,1-.93-2.14l-2.11-.44-.06-3.57,2.1-.51Zm4.7,2A3.83,3.83,0,1,0,206,94.85,3.84,3.84,0,0,0,202.21,98.74Z"/><path class="cls-7" d="M382.58,346.36c4.5-2.32,9.79-2.62,14.78-1.79,2.69.44,5.48,1.24,7.31,3.26s2.17,5.56.07,7.29a7,7,0,0,1-4.6,1.17c-3.91-.05-8.25-.74-11.37,1.61-1.78,1.35-3,3.58-5.1,4.24a5.05,5.05,0,0,1-5.54-2.47,8.6,8.6,0,0,1-.62-6.35A9.7,9.7,0,0,1,382.58,346.36Z"/><path class="cls-7" d="M372.28,326.47c2.75,3.93,8.09,2.63,10.57.23s3.52-5.87,4.48-9.18c2.18-7.57,4.37-15.51,2.75-23.22a12.86,12.86,0,0,0-3-6.32,6.74,6.74,0,0,0-6.39-2.12c-2.69.71-4.37,3.35-5.58,5.86a55.36,55.36,0,0,0-5.47,23.76c0,3.82.44,7.83,2.6,11"/><path class="cls-7" d="M364.72,332.11c3-3.54,3.56-8.71,2.23-13.15s-4.33-8.22-7.79-11.3a41.81,41.81,0,0,0-14-8.23,14.9,14.9,0,0,0-6.27-1.07,6.63,6.63,0,0,0-5.27,3.19c-1.46,2.8-.06,6.19,1.47,9a105.52,105.52,0,0,0,9.16,14c2.74,3.54,5.89,7,10.07,8.63s8.54,1.41,10.75-1.49"/><path class="cls-3" d="M372.09,385.72a9.21,9.21,0,0,0,.25-1.79c.13-1.3.28-2.93.47-4.87a71.26,71.26,0,0,1,1.1-7.14,55.35,55.35,0,0,1,2.59-8.43,31.32,31.32,0,0,1,4.31-7.63,16.28,16.28,0,0,1,5.44-4.53,15.11,15.11,0,0,1,4.59-1.42,8.57,8.57,0,0,0,1.77-.26,8.32,8.32,0,0,0-1.8,0,13.82,13.82,0,0,0-4.78,1.25,16,16,0,0,0-5.75,4.56,30.64,30.64,0,0,0-4.46,7.78,52.76,52.76,0,0,0-2.58,8.57,62.14,62.14,0,0,0-.95,7.24c-.15,2.06-.21,3.74-.24,4.9A8.75,8.75,0,0,0,372.09,385.72Z"/><path class="cls-3" d="M372.43,382a3.84,3.84,0,0,0,0-.83v-2.37c0-2,0-5,.1-8.7.18-7.34.82-15.25,2-26.39,1.15-10.48,2.71-22.67,4.35-30.6.35-1.81.7-3.43,1-4.85s.59-2.65.85-3.65.41-1.69.56-2.3a3,3,0,0,0,.14-.81,3.69,3.69,0,0,0-.28.77c-.19.6-.41,1.35-.69,2.27s-.62,2.21-1,3.62-.76,3-1.14,4.84a267.68,267.68,0,0,0-4.57,28.4c-1.23,11.16-1.78,21.33-1.83,28.69,0,3.69,0,6.67.13,8.72q.09,1.44.15,2.37A3.14,3.14,0,0,0,372.43,382Z"/><path class="cls-3" d="M372.47,362.36a13.77,13.77,0,0,0,0-2.47c-.09-1.59-.31-3.89-.76-6.71a88,88,0,0,0-2.18-9.76,79.57,79.57,0,0,0-4.08-11.55,61.66,61.66,0,0,0-12-18.68,32.37,32.37,0,0,0-2.82-2.62c-.44-.36-.82-.73-1.21-1l-1.09-.75a16.63,16.63,0,0,0-2.09-1.34c-.11.17,2.95,2,6.83,6.09a64.94,64.94,0,0,1,11.69,18.61,92,92,0,0,1,4.11,11.45c1.07,3.58,1.78,6.88,2.32,9.66s.8,5.06,1,6.64A16.87,16.87,0,0,0,372.47,362.36Z"/><polygon class="cls-3" points="353.52 396.95 355.48 423.88 390.07 423.88 392.04 396.95 353.52 396.95"/><rect class="cls-3" x="350.18" y="386.34" width="45.98" height="10.61"/><polygon class="cls-7" points="350.18 422.85 350.18 425.79 352.34 425.79 395.4 425.79 395.4 422.85 350.18 422.85"/><polygon class="cls-3" points="354.46 430.96 352.34 425.79 393.76 425.79 391.29 430.96 354.46 430.96"/><path class="cls-8" d="M391.39,405.75s0,.09-.16.25l-.51.69c-.5.62-1.17,1.49-2,2.57l-.09.12-.09-.12-4.95-6.85h.29l-4.87,6.9-.16.22-.17-.2-5.78-6.88h.34l-.32.4-5.17,6.47-.17.22-.16-.22-4.88-6.9h.29l-6,6.84-.11.12-.08-.13-1.88-3.16c-.19-.35-.35-.62-.48-.84a1.54,1.54,0,0,1-.15-.3s.08.08.2.26l.54.81,2,3.1h-.19l5.91-6.93.15-.17.14.19,4.92,6.86h-.33l5.15-6.49.32-.4L373,402l.17.2,5.77,6.89-.33,0,4.92-6.87.15-.2.14.2c1.95,2.79,3.61,5.15,4.84,6.92h-.17l2.09-2.52.57-.65Z"/><path class="cls-8" d="M392.52,396.78c0,.12-8.67.21-19.36.21s-19.35-.09-19.35-.21,8.66-.22,19.35-.22S392.52,396.66,392.52,396.78Z"/><path class="cls-8" d="M394.26,426.08c0,.12-9.41.21-21,.21s-21-.09-21-.21,9.42-.22,21-.22S394.26,426,394.26,426.08Z"/><path class="cls-7" d="M30,124.61a12.52,12.52,0,0,1,1.79,0c.58,0,1.29,0,2.1.07s1.76.08,2.78.21A62.62,62.62,0,0,1,43.88,126a71.54,71.54,0,0,1,8.54,2.47,70.21,70.21,0,0,1,8.12,3.62,62.84,62.84,0,0,1,6.21,3.75c.87.56,1.6,1.14,2.26,1.63s1.22.93,1.66,1.3A12.38,12.38,0,0,1,72,140a10.53,10.53,0,0,1-1.47-1c-.46-.35-1-.77-1.7-1.23s-1.42-1-2.29-1.55a70.7,70.7,0,0,0-6.23-3.64A76.93,76.93,0,0,0,52.24,129a77.45,77.45,0,0,0-8.46-2.49,69.21,69.21,0,0,0-7.11-1.24c-1-.15-1.94-.21-2.76-.29s-1.51-.13-2.09-.16A11.41,11.41,0,0,1,30,124.61Z"/><path class="cls-7" d="M11.51,236a3.48,3.48,0,0,1,.54-.45l1.6-1.22c.69-.53,1.56-1.16,2.6-1.84s2.18-1.51,3.54-2.3,2.79-1.71,4.42-2.57,3.37-1.75,5.23-2.67A109,109,0,0,1,42,220.06,109,109,0,0,1,55,216.86c2-.32,4-.65,5.81-.83s3.54-.35,5.1-.45,3-.13,4.22-.16,2.31,0,3.18,0l2,.07a3.2,3.2,0,0,1,.7.06,3.81,3.81,0,0,1-.7.05l-2,0c-.87,0-1.94,0-3.18.08s-2.64.08-4.19.24-3.26.26-5.07.51-3.75.54-5.79.87a114.69,114.69,0,0,0-13,3.22,115.82,115.82,0,0,0-12.48,4.86c-1.85.9-3.63,1.72-5.22,2.61s-3.1,1.71-4.44,2.51-2.53,1.56-3.57,2.22-1.93,1.26-2.64,1.77l-1.66,1.13A3.56,3.56,0,0,1,11.51,236Z"/><path class="cls-7" d="M83.38,289.77a1.7,1.7,0,0,1,.07-.54l.3-1.53c.13-.67.3-1.48.55-2.41s.48-2,.83-3.17c.65-2.33,1.54-5.08,2.67-8.09s2.53-6.24,4.18-9.55,3.44-6.37,5.15-9.08,3.4-5.07,4.89-7c.72-1,1.43-1.81,2-2.56s1.14-1.38,1.6-1.88l1-1.16a2.88,2.88,0,0,1,.39-.38s-.09.16-.31.45l-1,1.22c-.43.52-1,1.16-1.53,1.93s-1.27,1.61-2,2.6c-1.44,1.94-3.06,4.31-4.77,7s-3.43,5.77-5.09,9.06-3,6.52-4.21,9.5-2.07,5.7-2.76,8c-.37,1.15-.64,2.21-.9,3.13s-.47,1.73-.63,2.38-.29,1.11-.4,1.51A2.33,2.33,0,0,1,83.38,289.77Z"/><path class="cls-7" d="M219.24,15.29a4.27,4.27,0,0,1-.39.61l-1.2,1.68c-.53.72-1.17,1.61-1.87,2.68s-1.55,2.23-2.39,3.6-1.81,2.83-2.74,4.46-1.93,3.38-3,5.24c-2,3.74-4,7.94-5.83,12.46s-3.32,8.95-4.53,13c-.56,2-1.13,4-1.55,5.81s-.82,3.54-1.15,5.11-.57,3-.8,4.25-.4,2.33-.52,3.22-.24,1.52-.32,2a3.49,3.49,0,0,1-.15.71,3.9,3.9,0,0,1,0-.72c.06-.52.13-1.21.22-2.06s.23-2,.44-3.24.4-2.7.73-4.27.64-3.3,1.09-5.14,1-3.79,1.51-5.84c1.19-4.08,2.67-8.51,4.5-13.06a137.23,137.23,0,0,1,5.9-12.5c1-1.86,2-3.63,3-5.23s1.91-3.1,2.8-4.44,1.73-2.53,2.46-3.57,1.39-1.92,2-2.63l1.28-1.63A3.37,3.37,0,0,1,219.24,15.29Z"/><path class="cls-7" d="M309.27,119.18a2.43,2.43,0,0,1-.6.12l-1.73.22-1.25.15c-.46.07-.95.18-1.47.28-1.06.21-2.27.38-3.57.76l-2.06.53c-.71.19-1.43.47-2.18.71-1.53.45-3.09,1.13-4.74,1.8A57.83,57.83,0,0,0,272.78,137c-1.19,1.33-2.36,2.57-3.3,3.85-.48.63-1,1.21-1.41,1.82l-1.19,1.75c-.8,1.09-1.37,2.18-1.93,3.1-.27.46-.54.89-.76,1.29l-.56,1.13c-.33.63-.6,1.14-.8,1.55a2.18,2.18,0,0,1-.32.52,3.69,3.69,0,0,1,.22-.57c.19-.41.42-.94.71-1.59l.53-1.15c.21-.42.47-.85.73-1.33a33.88,33.88,0,0,1,1.87-3.15l1.18-1.79c.41-.61.91-1.21,1.39-1.85.94-1.3,2.1-2.55,3.29-3.91a56.24,56.24,0,0,1,19.05-13.38c1.67-.66,3.25-1.33,4.79-1.77.77-.24,1.49-.5,2.22-.68l2.07-.51c1.32-.36,2.54-.5,3.61-.69.53-.08,1-.18,1.48-.23l1.27-.11,1.74-.13A2.82,2.82,0,0,1,309.27,119.18Z"/><path class="cls-7" d="M382.8,178.69l-.26-.07-.75-.26-2.87-1-2.07-.76c-.76-.26-1.6-.51-2.5-.8-1.79-.56-3.81-1.27-6.11-1.85l-3.58-1c-1.25-.33-2.57-.59-3.92-.91-2.71-.67-5.64-1.16-8.71-1.73a152,152,0,0,0-40.57-1.24c-3.1.38-6.06.68-8.8,1.19-1.37.23-2.7.41-4,.67l-3.63.76c-2.33.43-4.39,1-6.22,1.47-.91.23-1.76.43-2.54.65l-2.11.63-2.93.85-.76.21a1.65,1.65,0,0,1-.27.06.85.85,0,0,1,.25-.11l.75-.26,2.9-1,2.11-.67c.77-.23,1.62-.44,2.53-.69,1.82-.48,3.88-1.09,6.21-1.55l3.64-.8c1.26-.26,2.6-.45,4-.7,2.74-.52,5.71-.85,8.82-1.24a148.07,148.07,0,0,1,40.69,1.25c3.09.58,6,1.09,8.73,1.77,1.36.33,2.68.61,3.93,1l3.58,1c2.3.61,4.31,1.35,6.1,1.93.9.31,1.73.57,2.49.85l2.06.8,2.84,1.12.73.31A1,1,0,0,1,382.8,178.69Z"/><path class="cls-9" d="M227.37,14.78V43.3c-6.47,6.35-29.85,29.94-29.85,29.94h29.85V95.68a14.49,14.49,0,0,0,14.35,14.48l165.48,1.56a14.47,14.47,0,0,0,14.61-14.48V14.78A14.48,14.48,0,0,0,407.33.3H241.85A14.48,14.48,0,0,0,227.37,14.78Z"/><path class="cls-10" d="M227.37,14.78s0-.55.06-1.62a14.65,14.65,0,0,1,1.28-4.57,14.5,14.5,0,0,1,1.84-3,16.17,16.17,0,0,1,3.12-2.88,14.64,14.64,0,0,1,4.5-2,19.92,19.92,0,0,1,5.6-.51L311,.07l46.43,0,25.87,0h23.91c.59,0,1.19,0,1.78.1a15.28,15.28,0,0,1,1.77.32A14.75,14.75,0,0,1,421.2,9.68a15.26,15.26,0,0,1,.85,3.59c.08,1.24.08,2.45.07,3.66,0,2.43,0,4.87,0,7.33V54.32q0,15.32,0,31.15V97.4a15.43,15.43,0,0,1-.6,4,14.89,14.89,0,0,1-4.36,6.85,13.61,13.61,0,0,1-3.42,2.28,14,14,0,0,1-3.94,1.26,20.61,20.61,0,0,1-3.91.21l-3.85,0-7.68-.07-15.2-.15-29.75-.28L293,111l-51.3-.52A14.73,14.73,0,0,1,231,105.61a15,15,0,0,1-3.86-10.7q0-11.28,0-21.67l.24.24-29.85,0H197l.36-.35q18.15-18.15,29.9-29.88l0,.09c0-9.26,0-16.38.06-21.21,0-2.4,0-4.22,0-5.46s0-1.85,0-1.85,0,.62,0,1.85,0,3.06,0,5.46c0,4.83,0,12,.07,21.21v.06l0,0-29.8,30-.15-.35,29.85,0h.24v.24q0,10.38,0,21.67a14.45,14.45,0,0,0,3.74,10.34,14.16,14.16,0,0,0,10.35,4.63l51.3.46,56.4.52,29.76.27,15.2.15,7.67.07,3.86,0a19.18,19.18,0,0,0,3.8-.2,14.19,14.19,0,0,0,11.19-9.93,14.37,14.37,0,0,0,.58-3.86c0-1.33,0-2.65,0-4V54.32q0-15.32,0-30.06V16.93c0-1.22,0-2.43-.07-3.6A14.28,14.28,0,0,0,410.63,1c-2.23-.59-4.57-.35-6.89-.4H383.31l-25.87,0L311,.53,243.77.43a19.84,19.84,0,0,0-5.55.46,14.84,14.84,0,0,0-4.45,2,16,16,0,0,0-3.09,2.82,14.83,14.83,0,0,0-1.86,2.94A15.27,15.27,0,0,0,227.37,14.78Z"/><path class="cls-11" d="M293.55,89.17c-4.57,0-8.22-1.78-10-4.88s-1.51-7.15.78-11.11l29.83-51.66c2.29-4,5.65-6.23,9.23-6.23s6.94,2.27,9.23,6.23l29.83,51.66c2.28,4,2.57,8,.78,11.11s-5.44,4.88-10,4.88Z"/><path class="cls-12" d="M323.38,15.6c3.46,0,6.73,2.22,8.95,6.07l29.83,51.67c2.23,3.86,2.52,7.79.78,10.79s-5.28,4.72-9.73,4.72H293.55c-4.46,0-8-1.72-9.74-4.72s-1.45-6.93.78-10.79l29.83-51.67c2.23-3.85,5.49-6.07,9-6.07Zm0-.31c-3.58,0-6.94,2.27-9.23,6.23L284.32,73.18c-2.29,4-2.57,8-.78,11.11s5.44,4.88,10,4.88h59.66c4.57,0,8.22-1.78,10-4.88s1.5-7.15-.78-11.11L332.61,21.52c-2.29-4-5.65-6.23-9.23-6.23Z"/><path d="M323.38,20.42c1.72,0,3.42,1.3,4.79,3.66l14.91,25.83L358,75.75c1.36,2.36,1.64,4.48.78,6S355.94,84,353.21,84H293.55c-2.73,0-4.71-.82-5.57-2.31s-.58-3.62.78-6l14.92-25.84,14.91-25.83c1.36-2.36,3.06-3.66,4.79-3.66Zm0-1.89c-2.33,0-4.65,1.53-6.42,4.61L302,49,287.12,74.8c-3.54,6.15-.67,11.13,6.43,11.13h59.66c7.09,0,10-5,6.42-11.13L344.72,49,329.8,23.14c-1.77-3.08-4.1-4.61-6.42-4.61Z"/><path d="M323.29,77.58a3.64,3.64,0,0,1,.12-7.28c2.16,0,3.48,1.38,3.52,3.68a3.34,3.34,0,0,1-3.52,3.6Zm-2.08-11.64-1.33-27.27a2.88,2.88,0,0,1,1.61-2.76,6.2,6.2,0,0,1,1.84-.29,6.32,6.32,0,0,1,1.93.31A2.92,2.92,0,0,1,327,38.71l-1.33,27.23a2.09,2.09,0,0,1-2.07,2h-.27A2.09,2.09,0,0,1,321.21,65.94Z"/><path class="cls-13" d="M346.28,48.44,331.2,22.33c-2-3.45-4.84-5.42-7.82-5.42s-5.84,2-7.83,5.42L285.72,74a16.38,16.38,0,0,0-.94,1.94Z"/><rect class="cls-14" x="171.06" y="354.07" width="42.79" height="60.65"/><path class="cls-10" d="M171.39,413.67h42.14a5.7,5.7,0,0,1,5.7,5.7v.54a0,0,0,0,1,0,0H165.68a0,0,0,0,1,0,0v-.54A5.7,5.7,0,0,1,171.39,413.67Z"/><rect class="cls-14" x="160.8" y="419.92" width="64.99" height="9.88"/><path class="cls-10" d="M213.64,408.05c0,.14-9.48.26-21.18.26s-21.19-.12-21.19-.26,9.48-.26,21.19-.26S213.64,407.91,213.64,408.05Z"/><path class="cls-10" d="M213.64,400.84c0,.14-9.48.26-21.18.26s-21.19-.12-21.19-.26,9.48-.26,21.19-.26S213.64,400.69,213.64,400.84Z"/><path class="cls-10" d="M213.64,393.75c0,.15-9.48.26-21.18.26s-21.19-.11-21.19-.26,9.48-.26,21.19-.26S213.64,393.61,213.64,393.75Z"/><path class="cls-10" d="M213.64,386.54c0,.15-9.48.26-21.18.26s-21.19-.11-21.19-.26,9.48-.26,21.19-.26S213.64,386.4,213.64,386.54Z"/><path class="cls-10" d="M213.64,379.46c0,.14-9.48.26-21.18.26s-21.19-.12-21.19-.26,9.48-.26,21.19-.26S213.64,379.31,213.64,379.46Z"/><path class="cls-10" d="M213.64,372.25c0,.14-9.48.26-21.18.26s-21.19-.12-21.19-.26,9.48-.26,21.19-.26S213.64,372.1,213.64,372.25Z"/><path class="cls-10" d="M213.64,365.16c0,.14-9.48.26-21.18.26s-21.19-.12-21.19-.26,9.48-.26,21.19-.26S213.64,365,213.64,365.16Z"/><path class="cls-10" d="M213.64,358c0,.14-9.48.26-21.18.26s-21.19-.12-21.19-.26,9.48-.26,21.19-.26S213.64,357.81,213.64,358Z"/><g class="cls-15"><polygon points="171.06 362.52 213.64 361.34 213.64 355.15 170.68 355.15 171.06 362.52"/></g><rect class="cls-14" x="238.08" y="354.07" width="42.79" height="60.65"/><path class="cls-10" d="M238.41,413.67h42.14a5.7,5.7,0,0,1,5.7,5.7v.54a0,0,0,0,1,0,0H232.7a0,0,0,0,1,0,0v-.54A5.7,5.7,0,0,1,238.41,413.67Z"/><rect class="cls-14" x="227.82" y="419.92" width="64.99" height="9.88"/><path class="cls-10" d="M280.66,408.05c0,.14-9.48.26-21.18.26s-21.19-.12-21.19-.26,9.48-.26,21.19-.26S280.66,407.91,280.66,408.05Z"/><path class="cls-10" d="M280.66,400.84c0,.14-9.48.26-21.18.26s-21.19-.12-21.19-.26,9.48-.26,21.19-.26S280.66,400.69,280.66,400.84Z"/><path class="cls-10" d="M280.66,393.75c0,.15-9.48.26-21.18.26s-21.19-.11-21.19-.26,9.48-.26,21.19-.26S280.66,393.61,280.66,393.75Z"/><path class="cls-10" d="M280.66,386.54c0,.15-9.48.26-21.18.26s-21.19-.11-21.19-.26,9.48-.26,21.19-.26S280.66,386.4,280.66,386.54Z"/><path class="cls-10" d="M280.66,379.46c0,.14-9.48.26-21.18.26s-21.19-.12-21.19-.26,9.48-.26,21.19-.26S280.66,379.31,280.66,379.46Z"/><path class="cls-10" d="M280.66,372.25c0,.14-9.48.26-21.18.26s-21.19-.12-21.19-.26,9.48-.26,21.19-.26S280.66,372.1,280.66,372.25Z"/><path class="cls-10" d="M280.66,365.16c0,.14-9.48.26-21.18.26s-21.19-.12-21.19-.26,9.48-.26,21.19-.26S280.66,365,280.66,365.16Z"/><path class="cls-10" d="M280.66,358c0,.14-9.48.26-21.18.26s-21.19-.12-21.19-.26,9.48-.26,21.19-.26S280.66,357.81,280.66,358Z"/><g class="cls-15"><polygon points="238.08 362.52 280.66 361.34 280.66 355.15 237.7 355.15 238.08 362.52"/></g><path class="cls-16" d="M290.79,179.1h4.32a1.83,1.83,0,0,1,1.83,1.83v17.68a0,0,0,0,1,0,0h-8a0,0,0,0,1,0,0V180.93a1.83,1.83,0,0,1,1.83-1.83Z" transform="translate(38.13 426.66) rotate(-75.83)"/><g class="cls-15"><path d="M290.79,179.1h4.32a1.83,1.83,0,0,1,1.83,1.83v17.68a0,0,0,0,1,0,0h-8a0,0,0,0,1,0,0V180.93a1.83,1.83,0,0,1,1.83-1.83Z" transform="translate(38.13 426.66) rotate(-75.83)"/></g><path class="cls-14" d="M286.44,193.14h5.94a3,3,0,0,1,3,3v16.47a0,0,0,0,1,0,0h-12a0,0,0,0,1,0,0V196.18A3,3,0,0,1,286.44,193.14Z" transform="translate(21.84 433.83) rotate(-75.83)"/><rect class="cls-14" x="286.96" y="192.46" width="20.39" height="7.7" transform="translate(34.08 436.37) rotate(-75.83)"/><path class="cls-14" d="M308.3,265.86s31.95-1.3,29.31-31.91c-2-23.45-36.91-23.67-36.91-23.67l8.92-19.49s40.76,3.55,48.81,33.23c9.09,33.54-11.93,60.9-50.13,60.25Z"/><rect class="cls-10" x="296.94" y="186.38" width="12.44" height="27.68" transform="translate(50.36 -60.71) rotate(12.46)"/><path class="cls-17" d="M306.77,212.22c0,.23-2.75-.24-6-1a34.47,34.47,0,0,1-5.91-1.64,38,38,0,0,1,6,1.13c1.65.38,3.14.74,4.21,1l1.27.34A1.7,1.7,0,0,1,306.77,212.22Z"/><path class="cls-17" d="M307.85,207.35c0,.24-2.75-.23-6.05-1a34.4,34.4,0,0,1-5.9-1.63,36.92,36.92,0,0,1,6,1.13c1.65.37,3.13.73,4.21,1l1.26.33A4.42,4.42,0,0,1,307.85,207.35Z"/><path class="cls-17" d="M309.14,202.49c0,.23-2.76-.24-6.05-1a34.47,34.47,0,0,1-5.91-1.64,37.84,37.84,0,0,1,6,1.13c1.65.38,3.14.74,4.21,1l1.27.34A2.12,2.12,0,0,1,309.14,202.49Z"/><path class="cls-17" d="M310,197.62c0,.23-2.75-.24-6.05-1a34.52,34.52,0,0,1-5.9-1.64,38.26,38.26,0,0,1,6,1.13c1.65.38,3.13.74,4.21,1l1.26.34A1.7,1.7,0,0,1,310,197.62Z"/><path class="cls-17" d="M311.25,193.07c0,.23-2.75-.24-6-1a34.47,34.47,0,0,1-5.91-1.64,38,38,0,0,1,6,1.13c1.65.38,3.14.74,4.21,1l1.26.34A1.7,1.7,0,0,1,311.25,193.07Z"/><path class="cls-10" d="M315.28,284.07a13.34,13.34,0,0,1-.65-2.7c-.32-1.68-.7-4-1-6.61s-.45-5-.51-6.67a13.58,13.58,0,0,1,0-2.77,14.39,14.39,0,0,1,.34,2.75c.15,1.7.36,4,.66,6.63s.61,4.92.84,6.61A17,17,0,0,1,315.28,284.07Z"/><path class="cls-10" d="M325.21,282.52A92.2,92.2,0,0,1,322.3,273a95.17,95.17,0,0,1-2.41-9.68,95.22,95.22,0,0,1,2.91,9.54A98.48,98.48,0,0,1,325.21,282.52Z"/><path class="cls-10" d="M338.56,277.74a18,18,0,0,1-1.71-2.65L333,268.58,329,262.07a20.32,20.32,0,0,1-1.54-2.75,17.48,17.48,0,0,1,1.85,2.55c1.08,1.62,2.52,3.89,4,6.44s2.85,4.89,3.77,6.6A18.81,18.81,0,0,1,338.56,277.74Z"/><path class="cls-10" d="M349.79,268.74c-.1.11-4.07-3-8.88-7s-8.64-7.32-8.55-7.43,4.07,3,8.88,7S349.88,268.63,349.79,268.74Z"/><path class="cls-10" d="M357,256.4c-.06.13-4.76-1.7-10.51-4.1s-10.36-4.44-10.3-4.57,4.76,1.7,10.5,4.09S357.07,256.26,357,256.4Z"/><path class="cls-10" d="M360.56,243.07a23.17,23.17,0,0,1-3.37-.31l-8.08-1-8.09-1a23,23,0,0,1-3.34-.5,20.89,20.89,0,0,1,3.38.14c2.08.16,4.95.43,8.11.82s6,.81,8.07,1.15A21.41,21.41,0,0,1,360.56,243.07Z"/><path class="cls-10" d="M358.91,229.25a16.89,16.89,0,0,1-3,1c-1.89.55-4.53,1.23-7.47,1.85s-5.63,1.06-7.58,1.32a16.89,16.89,0,0,1-3.17.28,20,20,0,0,1,3.11-.65c1.94-.34,4.6-.84,7.53-1.46s5.57-1.24,7.48-1.7A21.76,21.76,0,0,1,358.91,229.25Z"/><path class="cls-10" d="M354.89,216c.06.13-4.22,2.42-9.57,5.11s-9.75,4.78-9.81,4.65,4.22-2.41,9.57-5.11S354.82,215.87,354.89,216Z"/><path class="cls-10" d="M346.65,205.25c.09.11-3.47,3.33-8,7.19s-8.2,6.91-8.29,6.8,3.46-3.33,8-7.19S346.56,205.14,346.65,205.25Z"/><path class="cls-10" d="M332.75,197.26c.12.07-2.13,4-5,8.84a95.8,95.8,0,0,1-5.48,8.56,100.94,100.94,0,0,1,5-8.83A101.27,101.27,0,0,1,332.75,197.26Z"/><path class="cls-10" d="M320.3,192.26c.13.05-1.2,4.46-3,9.86s-3.34,9.75-3.47,9.7a100.2,100.2,0,0,1,3-9.86C318.61,196.56,320.16,192.22,320.3,192.26Z"/><g class="cls-15"><path d="M335.3,249.62a24.7,24.7,0,0,1-11.58,11.89,37,37,0,0,1-7.84,3.05c6.11,3.26,14.08,1.31,19.43-3.1s8.16-11.41,8.35-18.33a21.77,21.77,0,0,0-1.73-9.61c-1.36-3-3.61-6.12-6.58-7.5a18.45,18.45,0,0,1,1.86,5.25A30.67,30.67,0,0,1,335.3,249.62Z"/></g><path class="cls-14" d="M168.5,265.1l-8.91-17.21s-77,53.05-46.89,110.52l15.68-9.05S110.52,308.92,168.5,265.1Z"/><path class="cls-16" d="M133.48,354.08h7.94a0,0,0,0,1,0,0v17.68a1.83,1.83,0,0,1-1.83,1.83h-4.28a1.83,1.83,0,0,1-1.83-1.83V354.08A0,0,0,0,1,133.48,354.08Z" transform="translate(-156.36 109) rotate(-28.37)"/><g class="cls-15"><path d="M133.48,354.08h7.94a0,0,0,0,1,0,0v17.68a1.83,1.83,0,0,1-1.83,1.83h-4.28a1.83,1.83,0,0,1-1.83-1.83V354.08A0,0,0,0,1,133.48,354.08Z" transform="translate(-156.36 109) rotate(-28.37)"/></g><path class="cls-14" d="M118.81,360.92h11.95a0,0,0,0,1,0,0v16.47a3,3,0,0,1-3,3h-5.87a3,3,0,0,1-3-3V360.92A0,0,0,0,1,118.81,360.92Z" transform="translate(-161.13 103.8) rotate(-28.37)"/><rect class="cls-14" x="119.09" y="357.72" width="20.27" height="7.7" transform="translate(-156.27 104.81) rotate(-28.37)"/><rect class="cls-10" x="117.75" y="342.94" width="12.44" height="27.52" transform="translate(-139.19 627.53) rotate(-116.66)"/><path class="cls-17" d="M111.51,356.11c-.22.08.91,2.61,2.44,5.61a34.67,34.67,0,0,0,3,5.33,37.55,37.55,0,0,0-2.58-5.56c-.76-1.51-1.48-2.86-2-3.83l-.63-1.15A2.46,2.46,0,0,0,111.51,356.11Z"/><path class="cls-17" d="M115.94,353.88c-.22.09.91,2.61,2.44,5.62a35.28,35.28,0,0,0,3,5.33,38.83,38.83,0,0,0-2.58-5.56c-.77-1.51-1.48-2.86-2-3.83-.21-.4-.42-.77-.63-1.15A2.33,2.33,0,0,0,115.94,353.88Z"/><path class="cls-17" d="M120.32,351.46c-.22.08.9,2.61,2.44,5.62a35.73,35.73,0,0,0,3,5.32,36.83,36.83,0,0,0-2.57-5.56c-.77-1.5-1.48-2.86-2-3.83l-.64-1.15A2.13,2.13,0,0,0,120.32,351.46Z"/><path class="cls-17" d="M124.8,349.44c-.22.08.9,2.61,2.44,5.62a35.73,35.73,0,0,0,3,5.32,37.34,37.34,0,0,0-2.57-5.56c-.77-1.5-1.48-2.86-2-3.83l-.64-1.14A2,2,0,0,0,124.8,349.44Z"/><path class="cls-17" d="M128.88,347.12c-.22.08.91,2.61,2.44,5.62a34.24,34.24,0,0,0,3,5.32,39.41,39.41,0,0,0-2.58-5.56c-.77-1.5-1.48-2.85-2-3.83l-.63-1.14A2.33,2.33,0,0,0,128.88,347.12Z"/><path class="cls-10" d="M109.2,349.65s-.17,0-.47.17l-.52.25.58-.1a85.22,85.22,0,0,0,9-2.5c2.57-.84,4.86-1.7,6.51-2.36a15.61,15.61,0,0,0,2.61-1.2,16.07,16.07,0,0,0-2.74.85c-1.68.58-4,1.38-6.55,2.22-4.15,1.37-7.7,2.42-8.83,2.83l0,.15C109.09,349.77,109.21,349.67,109.2,349.65Z"/><path class="cls-10" d="M106.53,340.67a97.13,97.13,0,0,0,9.8-1.44,91,91,0,0,0,9.71-2,97.56,97.56,0,0,0-9.8,1.44A91.68,91.68,0,0,0,106.53,340.67Z"/><path class="cls-10" d="M105.59,328.92a101,101,0,0,0,10.2.1,96.77,96.77,0,0,0,10.19-.43c0-.14-4.57-.18-10.2-.09S105.59,328.78,105.59,328.92Z"/><path class="cls-10" d="M107.52,317.08a97,97,0,0,0,9.83,1.87,98.43,98.43,0,0,0,9.91,1.36,95.63,95.63,0,0,0-9.83-1.87A91.25,91.25,0,0,0,107.52,317.08Z"/><path class="cls-10" d="M110.71,306a92.51,92.51,0,0,0,9.35,3.26,93.11,93.11,0,0,0,9.52,2.76,93.3,93.3,0,0,0-9.36-3.26A94.21,94.21,0,0,0,110.71,306Z"/><path class="cls-10" d="M116,295.43a16.69,16.69,0,0,0,2.34,1.62l5.77,3.67,5.77,3.68a16.4,16.4,0,0,0,2.45,1.43,16.09,16.09,0,0,0-2.25-1.74c-1.43-1-3.43-2.37-5.69-3.81s-4.34-2.68-5.86-3.55A14.56,14.56,0,0,0,116,295.43Z"/><path class="cls-10" d="M122.39,286.83a15.18,15.18,0,0,0,2.08,1.66c1.31,1,3.12,2.33,5.09,3.87s3.72,3,5,4a13.77,13.77,0,0,0,2.11,1.61,12.38,12.38,0,0,0-1.87-1.89c-1.21-1.11-2.94-2.58-4.91-4.12s-3.83-2.86-5.2-3.76A12.06,12.06,0,0,0,122.39,286.83Z"/><path class="cls-10" d="M128.1,277.57a15,15,0,0,0,1.69,2.25c1.1,1.34,2.68,3.15,4.5,5.07s3.54,3.59,4.82,4.77a13.91,13.91,0,0,0,2.16,1.8,16.63,16.63,0,0,0-1.91-2.07c-1.21-1.24-2.88-2.94-4.7-4.86s-3.43-3.67-4.6-4.95A15.49,15.49,0,0,0,128.1,277.57Z"/><path class="cls-10" d="M135.08,270.59a86,86,0,0,0,5.06,7.79,85.73,85.73,0,0,0,5.48,7.51,82.86,82.86,0,0,0-5.05-7.8A82.85,82.85,0,0,0,135.08,270.59Z"/><path class="cls-10" d="M141.78,263.55a14.64,14.64,0,0,0,1.32,2.35c.86,1.41,2.09,3.35,3.47,5.48s2.66,4,3.61,5.4a13.09,13.09,0,0,0,1.62,2.15,13.7,13.7,0,0,0-1.32-2.35c-.86-1.42-2.09-3.36-3.47-5.48s-2.66-4-3.6-5.4A12.74,12.74,0,0,0,141.78,263.55Z"/><path class="cls-10" d="M148.57,257.27a91.72,91.72,0,0,0,3.94,8.82,90.15,90.15,0,0,0,4.4,8.6,87.65,87.65,0,0,0-3.94-8.82A90.15,90.15,0,0,0,148.57,257.27Z"/><path class="cls-10" d="M154.58,253a12,12,0,0,0,.85,2.53c.6,1.53,1.52,3.62,2.66,5.86s2.3,4.2,3.19,5.59a12,12,0,0,0,1.55,2.17,15.14,15.14,0,0,0-1.24-2.36c-.8-1.43-1.9-3.41-3-5.64s-2.1-4.27-2.79-5.76A16.66,16.66,0,0,0,154.58,253Z"/><path class="cls-18" d="M165.66,265.61l-.23.1-.66.34c-.56.31-1.43.72-2.48,1.35a75,75,0,0,0-8.6,5.84,76.91,76.91,0,0,0-11.15,10.66,78.5,78.5,0,0,0-18.81,48.92,74.51,74.51,0,0,0,.42,10.43c.12,1.23.3,2.18.39,2.82,0,.3.08.53.12.73s0,.25,0,.24a.78.78,0,0,0,0-.25c0-.19,0-.44-.07-.73,0-.65-.2-1.6-.29-2.82a81.29,81.29,0,0,1-.25-10.41,80.37,80.37,0,0,1,8.4-33,80.5,80.5,0,0,1,29.9-32.28c1-.67,1.88-1.1,2.42-1.44l.63-.38Z"/><path class="cls-10" d="M153,249.62h.85a0,0,0,0,1,0,0v50.51a0,0,0,0,1,0,0H153a9,9,0,0,1-9-9V258.59A9,9,0,0,1,153,249.62Z"/><path class="cls-10" d="M298.49,249.62h.94a8.88,8.88,0,0,1,8.88,8.88v32.76a8.88,8.88,0,0,1-8.88,8.88h-.94a0,0,0,0,1,0,0V249.62A0,0,0,0,1,298.49,249.62Z"/><rect class="cls-14" x="151.31" y="239.76" width="149.39" height="109.99" rx="14.12"/><path class="cls-18" d="M245,251.45a34.23,34.23,0,0,0-34.23,34.24h68.47A34.24,34.24,0,0,0,245,251.45Z"/><path class="cls-3" d="M272.59,284c1.44,0,2.74,0,3.68,0a7.54,7.54,0,0,1,1.53.1,7.91,7.91,0,0,1-1.53.11c-.94,0-2.24,0-3.68,0l-3.68,0-1.12,0a1.26,1.26,0,0,1-.41,0,1.75,1.75,0,0,1,.41,0l1.12,0Z"/><path class="cls-3" d="M270.2,273.68c2.6-1.24,4.76-2.12,4.83-2s-2,1.24-4.62,2.42a35.48,35.48,0,0,1-4.83,1.95A35,35,0,0,1,270.2,273.68Z"/><path class="cls-3" d="M263.78,265.21c1.9-2.16,3.54-3.82,3.67-3.7a23,23,0,0,1-3.29,4,35.8,35.8,0,0,1-3.67,3.71A33.51,33.51,0,0,1,263.78,265.21Z"/><path class="cls-3" d="M254.62,259.8c1-2.7,1.89-4.85,2.05-4.79s-.54,2.29-1.58,5a34.27,34.27,0,0,1-2.05,4.79A34.19,34.19,0,0,1,254.62,259.8Z"/><path class="cls-3" d="M244.13,258c0-2.87.08-5.21.25-5.21s.28,2.34.26,5.21a33.73,33.73,0,0,1-.26,5.21A33.06,33.06,0,0,1,244.13,258Z"/><path class="cls-3" d="M233.66,260c-1-2.68-1.73-4.91-1.57-5s1.08,2.09,2,4.79a34.19,34.19,0,0,1,1.58,5A35,35,0,0,1,233.66,260Z"/><path class="cls-3" d="M224.6,265.55c-1.95-2.12-3.42-3.93-3.29-4s1.77,1.54,3.67,3.7a33.51,33.51,0,0,1,3.29,4.05A34.67,34.67,0,0,1,224.6,265.55Z"/><path class="cls-3" d="M218.34,274.14c-2.62-1.18-4.69-2.26-4.62-2.42s2.24.72,4.84,2a38.24,38.24,0,0,1,4.62,2.41A33.81,33.81,0,0,1,218.34,274.14Z"/><path class="cls-3" d="M216.17,284.27c-1.44,0-2.74,0-3.69,0a7.86,7.86,0,0,1-1.52-.11,7.48,7.48,0,0,1,1.52-.1c1,0,2.25,0,3.69,0l3.68.07,1.11,0a1.65,1.65,0,0,1,.41,0,1.2,1.2,0,0,1-.41,0l-1.11,0Z"/><path class="cls-18" d="M187.93,257.45a4.55,4.55,0,1,1-4.55-4.55A4.55,4.55,0,0,1,187.93,257.45Z"/><path class="cls-17" d="M187.93,271.15a4.55,4.55,0,1,1-4.55-4.55A4.55,4.55,0,0,1,187.93,271.15Z"/><path class="cls-10" d="M274.05,340.26s0-.29,0-.85,0-1.38,0-2.45c0-2.16,0-5.32-.05-9.38,0-8.13-.06-19.85-.1-34.3l.19.2-93.17.06h0l.26-.26c0,16.57,0,32.46,0,47l-.24-.24,66.91.12,19.31.06,5.16,0,1.34,0h.46l-.43,0h-1.31l-5.11,0-19.25.07-67.08.12h-.25v-.25c0-14.52,0-30.41,0-47V293h.27l93.17.07h.2v.19c0,14.5-.07,26.26-.1,34.42,0,4,0,7.18-.05,9.34,0,1,0,1.85,0,2.41S274.05,340.26,274.05,340.26Z"/><path class="cls-10" d="M166.72,349.54H285.28a0,0,0,0,1,0,0v.59a6.23,6.23,0,0,1-6.23,6.23H173a6.23,6.23,0,0,1-6.23-6.23v-.59A0,0,0,0,1,166.72,349.54Z"/><g class="cls-15"><path d="M264.08,299.88a2.82,2.82,0,0,0,1.94,3,3.11,3.11,0,0,0,3.39-1.24,3.47,3.47,0,0,0,0-3.66,3.47,3.47,0,0,1-.78,2.34,2.58,2.58,0,0,1-2.26.89,2,2,0,0,1-1.69-1.64"/></g><path class="cls-3" d="M269.43,298.76a2.77,2.77,0,1,1-2.76-2.76A2.77,2.77,0,0,1,269.43,298.76Z"/><path class="cls-10" d="M269.43,298.76s-.06-.24-.18-.65a2.87,2.87,0,0,0-1-1.4,2.58,2.58,0,0,0-2.42-.31,2.54,2.54,0,1,0,2.42,4.41,2.78,2.78,0,0,0,1-1.4,4.08,4.08,0,0,1,.18-.65s.09.25,0,.7a2.72,2.72,0,0,1-1,1.65,3,3,0,0,1-2.81.48,3,3,0,0,1,0-5.65,3,3,0,0,1,2.81.48,2.72,2.72,0,0,1,1,1.65C269.52,298.52,269.46,298.77,269.43,298.76Z"/><path class="cls-10" d="M267.94,297.58c.05.14-.6.48-1.21,1.12s-.93,1.29-1.08,1.25,0-.88.71-1.61S267.91,297.45,267.94,297.58Z"/><path class="cls-10" d="M267.94,299.63c-.12.08-.58-.43-1.26-.88s-1.32-.7-1.29-.85.8-.11,1.58.42S268.06,299.56,267.94,299.63Z"/><g class="cls-15"><path d="M265.38,334.07a2.83,2.83,0,0,0,1.94,3,3.14,3.14,0,0,0,3.39-1.25,3.49,3.49,0,0,0,.05-3.66,3.41,3.41,0,0,1-.79,2.34,2.54,2.54,0,0,1-2.25.89,2.05,2.05,0,0,1-1.7-1.64"/></g><circle class="cls-3" cx="267.96" cy="332.96" r="2.76"/><path class="cls-10" d="M270.73,333c-.05,0-.06-.25-.19-.65a2.67,2.67,0,0,0-1-1.4,2.54,2.54,0,1,0-2.42,4.42,2.61,2.61,0,0,0,2.42-.32,2.71,2.71,0,0,0,1-1.4c.13-.41.14-.65.19-.65a1.31,1.31,0,0,1,0,.7,2.75,2.75,0,0,1-1,1.64,3,3,0,0,1-2.81.48,3,3,0,0,1,0-5.64,2.93,2.93,0,0,1,2.81.47,2.85,2.85,0,0,1,1,1.65A1.33,1.33,0,0,1,270.73,333Z"/><path class="cls-10" d="M269.24,331.77c.05.15-.61.49-1.21,1.12s-.93,1.3-1.08,1.25,0-.88.7-1.61S269.21,331.64,269.24,331.77Z"/><path class="cls-10" d="M269.24,333.82c-.13.08-.59-.43-1.27-.88s-1.31-.7-1.28-.84.8-.11,1.58.41S269.36,333.75,269.24,333.82Z"/><g class="cls-15"><path d="M185,299.84a2.83,2.83,0,0,0,1.94,3,3.11,3.11,0,0,0,3.39-1.24,3.49,3.49,0,0,0,0-3.66,3.43,3.43,0,0,1-.79,2.34,2.53,2.53,0,0,1-2.25.88,2,2,0,0,1-1.7-1.63"/></g><circle class="cls-3" cx="187.58" cy="298.72" r="2.76"/><path class="cls-10" d="M190.35,298.72s-.06-.24-.19-.65a2.71,2.71,0,0,0-1-1.4,2.61,2.61,0,0,0-2.42-.32,2.54,2.54,0,1,0,2.42,4.42,2.67,2.67,0,0,0,1-1.4c.13-.4.14-.65.19-.65a1.33,1.33,0,0,1,0,.7,2.85,2.85,0,0,1-1,1.65,2.93,2.93,0,0,1-2.81.47,3,3,0,0,1,0-5.64,3,3,0,0,1,2.81.48,2.8,2.8,0,0,1,1,1.64A1.29,1.29,0,0,1,190.35,298.72Z"/><path class="cls-10" d="M188.86,297.54c0,.14-.61.48-1.21,1.12s-.94,1.29-1.08,1.25,0-.88.7-1.61S188.83,297.41,188.86,297.54Z"/><path class="cls-10" d="M188.86,299.58c-.13.09-.59-.42-1.27-.87s-1.31-.7-1.28-.85.8-.11,1.57.42S189,299.52,188.86,299.58Z"/><g class="cls-15"><path d="M184.41,333.73a2.83,2.83,0,0,0,1.94,3,3.11,3.11,0,0,0,3.39-1.25,3.47,3.47,0,0,0,0-3.66,3.45,3.45,0,0,1-.78,2.34,2.55,2.55,0,0,1-2.26.89,2,2,0,0,1-1.69-1.64"/></g><circle class="cls-3" cx="187" cy="332.62" r="2.76"/><path class="cls-10" d="M189.76,332.62a4.08,4.08,0,0,1-.18-.65,2.78,2.78,0,0,0-1-1.4,2.58,2.58,0,0,0-2.42-.32,2.53,2.53,0,0,0,0,4.74,2.61,2.61,0,0,0,2.42-.32,2.78,2.78,0,0,0,1-1.4,3.69,3.69,0,0,1,.18-.65s.09.25,0,.7a2.7,2.7,0,0,1-1,1.64,3,3,0,0,1-2.81.48,3,3,0,0,1,0-5.64,2.92,2.92,0,0,1,2.81.48,2.7,2.7,0,0,1,1,1.64C189.85,332.37,189.79,332.62,189.76,332.62Z"/><path class="cls-10" d="M188.27,331.44c0,.14-.6.48-1.21,1.11s-.93,1.3-1.08,1.25,0-.88.71-1.61S188.24,331.3,188.27,331.44Z"/><path class="cls-10" d="M188.27,333.48c-.12.08-.58-.42-1.26-.88s-1.32-.7-1.29-.84.8-.11,1.58.41S188.39,333.41,188.27,333.48Z"/><path class="cls-19" d="M246.72,280.51c.77-.41,23.24-7.63,23.24-7.63l-21.48,12Z"/><path class="cls-10" d="M244.38,278.09a7.6,7.6,0,0,0-7.6,7.6H252A7.6,7.6,0,0,0,244.38,278.09Z"/><path class="cls-10" d="M168,349.54c-.15,0-.26-24.43-.26-54.55s.11-54.54.26-54.54.26,24.41.26,54.54S168.11,349.54,168,349.54Z"/><path class="cls-10" d="M286.81,349.54c-.14,0-.26-24.43-.26-54.55s.12-54.54.26-54.54.27,24.41.27,54.54S287,349.54,286.81,349.54Z"/><circle class="cls-10" cx="162.98" cy="254.07" r="1.17"/><circle class="cls-10" cx="162.98" cy="275.96" r="1.17"/><circle class="cls-10" cx="162.98" cy="297.84" r="1.17"/><circle class="cls-10" cx="162.98" cy="319.73" r="1.17"/><circle class="cls-10" cx="162.98" cy="341.62" r="1.17"/><circle class="cls-10" cx="292.93" cy="254.07" r="1.17"/><circle class="cls-10" cx="292.93" cy="275.96" r="1.17"/><circle class="cls-10" cx="292.93" cy="297.84" r="1.17"/><circle class="cls-10" cx="292.93" cy="319.73" r="1.17"/><circle class="cls-10" cx="292.93" cy="341.62" r="1.17"/><rect class="cls-17" x="196.92" y="227.72" width="51.1" height="12.04"/><path class="cls-10" d="M200.61,239.76a32,32,0,0,1-.26-5.81,32,32,0,0,1,.26-5.81,33.09,33.09,0,0,1,.26,5.81A33.09,33.09,0,0,1,200.61,239.76Z"/><path class="cls-10" d="M205.85,239.76a33.09,33.09,0,0,1-.26-5.81,33.09,33.09,0,0,1,.26-5.81,32,32,0,0,1,.26,5.81A32,32,0,0,1,205.85,239.76Z"/><path class="cls-10" d="M211.1,239.76a33.09,33.09,0,0,1-.26-5.81,33.09,33.09,0,0,1,.26-5.81,33.09,33.09,0,0,1,.26,5.81A33.09,33.09,0,0,1,211.1,239.76Z"/><path class="cls-10" d="M216.35,239.76a32,32,0,0,1-.26-5.81,32,32,0,0,1,.26-5.81,33.09,33.09,0,0,1,.26,5.81A33.09,33.09,0,0,1,216.35,239.76Z"/><path class="cls-10" d="M221.59,239.76a33.09,33.09,0,0,1-.26-5.81,33.09,33.09,0,0,1,.26-5.81,32,32,0,0,1,.26,5.81A32,32,0,0,1,221.59,239.76Z"/><path class="cls-10" d="M226.84,239.76a33.09,33.09,0,0,1-.26-5.81,33.09,33.09,0,0,1,.26-5.81,33.09,33.09,0,0,1,.26,5.81A33.09,33.09,0,0,1,226.84,239.76Z"/><path class="cls-10" d="M232.09,239.76a32,32,0,0,1-.26-5.81,32,32,0,0,1,.26-5.81,33.09,33.09,0,0,1,.26,5.81A33.09,33.09,0,0,1,232.09,239.76Z"/><path class="cls-10" d="M237.33,239.76a33.09,33.09,0,0,1-.26-5.81,33.09,33.09,0,0,1,.26-5.81,32,32,0,0,1,.26,5.81A32,32,0,0,1,237.33,239.76Z"/><path class="cls-10" d="M242.58,239.76a33.09,33.09,0,0,1-.26-5.81,33.09,33.09,0,0,1,.26-5.81,33.09,33.09,0,0,1,.26,5.81A33.09,33.09,0,0,1,242.58,239.76Z"/><g class="cls-15"><path d="M308.3,265.86c1.24,6.27,2.39,12.16,3.62,18.42a26.7,26.7,0,0,1-3.62,0c0-6,0-12.41,0-18.41"/></g><path class="cls-18" d="M154.76,251.5c.15,0,0,18.67-.34,41.7s-.71,41.7-.86,41.7,0-18.67.34-41.71S154.62,251.49,154.76,251.5Z"/><path class="cls-18" d="M176.51,337.47c-.15,0-.26-9.3-.26-20.77s.11-20.77.26-20.77.26,9.3.26,20.77S176.65,337.47,176.51,337.47Z"/><path class="cls-18" d="M274.72,243.13c0,.14-22.93.26-51.2.26s-51.2-.12-51.2-.26,22.92-.26,51.2-.26S274.72,243,274.72,243.13Z"/><path class="cls-20" d="M246.7,330.73,234.16,309a.76.76,0,0,1,0,.21l.07,23.08a1.09,1.09,0,0,1-1.64,1l-19.75-11.32a1,1,0,0,1,0-1.74l20-11.72a.86.86,0,0,1,1,.13L227.81,298a1.4,1.4,0,0,0-2.41,0L206.48,331a1.63,1.63,0,0,0,1.41,2.46h37.27A1.78,1.78,0,0,0,246.7,330.73Z"/><path class="cls-20" d="M233.93,308.61l.23.4A.84.84,0,0,0,233.93,308.61Z"/><path class="cls-20" d="M225.24,326.58l-1.12-1.94-2.49-5.17a2.39,2.39,0,0,0-.13-.28,2.49,2.49,0,0,1-.11-.29,1.12,1.12,0,0,1,0-.27.67.67,0,0,1,.29-.51,1.18,1.18,0,0,1,.74-.22,1,1,0,0,1,.76.25,3.16,3.16,0,0,1,.46.81l2.36,5.35,2.37-5.39a4.93,4.93,0,0,1,.28-.59.86.86,0,0,1,.3-.3,1.08,1.08,0,0,1,.58-.13,1.25,1.25,0,0,1,.51.1,1,1,0,0,1,.36.27.56.56,0,0,1,.13.35.82.82,0,0,1,0,.26c0,.09-.07.18-.11.27s-.08.18-.13.27l-2.52,5.22-1,1.89A.87.87,0,0,1,225.24,326.58Z"/><path class="cls-17" d="M270.44,162.73h1.32a13.95,13.95,0,0,1,13.95,13.95v3.77a13.95,13.95,0,0,1-13.95,13.95h-1.32a0,0,0,0,1,0,0V162.73a0,0,0,0,1,0,0Z" transform="translate(0.64 -0.99) rotate(0.21)"/><path class="cls-10" d="M270.36,194.4v0l.11-31.7h1.35a13.87,13.87,0,0,1,9.83,4.09l0,0a13.82,13.82,0,0,1,4.05,9.89v3.77a14,14,0,0,1-14,13.93Zm.16-31.67-.11,31.63h1.3a13.91,13.91,0,0,0,14-13.88v-3.77a13.8,13.8,0,0,0-4-9.86l0,0a13.82,13.82,0,0,0-9.79-4.07Z"/><path class="cls-17" d="M161.4,161.49h1.32a13.95,13.95,0,0,1,13.95,13.95v3.77a14,14,0,0,1-14,14H161.4a0,0,0,0,1,0,0V161.49A0,0,0,0,1,161.4,161.49Z" transform="translate(330.83 361.28) rotate(-177.7)"/><path class="cls-10" d="M165.4,189.35c-.14-.13-.27-.27-.4-.41a13.94,13.94,0,0,1-3.7-10l.16-3.77A14,14,0,0,1,176,161.73l1.35.05v0l-1.28,31.67h0l-1.32,0A13.91,13.91,0,0,1,165.4,189.35ZM176,161.78a13.92,13.92,0,0,0-14.47,13.35l-.15,3.77a13.82,13.82,0,0,0,3.68,10l.39.41a13.88,13.88,0,0,0,9.28,4.06l1.3.05,1.26-31.6Z"/><rect class="cls-17" x="186.34" y="132.79" width="2.5" height="20.69" transform="matrix(0.99, -0.11, 0.11, 0.99, -14.17, 20.79)"/><path class="cls-10" d="M191.37,130.55a5.1,5.1,0,1,1-5.61-4.53A5.09,5.09,0,0,1,191.37,130.55Z"/><rect class="cls-14" x="172.76" y="152.46" width="99.18" height="74.84" rx="16.5" transform="translate(0.67 -0.78) rotate(0.2)"/><polygon class="cls-17" points="257.42 152.58 261.82 145.06 257.08 141.66 260.21 136.18 261.85 137.21 259.64 141.27 264.25 144.78 259.83 152.59 257.42 152.58"/><rect class="cls-10" x="179.83" y="163.64" width="85.13" height="30.57" rx="13.96" transform="translate(0.63 -0.78) rotate(0.2)"/><path class="cls-10" d="M249.91,198.5s.2,0,.59-.05a18.18,18.18,0,0,0,7.94-2.24,18.77,18.77,0,0,0,3.79-2.86,18.26,18.26,0,0,0,3.3-4.57,17.51,17.51,0,0,0,1.79-6.2c0-.57.05-1.15.08-1.75V179a26.21,26.21,0,0,0-.17-3.74,17.42,17.42,0,0,0-13.47-14.67,21.33,21.33,0,0,0-4.69-.42l-9.95,0L194.8,160a17.42,17.42,0,0,0-10.65,3.63,18.29,18.29,0,0,0-3.83,4.08,17.85,17.85,0,0,0-2.81,7.68c-.06.9-.13,1.79-.12,2.71a30.54,30.54,0,0,0,.23,5.35A17.43,17.43,0,0,0,192.76,198c.78.06,1.55.12,2.34.12l4.62,0,16.85.09,24.39.17,6.64.07,1.72,0,.59,0s-.2,0-.59,0l-1.72,0-6.64,0H216.57l-16.85,0H195.1c-.79,0-1.59-.06-2.39-.12a18,18,0,0,1-2.39-.45,17.8,17.8,0,0,1-13.19-14.4,30.82,30.82,0,0,1-.24-5.43c0-.91.05-1.84.11-2.77a20,20,0,0,1,.55-2.75,17.74,17.74,0,0,1,2.34-5.15,18.74,18.74,0,0,1,3.94-4.21,17.9,17.9,0,0,1,11-3.74l44.31.18,9.95.05a21.7,21.7,0,0,1,4.78.44,17.74,17.74,0,0,1,13.75,15.06,26.91,26.91,0,0,1,.15,3.78c0,.61,0,1.22,0,1.82s-.06,1.19-.09,1.77a17.62,17.62,0,0,1-1.86,6.31,17.61,17.61,0,0,1-7.26,7.47,16.6,16.6,0,0,1-6.31,2,12.58,12.58,0,0,1-1.72.11Z"/><circle class="cls-10" cx="262.62" cy="133.45" r="5.1" transform="translate(-16 229.11) rotate(-45.89)"/><path class="cls-10" d="M191.32,227.19a4.25,4.25,0,0,1-.11-1.14c0-.73-.08-1.79-.11-3.1-.06-2.62-.11-6.23-.13-10.23s0-7.61.06-10.23a23,23,0,0,1,.25-4.23,7,7,0,0,1,.06,1.13l.06,3.1c0,2.74.06,6.3.09,10.23s0,7.61,0,10.23c0,1.22,0,2.25-.06,3.1A5.88,5.88,0,0,1,191.32,227.19Z"/><path class="cls-10" d="M252.79,227a5.64,5.64,0,0,1-.11-1.14c0-.73-.07-1.79-.1-3.1-.06-2.62-.11-6.23-.13-10.23s0-7.61.06-10.23a23,23,0,0,1,.25-4.23,7,7,0,0,1,.06,1.13c0,.85,0,1.88.06,3.1,0,2.74.05,6.3.09,10.23s0,7.61,0,10.23c0,1.22,0,2.26-.06,3.1A4.6,4.6,0,0,1,252.79,227Z"/><path class="cls-10" d="M248.24,219c-.09-11.45-52.24-11-52.15.42l-.05-5.72c-.09-11.17,52.07-11.59,52.16-.42Z"/><path class="cls-10" d="M187.74,204a1.09,1.09,0,1,1,.06-1.55A1.09,1.09,0,0,1,187.74,204Z"/><path class="cls-10" d="M187.41,216.15a1.09,1.09,0,1,1,.06-1.55A1.09,1.09,0,0,1,187.41,216.15Z"/><path class="cls-10" d="M257.7,203.39a1.09,1.09,0,1,1-1.48-1.61,1.09,1.09,0,0,1,1.54.06A1.1,1.1,0,0,1,257.7,203.39Z"/><path class="cls-10" d="M257.37,215.52a1.1,1.1,0,0,1-1.55-.07,1.09,1.09,0,0,1,1.61-1.48A1.1,1.1,0,0,1,257.37,215.52Z"/><path class="cls-18" d="M164.2,182.1A29.9,29.9,0,0,0,164,179c-.11-1-.32-2.08-.41-3.37a10.48,10.48,0,0,1,.57-4.16,11.17,11.17,0,0,1,4.73-5.84,9.12,9.12,0,0,1,2.1-1,3.14,3.14,0,0,1,.83-.16A22.14,22.14,0,0,0,169.1,166a11.53,11.53,0,0,0-4.44,5.7c-1,2.73-.42,5.41-.28,7.32A7.14,7.14,0,0,1,164.2,182.1Z"/><path class="cls-18" d="M251.82,156c0,.14-14.77,0-33-.22s-33-.59-33-.73,14.77,0,33,.21S251.82,155.82,251.82,156Z"/><path class="cls-18" d="M183,132.87c-.05,0-.37-.37-.53-1.17a4.1,4.1,0,0,1,3.12-4.8c.79-.18,1.28-.05,1.28,0s-.48.09-1.18.34a4.21,4.21,0,0,0-2.86,4.4C182.88,132.39,183.06,132.83,183,132.87Z"/><path class="cls-18" d="M259.15,135.24s-.39-.41-.54-1.27a4.16,4.16,0,0,1,3.73-4.83c.87-.08,1.38.14,1.36.2s-.52,0-1.31.16a4.17,4.17,0,0,0-3.41,4.43C259,134.73,259.23,135.2,259.15,135.24Z"/><path class="cls-18" d="M280.25,167.68a21.91,21.91,0,0,0-3.56-2.24,22.15,22.15,0,0,0-4.08-1.06,6.52,6.52,0,0,1,4.28.58A6.59,6.59,0,0,1,280.25,167.68Z"/><path class="cls-18" d="M175.41,213.81c-.14,0-.17-4.69-.08-10.47a101.91,101.91,0,0,1,.45-10.47c.14,0,.17,4.69.08,10.48A101.59,101.59,0,0,1,175.41,213.81Z"/><circle class="cls-18" cx="199.59" cy="178.55" r="10.43"/><circle class="cls-21" cx="200.35" cy="178.97" r="8.88"/><circle class="cls-18" cx="245.63" cy="178.45" r="10.43"/><circle class="cls-21" cx="246.39" cy="178.88" r="8.88"/></g><path class="cls-10" d="M425.24,430.6c0,.14-95.2.26-212.61.26S0,430.74,0,430.6s95.18-.26,212.63-.26S425.24,430.46,425.24,430.6Z"/></g></g></g></svg>