<svg xmlns="http://www.w3.org/2000/svg" xmlns:xlink="http://www.w3.org/1999/xlink" viewBox="0 0 413.26 440.64"><defs><style>.cls-1{isolation:isolate;}.cls-2{fill:none;}.cls-3,.cls-4{fill:#e0e0e0;}.cls-4,.cls-5,.cls-6,.cls-63,.cls-64{fill-rule:evenodd;}.cls-5,.cls-7{fill:#ebebeb;}.cls-6,.cls-8{fill:#f5f5f5;}.cls-9{fill:#fafafa;}.cls-10{fill:#263238;}.cls-11,.cls-63{fill:#e8505b;}.cls-12{fill:#a52b31;opacity:0.2;}.cls-12,.cls-24,.cls-25,.cls-26,.cls-27,.cls-28,.cls-29,.cls-30,.cls-31,.cls-32,.cls-33,.cls-34,.cls-35,.cls-36,.cls-37,.cls-38,.cls-39{mix-blend-mode:multiply;}.cls-13{fill:#c1273a;}.cls-14,.cls-16,.cls-18,.cls-20,.cls-22,.cls-24,.cls-26,.cls-28,.cls-30,.cls-32,.cls-34,.cls-36,.cls-38,.cls-40,.cls-42,.cls-44,.cls-46,.cls-48,.cls-50,.cls-52,.cls-54{opacity:0.56;}.cls-14,.cls-15,.cls-16,.cls-17,.cls-18,.cls-19,.cls-20,.cls-21,.cls-22,.cls-23,.cls-40,.cls-41,.cls-42,.cls-43,.cls-44,.cls-45,.cls-46,.cls-47,.cls-48,.cls-49,.cls-50,.cls-51,.cls-52,.cls-53,.cls-54,.cls-55{mix-blend-mode:color-dodge;}.cls-14{fill:url(#Degradado_sin_nombre_33);}.cls-15{fill:url(#Degradado_sin_nombre_36);}.cls-16{fill:url(#Degradado_sin_nombre_33-2);}.cls-17{fill:url(#Degradado_sin_nombre_36-2);}.cls-18{fill:url(#Degradado_sin_nombre_33-3);}.cls-19{fill:url(#Degradado_sin_nombre_36-3);}.cls-20{fill:url(#Degradado_sin_nombre_33-4);}.cls-21{fill:url(#Degradado_sin_nombre_36-4);}.cls-22{fill:url(#Degradado_sin_nombre_33-5);}.cls-23{fill:url(#Degradado_sin_nombre_36-5);}.cls-24{fill:url(#Degradado_sin_nombre_50);}.cls-25{fill:url(#Degradado_sin_nombre_49);}.cls-26{fill:url(#Degradado_sin_nombre_50-2);}.cls-27{fill:url(#Degradado_sin_nombre_49-2);}.cls-28{fill:url(#Degradado_sin_nombre_50-3);}.cls-29{fill:url(#Degradado_sin_nombre_49-3);}.cls-30{fill:url(#Degradado_sin_nombre_50-4);}.cls-31{fill:url(#Degradado_sin_nombre_49-4);}.cls-32{fill:url(#Degradado_sin_nombre_50-5);}.cls-33{fill:url(#Degradado_sin_nombre_49-5);}.cls-34{fill:url(#Degradado_sin_nombre_50-6);}.cls-35{fill:url(#Degradado_sin_nombre_49-6);}.cls-36{fill:url(#Degradado_sin_nombre_50-7);}.cls-37{fill:url(#Degradado_sin_nombre_49-7);}.cls-38{fill:url(#Degradado_sin_nombre_50-8);}.cls-39{fill:url(#Degradado_sin_nombre_49-8);}.cls-40{fill:url(#Degradado_sin_nombre_33-6);}.cls-41{fill:url(#Degradado_sin_nombre_36-6);}.cls-42{fill:url(#Degradado_sin_nombre_33-7);}.cls-43{fill:url(#Degradado_sin_nombre_36-7);}.cls-44{fill:url(#Degradado_sin_nombre_33-8);}.cls-45{fill:url(#Degradado_sin_nombre_36-8);}.cls-46{fill:url(#Degradado_sin_nombre_33-9);}.cls-47{fill:url(#Degradado_sin_nombre_36-9);}.cls-48{fill:url(#Degradado_sin_nombre_33-10);}.cls-49{fill:url(#Degradado_sin_nombre_36-10);}.cls-50{fill:url(#Degradado_sin_nombre_33-11);}.cls-51{fill:url(#Degradado_sin_nombre_36-11);}.cls-52{fill:url(#Degradado_sin_nombre_33-12);}.cls-53{fill:url(#Degradado_sin_nombre_36-12);}.cls-54{fill:url(#Degradado_sin_nombre_33-13);}.cls-55{fill:url(#Degradado_sin_nombre_36-13);}.cls-56{fill:url(#Degradado_sin_nombre_53);}.cls-57,.cls-64{fill:#455a64;}.cls-58{fill:#c13333;}.cls-59{fill:#fff;}.cls-60{opacity:0.3;}.cls-61{opacity:0.8;}.cls-62{opacity:0.6;}.cls-65{fill:#fcfcfc;}</style><radialGradient id="Degradado_sin_nombre_33" cx="316.33" cy="44.81" r="7.03" gradientUnits="userSpaceOnUse"><stop offset="0" stop-color="#f2d2c2"/><stop offset="0" stop-color="#f2d2c2"/><stop offset="0.23" stop-color="#f2d2c2" stop-opacity="0.65"/><stop offset="0.42" stop-color="#f2d2c2" stop-opacity="0.37"/><stop offset="0.59" stop-color="#f2d2c2" stop-opacity="0.17"/><stop offset="0.71" stop-color="#f2d2c2" stop-opacity="0.05"/><stop offset="0.78" stop-color="#f2d2c2" stop-opacity="0"/></radialGradient><radialGradient id="Degradado_sin_nombre_36" cx="316.33" cy="45.18" r="3.74" gradientUnits="userSpaceOnUse"><stop offset="0" stop-color="#f2d2c2"/><stop offset="0.04" stop-color="#f2d2c2" stop-opacity="0.85"/><stop offset="0.09" stop-color="#f2d2c2" stop-opacity="0.65"/><stop offset="0.15" stop-color="#f2d2c2" stop-opacity="0.47"/><stop offset="0.22" stop-color="#f2d2c2" stop-opacity="0.33"/><stop offset="0.28" stop-color="#f2d2c2" stop-opacity="0.21"/><stop offset="0.35" stop-color="#f2d2c2" stop-opacity="0.12"/><stop offset="0.42" stop-color="#f2d2c2" stop-opacity="0.05"/><stop offset="0.51" stop-color="#f2d2c2" stop-opacity="0.01"/><stop offset="0.63" stop-color="#f2d2c2" stop-opacity="0"/></radialGradient><radialGradient id="Degradado_sin_nombre_33-2" cx="341.78" cy="22.09" r="3.62" xlink:href="#Degradado_sin_nombre_33"/><radialGradient id="Degradado_sin_nombre_36-2" cx="341.78" cy="22.28" r="1.93" gradientTransform="translate(14.18 -77.67) rotate(13.24)" xlink:href="#Degradado_sin_nombre_36"/><radialGradient id="Degradado_sin_nombre_33-3" cx="291.04" cy="22.28" r="3.62" gradientTransform="translate(209.08 -257.87) rotate(69.31)" xlink:href="#Degradado_sin_nombre_33"/><radialGradient id="Degradado_sin_nombre_36-3" cx="291.04" cy="22.47" r="1.93" gradientTransform="translate(14.32 -70.45) rotate(14.15)" xlink:href="#Degradado_sin_nombre_36"/><radialGradient id="Degradado_sin_nombre_33-4" cx="352.81" cy="83.28" r="3.62" xlink:href="#Degradado_sin_nombre_33"/><radialGradient id="Degradado_sin_nombre_36-4" cx="352.81" cy="83.47" r="1.93" xlink:href="#Degradado_sin_nombre_36"/><radialGradient id="Degradado_sin_nombre_33-5" cx="279.86" cy="83.47" r="3.62" xlink:href="#Degradado_sin_nombre_33"/><radialGradient id="Degradado_sin_nombre_36-5" cx="279.86" cy="83.66" r="1.93" gradientTransform="translate(26.82 -62.26) rotate(13.33)" xlink:href="#Degradado_sin_nombre_36"/><radialGradient id="Degradado_sin_nombre_50" cx="315.17" cy="6.35" r="1.42" gradientTransform="matrix(0, 1, -1.9, 0, 364.12, -280.65)" gradientUnits="userSpaceOnUse"><stop offset="0" stop-color="#71008c"/><stop offset="0.23" stop-color="#71008c" stop-opacity="0.63"/><stop offset="0.48" stop-color="#71008c" stop-opacity="0.29"/><stop offset="0.67" stop-color="#71008c" stop-opacity="0.08"/><stop offset="0.78" stop-color="#71008c" stop-opacity="0"/></radialGradient><radialGradient id="Degradado_sin_nombre_49" cx="315.28" cy="6.41" r="0.76" gradientTransform="matrix(0.97, 0.25, -0.48, 1.84, 49.86, -55.89)" gradientUnits="userSpaceOnUse"><stop offset="0" stop-color="#71008c"/><stop offset="0.05" stop-color="#71008c" stop-opacity="0.82"/><stop offset="0.12" stop-color="#71008c" stop-opacity="0.57"/><stop offset="0.2" stop-color="#71008c" stop-opacity="0.36"/><stop offset="0.29" stop-color="#71008c" stop-opacity="0.2"/><stop offset="0.38" stop-color="#71008c" stop-opacity="0.09"/><stop offset="0.48" stop-color="#71008c" stop-opacity="0.02"/><stop offset="0.63" stop-color="#71008c" stop-opacity="0"/></radialGradient><radialGradient id="Degradado_sin_nombre_50-2" cx="-1229.16" cy="215.63" r="1.42" gradientTransform="matrix(-0.97, 0.25, 0.48, 1.84, -1012.01, -55.89)" xlink:href="#Degradado_sin_nombre_50"/><radialGradient id="Degradado_sin_nombre_49-2" cx="-1229.04" cy="215.68" r="0.76" gradientTransform="matrix(-0.97, 0.25, 0.48, 1.84, -1012.01, -55.89)" xlink:href="#Degradado_sin_nombre_49"/><radialGradient id="Degradado_sin_nombre_50-3" cx="-678.52" cy="-47.2" r="1.42" gradientTransform="matrix(-1, 0, 0, -1.9, -337.93, 4.78)" xlink:href="#Degradado_sin_nombre_50"/><radialGradient id="Degradado_sin_nombre_49-3" cx="-678.41" cy="-47.14" r="0.76" gradientTransform="matrix(-0.25, 0.97, -1.84, -0.48, 84.17, 729.21)" xlink:href="#Degradado_sin_nombre_49"/><radialGradient id="Degradado_sin_nombre_50-4" cx="-651.47" cy="708.12" r="1.42" gradientTransform="matrix(0.25, 0.97, 1.84, -0.48, -850.03, 1061.87)" xlink:href="#Degradado_sin_nombre_50"/><radialGradient id="Degradado_sin_nombre_49-4" cx="-651.36" cy="708.17" r="0.76" gradientTransform="matrix(0.25, 0.97, 1.84, -0.48, -850.03, 1061.87)" xlink:href="#Degradado_sin_nombre_49"/><radialGradient id="Degradado_sin_nombre_50-5" cx="132.62" cy="1184.47" r="3.62" gradientTransform="translate(-41.62 86.71) rotate(-45) scale(2.06 0.23)" xlink:href="#Degradado_sin_nombre_50"/><radialGradient id="Degradado_sin_nombre_49-5" cx="132.62" cy="1184.66" r="1.93" gradientTransform="translate(-41.62 86.71) rotate(-45) scale(2.06 0.23)" xlink:href="#Degradado_sin_nombre_49"/><radialGradient id="Degradado_sin_nombre_50-6" cx="16.78" cy="1146.65" r="3.62" gradientTransform="translate(110.6 -74.36) rotate(-45) scale(4.59 0.22)" xlink:href="#Degradado_sin_nombre_50"/><radialGradient id="Degradado_sin_nombre_49-6" cx="16.78" cy="1146.84" r="1.93" gradientTransform="translate(110.6 -74.36) rotate(-45) scale(4.59 0.22)" xlink:href="#Degradado_sin_nombre_49"/><radialGradient id="Degradado_sin_nombre_50-7" cx="-210.35" cy="-3659.92" r="3.62" gradientTransform="matrix(-3.25, -3.25, -0.15, 0.15, -953.62, -74.36)" xlink:href="#Degradado_sin_nombre_50"/><radialGradient id="Degradado_sin_nombre_49-7" cx="-210.35" cy="-3659.73" r="1.93" gradientTransform="matrix(-3.25, -3.25, -0.15, 0.15, -953.62, -74.36)" xlink:href="#Degradado_sin_nombre_49"/><radialGradient id="Degradado_sin_nombre_50-8" cx="-327.15" cy="-2839.99" r="3.62" gradientTransform="matrix(-1.45, -1.45, -0.17, 0.17, -662.61, 86.71)" xlink:href="#Degradado_sin_nombre_50"/><radialGradient id="Degradado_sin_nombre_49-8" cx="-327.15" cy="-2839.8" r="1.93" gradientTransform="matrix(-1.45, -1.45, -0.17, 0.17, -662.61, 86.71)" xlink:href="#Degradado_sin_nombre_49"/><radialGradient id="Degradado_sin_nombre_33-6" cx="-196.61" cy="-1983.35" r="7.04" gradientTransform="translate(251.08 704.43) rotate(45) scale(2.25 0.26)" xlink:href="#Degradado_sin_nombre_33"/><radialGradient id="Degradado_sin_nombre_36-6" cx="-196.61" cy="-1982.98" r="3.74" gradientTransform="translate(251.08 704.43) rotate(45) scale(2.25 0.26)" xlink:href="#Degradado_sin_nombre_36"/><radialGradient id="Degradado_sin_nombre_33-7" cx="-194.93" cy="-1916.65" r="7.04" gradientTransform="translate(251.08 704.43) rotate(45) scale(2.25 0.26)" xlink:href="#Degradado_sin_nombre_33"/><radialGradient id="Degradado_sin_nombre_36-7" cx="-194.93" cy="-1916.29" r="3.74" gradientTransform="translate(251.08 704.43) rotate(45) scale(2.25 0.26)" xlink:href="#Degradado_sin_nombre_36"/><radialGradient id="Degradado_sin_nombre_33-8" cx="-563.06" cy="1214.34" r="7.04" gradientTransform="matrix(-1.59, 1.59, 0.18, 0.18, -785.39, 704.43)" xlink:href="#Degradado_sin_nombre_33"/><radialGradient id="Degradado_sin_nombre_36-8" cx="-563.06" cy="1214.71" r="3.74" gradientTransform="matrix(-1.59, 1.59, 0.18, 0.18, -785.39, 704.43)" xlink:href="#Degradado_sin_nombre_36"/><radialGradient id="Degradado_sin_nombre_33-9" cx="-561.38" cy="1281.04" r="7.04" gradientTransform="matrix(-2.25, 0, 0, 0.26, -920.93, -284.05)" xlink:href="#Degradado_sin_nombre_33"/><radialGradient id="Degradado_sin_nombre_36-9" cx="-561.38" cy="1281.41" r="3.74" gradientTransform="matrix(-1.59, 1.59, 0.18, 0.18, -785.39, 704.43)" xlink:href="#Degradado_sin_nombre_36"/><radialGradient id="Degradado_sin_nombre_33-10" cx="-648.28" cy="-861.7" r="7.04" gradientTransform="translate(-1165.05 -151.16) rotate(180) scale(2.25 0.26)" xlink:href="#Degradado_sin_nombre_33"/><radialGradient id="Degradado_sin_nombre_36-10" cx="-648.28" cy="-861.33" r="3.74" gradientTransform="translate(-895.81 943.64) rotate(135) scale(2.25 0.26)" xlink:href="#Degradado_sin_nombre_36"/><radialGradient id="Degradado_sin_nombre_33-11" cx="-649.6" cy="-928.23" r="7.04" gradientTransform="translate(-895.81 943.64) rotate(135) scale(2.25 0.26)" xlink:href="#Degradado_sin_nombre_33"/><radialGradient id="Degradado_sin_nombre_36-11" cx="-649.6" cy="-927.86" r="3.74" gradientTransform="translate(-895.81 943.64) rotate(135) scale(2.25 0.26)" xlink:href="#Degradado_sin_nombre_36"/><radialGradient id="Degradado_sin_nombre_33-12" cx="-526.81" cy="2422.72" r="7.04" gradientTransform="translate(-939.52 -325.45) rotate(-135) scale(2.25 0.26)" xlink:href="#Degradado_sin_nombre_33"/><radialGradient id="Degradado_sin_nombre_36-12" cx="-526.81" cy="2423.08" r="3.74" gradientTransform="translate(-939.52 -325.45) rotate(-135) scale(2.25 0.26)" xlink:href="#Degradado_sin_nombre_36"/><radialGradient id="Degradado_sin_nombre_33-13" cx="-528.13" cy="2356.19" r="7.04" gradientTransform="translate(-939.52 -325.45) rotate(-135) scale(2.25 0.26)" xlink:href="#Degradado_sin_nombre_33"/><radialGradient id="Degradado_sin_nombre_36-13" cx="-528.13" cy="2356.56" r="3.74" gradientTransform="translate(-939.52 -325.45) rotate(-135) scale(2.25 0.26)" xlink:href="#Degradado_sin_nombre_36"/><radialGradient id="Degradado_sin_nombre_53" cx="316.34" cy="-1545.6" r="42.74" gradientTransform="translate(0 347.6) scale(1 0.16)" gradientUnits="userSpaceOnUse"><stop offset="0" stop-color="#8f8f8f"/><stop offset="0.24" stop-color="#8f8f8f" stop-opacity="0.62"/><stop offset="0.49" stop-color="#8f8f8f" stop-opacity="0.29"/><stop offset="0.68" stop-color="#8f8f8f" stop-opacity="0.08"/><stop offset="0.78" stop-color="#8f8f8f" stop-opacity="0"/></radialGradient></defs><title>Asset 2</title><g class="cls-1"><g id="Layer_2" data-name="Layer 2"><g id="Layer_6" data-name="Layer 6"><path class="cls-2" d="M327,209.14a21.78,21.78,0,0,1,2.12-5.37l-2.92-4.47,6.15-6.36,4.57,2.78a21.6,21.6,0,0,1,5.3-2.3l1.09-5.23,8.85-.15,1.27,5.2a21.56,21.56,0,0,1,5.36,2.12l4.48-2.93,6.36,6.16-2.78,4.57a21.53,21.53,0,0,1,2.3,5.29l5.23,1.1.15,8.85-5.2,1.27a21.87,21.87,0,0,1-2.12,5.36l2.93,4.48L364,235.87l-4.57-2.78a21.91,21.91,0,0,1-5.29,2.3l-1.1,5.23-8.85.14-1.27-5.19a21.71,21.71,0,0,1-5.36-2.12L333,236.37l-6.36-6.15,2.78-4.57a22,22,0,0,1-2.3-5.3l-5.23-1.09-.14-8.85,5.19-1.27Zm11.67,5a9.49,9.49,0,1,0,9.33-9.65A9.48,9.48,0,0,0,338.64,214.16Z"/><path class="cls-3" d="M338.64,214.16a7.24,7.24,0,0,1,.16-2.35,9.44,9.44,0,0,1,3.35-5.41,9.57,9.57,0,0,1,4-1.91,9.8,9.8,0,0,1,5.12.31,9.78,9.78,0,0,1,4.59,3.31,9.68,9.68,0,0,1,.18,11.52,9,9,0,0,1-2,2.1,9.25,9.25,0,0,1-2.45,1.36,9.72,9.72,0,0,1-5.1.48,9.6,9.6,0,0,1-7.62-7.08,7,7,0,0,1-.23-2.33,21.12,21.12,0,0,0,.43,2.28,9.5,9.5,0,0,0,3.55,5.05,9.28,9.28,0,0,0,8.8,1.15,8.88,8.88,0,0,0,2.32-1.3,8.7,8.7,0,0,0,1.92-2,9.22,9.22,0,0,0-.18-10.92,9.14,9.14,0,0,0-4.34-3.16,9.29,9.29,0,0,0-4.87-.34,9.12,9.12,0,0,0-3.89,1.77,9.48,9.48,0,0,0-3.39,5.17A20.37,20.37,0,0,0,338.64,214.16Z"/><path class="cls-3" d="M327,209.14a1.31,1.31,0,0,1-.32.1l-1,.26-3.88,1,.07-.08c.05,2.26.11,5.24.19,8.84l-.1-.12,5.23,1.07.1,0,0,.09a21.81,21.81,0,0,0,2.3,5.25l0,.09,0,.08-2.77,4.58,0-.23,6.37,6.15-.25,0,4.47-2.93.11-.08.11.07a22,22,0,0,0,5.32,2.09l.13,0,0,.14c.4,1.61.83,3.38,1.28,5.19l-.23-.18,8.85-.15-.24.19c.34-1.63.72-3.42,1.09-5.24l0-.14.15,0a21.48,21.48,0,0,0,5.23-2.28l.13-.08.13.08,4.57,2.78-.31,0,6.15-6.36,0,.32c-.93-1.41-1.92-2.94-2.93-4.48l-.08-.13.07-.14a21.33,21.33,0,0,0,2.1-5.29h0l0-.15.15,0,5.2-1.26-.2.25c-.05-3-.1-5.94-.14-8.85l.2.25-5.23-1.1-.16,0,0-.15a21.38,21.38,0,0,0-2.26-5.23l-.08-.13.08-.13c.94-1.55,1.86-3.07,2.78-4.57l0,.31-6.35-6.16.29,0-4.48,2.93-.12.07-.12-.07a21.44,21.44,0,0,0-5.31-2.1l-.13,0,0-.13-1.26-5.2.22.17-8.85.13.19-.16c-.39,1.84-.76,3.56-1.11,5.23l0,.11-.11,0a21.68,21.68,0,0,0-5.26,2.26l-.09.06-.09-.06-4.56-2.79.19,0-6.18,6.34v-.15l2.9,4.5,0,0,0,0a22.2,22.2,0,0,0-1.77,4c-.14.44-.24.78-.32,1s-.11.34-.11.34,0-.12.07-.35.14-.58.28-1a20.87,20.87,0,0,1,1.7-4v.09c-.8-1.22-1.77-2.68-2.95-4.46l-.05-.08.06-.06,6.13-6.39.09-.09.1.07,4.58,2.76h-.18a21.83,21.83,0,0,1,5.34-2.33l-.14.14c.35-1.66.71-3.39,1.09-5.23l0-.16h.16l8.85-.16h.17l0,.17c.42,1.69.84,3.41,1.28,5.19l-.17-.16a21.76,21.76,0,0,1,5.43,2.14h-.24l4.47-2.94.16-.1.14.13,6.36,6.15.15.14-.11.17L367,203.29V203a21.46,21.46,0,0,1,2.32,5.35l-.19-.18,5.24,1.1.2,0v.21q.08,4.37.15,8.84v.21l-.2.05-5.2,1.27.19-.19h0a22.28,22.28,0,0,1-2.14,5.43v-.27l2.92,4.48.12.17-.15.15-6.16,6.36-.14.14-.17-.1-4.57-2.79h.26a21.87,21.87,0,0,1-5.36,2.32l.18-.18c-.38,1.81-.76,3.6-1.1,5.23l0,.19H353l-8.85.14H344l0-.18c-.43-1.81-.86-3.59-1.25-5.2l.16.17a22.31,22.31,0,0,1-5.42-2.16h.23l-4.49,2.91-.14.09-.11-.11-6.35-6.17-.11-.1.08-.13,2.79-4.56v.17a21.94,21.94,0,0,1-2.29-5.34l.11.11-5.23-1.11-.1,0v-.1c0-3.61-.07-6.59-.1-8.85v-.07h.07l3.86-.9,1-.22Z"/><path class="cls-4" d="M68.15,184.73a24.21,24.21,0,0,1,2.37-6l-3.27-5,6.88-7.11,5.11,3.11a24.53,24.53,0,0,1,5.93-2.57l1.22-5.85,9.9-.16L97.71,167a24.21,24.21,0,0,1,6,2.37l5-3.27,7.11,6.88-3.11,5.12a24.29,24.29,0,0,1,2.57,5.92l5.85,1.22.16,9.9-5.81,1.42a24.21,24.21,0,0,1-2.37,6l3.27,5-6.88,7.11-5.12-3.11a24.46,24.46,0,0,1-5.92,2.57l-1.22,5.85-9.9.16-1.42-5.81a24.21,24.21,0,0,1-6-2.37l-5,3.27-7.11-6.88,3.11-5.12a24.46,24.46,0,0,1-2.57-5.92l-5.85-1.22-.16-9.9,5.81-1.42Zm13,5.61a10.62,10.62,0,1,0,10.45-10.79A10.63,10.63,0,0,0,81.19,190.34Z"/><path class="cls-4" d="M296.21,159.16a7,7,0,0,1,.68-1.73L296,156l2-2,1.48.9a7.28,7.28,0,0,1,1.71-.75l.35-1.69,2.86,0,.41,1.67a7.44,7.44,0,0,1,1.73.69l1.45-.94,2.05,2-.9,1.48a7.28,7.28,0,0,1,.75,1.71l1.69.35,0,2.86-1.67.41a7.44,7.44,0,0,1-.69,1.73l.95,1.45-2,2-1.48-.9a6.86,6.86,0,0,1-1.71.74l-.35,1.69-2.86.05-.41-1.68a7,7,0,0,1-1.73-.68l-1.45.94-2.05-2,.9-1.48a6.86,6.86,0,0,1-.74-1.71l-1.69-.35-.05-2.86,1.68-.41Zm3.76,1.62a3.07,3.07,0,1,0,3-3.12A3.07,3.07,0,0,0,300,160.78Z"/><path class="cls-5" d="M2.32,188.74a9.54,9.54,0,0,1,1-2.39l-1.31-2,2.75-2.84,2.05,1.24a9.36,9.36,0,0,1,2.36-1l.49-2.34,4-.07.56,2.32a10.27,10.27,0,0,1,2.4,1l2-1.3L21.38,184l-1.25,2a9.46,9.46,0,0,1,1,2.37l2.34.49.07,3.95-2.33.57a9.61,9.61,0,0,1-.95,2.4l1.31,2-2.75,2.84-2-1.24a9.43,9.43,0,0,1-2.37,1L14,202.81l-3.95.07-.57-2.32a10,10,0,0,1-2.4-.95l-2,1.31-2.84-2.76,1.24-2a9.67,9.67,0,0,1-1-2.37l-2.34-.49L0,189.31l2.32-.57ZM7.54,191a4.24,4.24,0,1,0,4.17-4.31A4.24,4.24,0,0,0,7.54,191Z"/><path class="cls-5" d="M362.08,125a22.21,22.21,0,0,1,2.17-5.49l-3-4.58,6.3-6.51,4.67,2.84a22.38,22.38,0,0,1,5.42-2.34l1.12-5.36,9.05-.15,1.3,5.32a22.37,22.37,0,0,1,5.49,2.17l4.58-3,6.5,6.29-2.84,4.68a22.33,22.33,0,0,1,2.35,5.41l5.35,1.13.15,9-5.31,1.29a22.06,22.06,0,0,1-2.17,5.49l3,4.58-6.3,6.51-4.67-2.84a22.4,22.4,0,0,1-5.42,2.35l-1.12,5.35-9.05.15-1.3-5.32a22,22,0,0,1-5.49-2.17l-4.58,3-6.51-6.3,2.85-4.68a22,22,0,0,1-2.35-5.41l-5.36-1.12-.14-9.06,5.31-1.29ZM374,130.17a9.71,9.71,0,1,0,9.55-9.87A9.7,9.7,0,0,0,374,130.17Z"/><path class="cls-6" d="M16.68,276a19.9,19.9,0,0,1,2-5l-2.71-4.15,5.7-5.89,4.23,2.58a19.67,19.67,0,0,1,4.9-2.13l1-4.85,8.19-.13,1.18,4.81a20,20,0,0,1,5,2l4.15-2.71,5.89,5.7-2.57,4.23a20.18,20.18,0,0,1,2.12,4.9l4.85,1,.13,8.19-4.81,1.18a20.19,20.19,0,0,1-2,5l2.71,4.14-5.7,5.89-4.24-2.57a20.43,20.43,0,0,1-4.9,2.13l-1,4.84-8.2.14-1.17-4.81a20.29,20.29,0,0,1-5-2l-4.15,2.71-5.89-5.7L19,291.24a19.74,19.74,0,0,1-2.13-4.91l-4.85-1-.13-8.2L16.68,276Zm10.8,4.64a8.8,8.8,0,1,0,8.65-8.93A8.79,8.79,0,0,0,27.48,280.59Z"/><path class="cls-6" d="M188.63,106.4a9.07,9.07,0,0,1,.85-2.17l-1.18-1.8,2.48-2.57,1.85,1.12a8.8,8.8,0,0,1,2.13-.92L195.2,98l3.57-.06.51,2.09a8.55,8.55,0,0,1,2.17.86l1.8-1.18,2.57,2.48L204.7,104a8.8,8.8,0,0,1,.92,2.13l2.11.44.06,3.57-2.09.51a8.7,8.7,0,0,1-.86,2.17l1.18,1.8-2.48,2.57-1.84-1.12a8.87,8.87,0,0,1-2.14.92l-.44,2.11-3.57.06-.51-2.09a8.48,8.48,0,0,1-2.16-.86l-1.81,1.18-2.56-2.48,1.12-1.85a8.45,8.45,0,0,1-.93-2.13l-2.11-.44-.06-3.57,2.1-.51Zm4.7,2a3.83,3.83,0,1,0,3.77-3.89A3.84,3.84,0,0,0,193.33,108.42Z"/><path class="cls-7" d="M373.7,356c4.5-2.32,9.79-2.62,14.78-1.8,2.69.45,5.48,1.25,7.31,3.26s2.17,5.56.07,7.29a6.91,6.91,0,0,1-4.6,1.17c-3.91,0-8.25-.73-11.37,1.62-1.78,1.34-3,3.57-5.1,4.23a5,5,0,0,1-5.54-2.46,8.6,8.6,0,0,1-.62-6.35A9.7,9.7,0,0,1,373.7,356Z"/><path class="cls-7" d="M363.4,336.15c2.75,3.93,8.09,2.63,10.57.23s3.52-5.87,4.48-9.18c2.18-7.57,4.37-15.52,2.75-23.23a12.86,12.86,0,0,0-3-6.31,6.72,6.72,0,0,0-6.39-2.12c-2.7.71-4.37,3.35-5.58,5.86a55.35,55.35,0,0,0-5.47,23.75c0,3.83.44,7.84,2.6,11"/><path class="cls-7" d="M355.84,341.79c3-3.55,3.56-8.72,2.23-13.15s-4.33-8.22-7.79-11.3a41.81,41.81,0,0,0-13.95-8.23,14.9,14.9,0,0,0-6.27-1.07,6.58,6.58,0,0,0-5.27,3.19c-1.46,2.8-.06,6.19,1.47,9a105.42,105.42,0,0,0,9.16,13.95c2.74,3.54,5.89,7,10.07,8.63s8.54,1.42,10.75-1.49"/><path class="cls-3" d="M363.21,395.4a9.4,9.4,0,0,0,.25-1.79c.12-1.3.28-2.93.47-4.87a70.83,70.83,0,0,1,1.1-7.14,55.8,55.8,0,0,1,2.59-8.44,31.44,31.44,0,0,1,4.31-7.62,16,16,0,0,1,5.44-4.53,15.47,15.47,0,0,1,4.59-1.43,8.25,8.25,0,0,0,1.77-.25,7.56,7.56,0,0,0-1.8,0,14,14,0,0,0-4.78,1.24,16.14,16.14,0,0,0-5.75,4.57,30.29,30.29,0,0,0-4.46,7.78,52.18,52.18,0,0,0-2.58,8.57,62.27,62.27,0,0,0-.95,7.23c-.15,2.07-.21,3.75-.24,4.9A8.89,8.89,0,0,0,363.21,395.4Z"/><path class="cls-3" d="M363.55,391.65a3.84,3.84,0,0,0,0-.83v-2.37c0-2.05,0-5,.1-8.7.18-7.34.82-15.25,2-26.39,1.15-10.48,2.71-22.68,4.35-30.61.35-1.8.7-3.42,1-4.84s.59-2.66.85-3.65.41-1.7.56-2.3a2.94,2.94,0,0,0,.14-.82,4.35,4.35,0,0,0-.29.78c-.18.59-.4,1.35-.68,2.27s-.62,2.2-1,3.62-.76,3-1.14,4.84A267.87,267.87,0,0,0,365,351c-1.23,11.17-1.78,21.34-1.83,28.7,0,3.68,0,6.66.13,8.72.06,1,.11,1.74.14,2.37A3.36,3.36,0,0,0,363.55,391.65Z"/><path class="cls-3" d="M363.59,372a13.91,13.91,0,0,0,0-2.48c-.09-1.59-.31-3.88-.76-6.7a89.76,89.76,0,0,0-2.18-9.76,79.53,79.53,0,0,0-4.08-11.56,61.73,61.73,0,0,0-12-18.67,29.64,29.64,0,0,0-2.83-2.62c-.43-.37-.81-.73-1.2-1l-1.09-.76a15.66,15.66,0,0,0-2.09-1.33c-.12.16,2.95,2,6.83,6.09a64.87,64.87,0,0,1,11.69,18.6A93.16,93.16,0,0,1,360,353.28c1.07,3.59,1.78,6.89,2.32,9.67s.8,5.06,1,6.64A17.16,17.16,0,0,0,363.59,372Z"/><polygon class="cls-3" points="344.64 406.63 346.6 433.55 381.19 433.55 383.16 406.63 344.64 406.63"/><rect class="cls-3" x="341.3" y="396.02" width="45.98" height="10.61"/><polygon class="cls-7" points="341.3 432.52 341.3 435.46 343.46 435.46 386.52 435.46 386.52 432.52 341.3 432.52"/><polygon class="cls-3" points="345.58 440.64 343.46 435.46 384.88 435.46 382.4 440.64 345.58 440.64"/><path class="cls-8" d="M382.51,415.43s0,.09-.16.25l-.51.68-2,2.58-.09.12-.09-.12c-1.26-1.76-2.95-4.1-4.95-6.85H375l-4.87,6.9-.16.22-.17-.21L364,412.13h.34l-.32.4L358.85,419l-.17.22-.16-.23-4.88-6.9.29,0c-2.41,2.73-4.45,5.06-6,6.84l-.11.12-.08-.14-1.88-3.16-.48-.84a1.08,1.08,0,0,1-.15-.3,1.57,1.57,0,0,1,.2.27l.54.81,2,3.1h-.19l5.91-6.93.15-.17.14.18,4.92,6.87h-.34l5.16-6.49.32-.4.16-.2.17.2,5.77,6.89h-.33l4.92-6.86.15-.2.14.2c1.95,2.78,3.61,5.15,4.84,6.92h-.17l2.09-2.51.57-.65Z"/><path class="cls-8" d="M383.64,406.45c0,.12-8.67.22-19.36.22s-19.35-.1-19.35-.22,8.66-.21,19.35-.21S383.64,406.33,383.64,406.45Z"/><path class="cls-8" d="M385.38,435.75c0,.12-9.41.22-21,.22s-21-.1-21-.22,9.42-.21,21-.21S385.38,435.64,385.38,435.75Z"/><path class="cls-7" d="M21.16,134.29a10.87,10.87,0,0,1,1.79,0c.58,0,1.29,0,2.1.06s1.76.09,2.78.22A64.67,64.67,0,0,1,35,135.66a71.67,71.67,0,0,1,8.54,2.48,72,72,0,0,1,8.12,3.61,62.75,62.75,0,0,1,6.21,3.76c.87.56,1.6,1.14,2.26,1.62s1.22.93,1.65,1.31a12,12,0,0,1,1.35,1.19,10.53,10.53,0,0,1-1.47-1c-.46-.35-1-.77-1.7-1.23s-1.42-1-2.29-1.56c-1.71-1.13-3.83-2.37-6.23-3.63a76.93,76.93,0,0,0-8.08-3.55,77.6,77.6,0,0,0-8.46-2.5,72.05,72.05,0,0,0-7.11-1.24c-1-.15-1.94-.2-2.76-.29s-1.51-.12-2.09-.15A11.41,11.41,0,0,1,21.16,134.29Z"/><path class="cls-7" d="M2.63,245.7a3.13,3.13,0,0,1,.54-.46L4.77,244c.69-.53,1.56-1.17,2.6-1.85s2.18-1.5,3.54-2.29,2.79-1.71,4.42-2.57,3.37-1.76,5.23-2.67a109,109,0,0,1,12.52-4.92,110.78,110.78,0,0,1,13.07-3.19c2-.32,4-.66,5.81-.83s3.54-.36,5.1-.45,3-.13,4.22-.16,2.31,0,3.18,0l2,.07a3.2,3.2,0,0,1,.7.06,3.45,3.45,0,0,1-.7,0l-2,0c-.87,0-1.94,0-3.18.08s-2.64.08-4.19.24-3.26.25-5.07.51-3.75.54-5.79.87a114.69,114.69,0,0,0-13,3.22,115.86,115.86,0,0,0-12.48,4.85c-1.85.9-3.63,1.73-5.22,2.62s-3.1,1.71-4.44,2.5-2.53,1.57-3.57,2.23-1.93,1.26-2.64,1.76l-1.66,1.14A4.71,4.71,0,0,1,2.63,245.7Z"/><path class="cls-7" d="M74.5,299.45a1.68,1.68,0,0,1,.07-.54l.3-1.54c.13-.66.3-1.47.55-2.4s.48-2,.83-3.17c.65-2.34,1.54-5.08,2.67-8.09s2.53-6.24,4.18-9.56,3.44-6.36,5.15-9.08,3.4-5.06,4.89-7c.72-1,1.43-1.81,2-2.56s1.14-1.37,1.6-1.88l1-1.16a2.88,2.88,0,0,1,.39-.38s-.09.17-.31.45l-1,1.22c-.43.53-1,1.17-1.53,1.94s-1.27,1.61-2,2.6c-1.44,1.93-3.06,4.31-4.77,7s-3.43,5.76-5.09,9.06-3,6.52-4.21,9.49-2.07,5.71-2.76,8c-.37,1.15-.64,2.21-.9,3.13s-.47,1.72-.63,2.38-.29,1.11-.4,1.51A3.82,3.82,0,0,1,74.5,299.45Z"/><path class="cls-7" d="M210.36,25a4,4,0,0,1-.39.6l-1.2,1.69c-.53.72-1.17,1.61-1.87,2.67s-1.55,2.24-2.39,3.6-1.81,2.83-2.74,4.46-1.93,3.39-3,5.24c-2,3.75-4,8-5.83,12.47s-3.32,8.94-4.53,13c-.56,2-1.13,4-1.55,5.81s-.82,3.54-1.15,5.11-.57,3-.8,4.24-.4,2.34-.52,3.23-.24,1.52-.32,2a3.25,3.25,0,0,1-.15.7,3.9,3.9,0,0,1,0-.72c.06-.52.13-1.2.22-2s.23-2,.44-3.24.4-2.7.73-4.27.64-3.31,1.09-5.14,1-3.79,1.51-5.84c1.19-4.08,2.67-8.52,4.5-13.07A135.73,135.73,0,0,1,198.4,43c1-1.86,2-3.63,3-5.24s1.91-3.1,2.8-4.44,1.73-2.52,2.46-3.56,1.39-1.93,2-2.63.95-1.22,1.28-1.63S210.34,25,210.36,25Z"/><path class="cls-7" d="M300.39,128.86a2.88,2.88,0,0,1-.6.11l-1.73.23-1.25.15c-.46.07-.95.18-1.47.27-1.06.22-2.27.39-3.57.77l-2.06.53c-.71.19-1.43.46-2.18.7-1.53.46-3.09,1.14-4.74,1.81A57.55,57.55,0,0,0,263.9,146.7c-1.19,1.33-2.36,2.57-3.3,3.85-.49.63-1,1.21-1.41,1.81L258,154.12c-.8,1.09-1.37,2.18-1.93,3.09-.27.47-.54.89-.76,1.3l-.56,1.12c-.33.63-.6,1.15-.8,1.55a2.14,2.14,0,0,1-.32.53,3.28,3.28,0,0,1,.22-.57l.71-1.6c.17-.35.34-.73.53-1.15s.47-.84.73-1.32a33.93,33.93,0,0,1,1.87-3.16c.37-.57.77-1.16,1.18-1.78s.91-1.21,1.39-1.85c.94-1.3,2.1-2.56,3.29-3.91A56.24,56.24,0,0,1,282.6,133c1.67-.66,3.25-1.33,4.79-1.78.77-.23,1.49-.5,2.22-.68l2.07-.5a34.58,34.58,0,0,1,3.61-.69c.53-.09,1-.18,1.48-.23L298,129l1.74-.13A2.18,2.18,0,0,1,300.39,128.86Z"/><path class="cls-7" d="M373.92,188.37l-.26-.08-.75-.25L370,187l-2.07-.76c-.76-.26-1.6-.51-2.5-.8-1.79-.56-3.81-1.27-6.11-1.85l-3.58-1c-1.25-.34-2.57-.6-3.92-.92-2.71-.67-5.64-1.16-8.71-1.72a150.92,150.92,0,0,0-40.57-1.24c-3.1.37-6.06.68-8.8,1.18-1.37.24-2.7.42-4,.68l-3.63.75c-2.33.44-4.39,1-6.22,1.48-.91.23-1.76.43-2.54.64l-2.11.63-2.93.86-.76.21-.27.05.25-.1.75-.26,2.9-1,2.11-.67c.77-.23,1.62-.45,2.53-.7,1.82-.47,3.88-1.08,6.21-1.55l3.64-.79c1.26-.27,2.6-.46,4-.7,2.74-.53,5.71-.85,8.82-1.24a147,147,0,0,1,40.69,1.25c3.09.58,6,1.08,8.73,1.77,1.36.33,2.68.6,3.93.95l3.58,1c2.3.61,4.31,1.35,6.1,1.93.9.3,1.73.57,2.49.85l2.06.8,2.84,1.12.73.31Z"/><path class="cls-9" d="M218.49,24.46V53c-6.47,6.35-29.85,29.93-29.85,29.93h29.85v22.45a14.49,14.49,0,0,0,14.35,14.48l165.48,1.56a14.47,14.47,0,0,0,14.61-14.48V24.46A14.48,14.48,0,0,0,398.45,10H233A14.48,14.48,0,0,0,218.49,24.46Z"/><path class="cls-10" d="M218.49,24.46s0-.55.06-1.62a14.69,14.69,0,0,1,1.28-4.58,14.45,14.45,0,0,1,1.84-3,15.78,15.78,0,0,1,3.11-2.88,14.82,14.82,0,0,1,4.51-2.05,20.3,20.3,0,0,1,5.6-.5l67.24-.1,46.43,0,25.87,0h23.91c.59,0,1.19,0,1.78.1a13.38,13.38,0,0,1,1.77.31,14.76,14.76,0,0,1,10.43,9.27,15.07,15.07,0,0,1,.85,3.58c.08,1.24.08,2.45.07,3.67,0,2.43,0,4.87,0,7.33V64q0,15.31,0,31.15v11.93a15.29,15.29,0,0,1-.6,4,14.79,14.79,0,0,1-4.36,6.85,13.65,13.65,0,0,1-3.42,2.29,14.62,14.62,0,0,1-3.94,1.26,20.59,20.59,0,0,1-3.91.2l-3.85,0-7.68-.08-15.2-.14-29.75-.29-56.41-.55-51.3-.51a14.77,14.77,0,0,1-10.74-4.82,15,15,0,0,1-3.86-10.71q0-11.26,0-21.67l.24.24-29.85,0h-.5l.36-.35,29.9-29.89,0,.1c0-9.26,0-16.39.06-21.21,0-2.4,0-4.22,0-5.46s0-1.85,0-1.85,0,.62,0,1.85,0,3.06,0,5.46c0,4.82,0,12,.07,21.21V53l0,0-29.8,30-.15-.35,29.85,0h.24v.24q0,10.4,0,21.67a14.47,14.47,0,0,0,3.74,10.35,14.23,14.23,0,0,0,10.35,4.63l51.3.46,56.4.51,29.76.28,15.2.14,7.67.07,3.86,0a19.18,19.18,0,0,0,3.8-.2A14.22,14.22,0,0,0,412,110.93a14.84,14.84,0,0,0,.58-3.86c0-1.33,0-2.66,0-4V64q0-15.31,0-30.06V26.61c0-1.22,0-2.43-.07-3.6a14.48,14.48,0,0,0-.81-3.44,14.14,14.14,0,0,0-10-8.89c-2.23-.59-4.57-.36-6.89-.41h-46.3l-46.43,0-67.24-.11a19.83,19.83,0,0,0-5.55.47,14.6,14.6,0,0,0-4.45,2,15.43,15.43,0,0,0-3.09,2.82,14.55,14.55,0,0,0-1.86,2.94A15.25,15.25,0,0,0,218.49,24.46Z"/><path class="cls-11" d="M329.93,59l21.95-22a4.48,4.48,0,0,0,0-6.34l-7.26-7.26a4.48,4.48,0,0,0-6.34,0l-21.95,22-22-21.95a4.47,4.47,0,0,0-6.33,0l-7.27,7.26a4.48,4.48,0,0,0,0,6.34l22,22-22,21.95a4.48,4.48,0,0,0,0,6.34L288,94.52a4.47,4.47,0,0,0,6.33,0l22-22,21.95,22a4.48,4.48,0,0,0,6.34,0l7.26-7.27a4.48,4.48,0,0,0,0-6.34Z"/><path class="cls-12" d="M294.37,94.52l22-22,21.95,22a4.48,4.48,0,0,0,6.34,0l7.26-7.27a4.33,4.33,0,0,0,1.2-2.19,4.36,4.36,0,0,0-1.2-2.2l-21.95-22,1-1-1-1,21.95-22a4.36,4.36,0,0,0,1.2-2.2,4.37,4.37,0,0,0-1.2-2.19l-7.26-7.27a4.49,4.49,0,0,0-6.34,0L316.33,47.3l-22-21.95a4.48,4.48,0,0,0-6.33,0l-7.27,7.27a4.44,4.44,0,0,0-1.2,2.2,4.45,4.45,0,0,0,1.2,2.19l22,22-1,1,1,1-22,22a4.44,4.44,0,0,0-1.2,2.2,4.41,4.41,0,0,0,1.2,2.19L288,94.52A4.47,4.47,0,0,0,294.37,94.52Zm-12.22-6.7a2.51,2.51,0,0,1,0-3.58l22-21.95,1.37-1.38V59L282.15,37.58a2.51,2.51,0,0,1,0-3.58l7.26-7.27a2.55,2.55,0,0,1,3.59,0l21.95,22,1.38,1.38,1.37-1.38,21.95-21.95a2.55,2.55,0,0,1,3.59,0L350.51,34a2.53,2.53,0,0,1,0,3.58L327.18,59v1.95l1.37,1.38,22,21.95a2.53,2.53,0,0,1,0,3.58l-7.27,7.27a2.55,2.55,0,0,1-3.59,0l-21.95-22-1.37-1.38L315,73.14,293,95.09a2.55,2.55,0,0,1-3.59,0Z"/><path class="cls-13" d="M341.45,24a2.52,2.52,0,0,1,1.79.74l7.27,7.27a2.53,2.53,0,0,1,0,3.58l-22,22L327.18,59l1.37,1.38,22,22a2.56,2.56,0,0,1,.74,1.79,2.53,2.53,0,0,1-.74,1.79l-7.27,7.27a2.55,2.55,0,0,1-3.59,0l-21.95-22-1.37-1.38L315,71.19,293,93.14a2.55,2.55,0,0,1-3.59,0l-7.26-7.27a2.49,2.49,0,0,1-.75-1.79,2.53,2.53,0,0,1,.75-1.79l22-22L305.47,59l-1.37-1.37-22-22a2.51,2.51,0,0,1,0-3.58l7.26-7.27a2.55,2.55,0,0,1,3.59,0L315,46.73l1.38,1.38,1.37-1.38,21.95-21.95a2.53,2.53,0,0,1,1.8-.74m0-1.95a4.44,4.44,0,0,0-3.17,1.32l-21.95,22-22-21.95a4.45,4.45,0,0,0-6.33,0l-7.27,7.26a4.48,4.48,0,0,0,0,6.34l22,22-22,21.95a4.48,4.48,0,0,0,0,6.34L288,94.52a4.48,4.48,0,0,0,6.33,0l22-22,21.95,22a4.49,4.49,0,0,0,6.34,0l7.26-7.27a4.48,4.48,0,0,0,0-6.34L329.93,59l21.95-22a4.48,4.48,0,0,0,0-6.34l-7.26-7.26a4.48,4.48,0,0,0-3.17-1.32Z"/><circle class="cls-14" cx="316.33" cy="44.81" r="7.03"/><circle class="cls-15" cx="316.33" cy="45.18" r="3.74"/><circle class="cls-16" cx="341.78" cy="22.09" r="3.62"/><circle class="cls-17" cx="341.78" cy="22.28" r="1.93" transform="translate(3.98 78.86) rotate(-13.24)"/><circle class="cls-18" cx="291.04" cy="22.28" r="3.62" transform="translate(167.39 286.69) rotate(-69.31)"/><circle class="cls-19" cx="291.04" cy="22.47" r="1.93" transform="translate(3.34 71.82) rotate(-14.15)"/><circle class="cls-20" cx="352.81" cy="83.28" r="3.62"/><circle class="cls-21" cx="352.81" cy="83.47" r="1.93"/><circle class="cls-22" cx="279.86" cy="83.47" r="3.62"/><circle class="cls-23" cx="279.86" cy="83.66" r="1.93" transform="translate(-11.75 66.77) rotate(-13.33)"/><ellipse class="cls-24" cx="352.03" cy="34.51" rx="2.71" ry="1.42" transform="translate(230.72 366.77) rotate(-75.54)"/><path class="cls-25" d="M352.84,34.84c.2-.77,0-1.48-.37-1.58s-.9.43-1.1,1.2,0,1.48.38,1.58S352.64,35.61,352.84,34.84Z"/><path class="cls-26" d="M279.24,34.86c-.37-1.45-.06-2.78.7-3s1.68.82,2.06,2.27.06,2.78-.7,3S279.62,36.31,279.24,34.86Z"/><path class="cls-27" d="M279.81,34.83c-.2-.77,0-1.48.37-1.58s.9.43,1.09,1.2,0,1.48-.37,1.58S280,35.6,279.81,34.83Z"/><ellipse class="cls-28" cx="340.57" cy="94.62" rx="1.42" ry="2.71" transform="translate(163.91 400.78) rotate(-75.54)"/><path class="cls-29" d="M340.25,95.44c.76.19,1.47,0,1.58-.38s-.44-.89-1.21-1.09-1.48,0-1.58.37S339.48,95.24,340.25,95.44Z"/><path class="cls-30" d="M292.43,96c-1.45.38-2.78.06-3-.7s.81-1.68,2.26-2,2.78-.06,3,.7S293.88,95.63,292.43,96Z"/><path class="cls-31" d="M292.4,95.44c-.77.19-1.48,0-1.58-.38s.43-.89,1.2-1.09,1.48,0,1.59.37S293.17,95.24,292.4,95.44Z"/><path class="cls-32" d="M353.2,85.37c-.33-.34-3,1.75-5.86,4.66s-5,5.54-4.67,5.87,3-1.76,5.87-4.67S353.53,85.7,353.2,85.37Z"/><path class="cls-33" d="M350.77,87.86c-.18-.17-1.58.94-3.12,2.48s-2.66,3-2.48,3.12,1.57-.93,3.12-2.48S350.94,88,350.77,87.86Z"/><path class="cls-34" d="M352.87,35.39c-.3-.31-5.82,4.71-12.32,11.21s-11.51,12-11.2,12.32,5.82-4.71,12.32-11.21S353.18,35.7,352.87,35.39Z"/><path class="cls-35" d="M347.39,40.93c-.16-.16-3.09,2.5-6.55,6s-6.12,6.38-6,6.55,3.1-2.51,6.55-6S347.56,41.09,347.39,40.93Z"/><path class="cls-36" d="M279.73,35.39c.3-.31,5.82,4.71,12.32,11.21s11.51,12,11.2,12.32-5.82-4.71-12.32-11.21S279.42,35.7,279.73,35.39Z"/><path class="cls-37" d="M285.21,40.93c.16-.16,3.09,2.5,6.55,6s6.12,6.38,6,6.55-3.1-2.51-6.55-6S285,41.09,285.21,40.93Z"/><path class="cls-38" d="M279.49,85.37c.33-.34,3,1.75,5.87,4.66s5,5.54,4.66,5.87-3-1.76-5.86-4.67S279.16,85.7,279.49,85.37Z"/><path class="cls-39" d="M281.93,87.86c.17-.17,1.57.94,3.12,2.48s2.65,3,2.48,3.12S286,92.53,284.41,91,281.75,88,281.93,87.86Z"/><path class="cls-40" d="M311.94,41.36c.71-.71-3.72-6.28-9.89-12.45S290.3,18.31,289.59,19s3.72,6.29,9.89,12.46S311.23,42.07,311.94,41.36Z"/><path class="cls-41" d="M306.64,36.2c.38-.38-2-3.34-5.26-6.62s-6.24-5.64-6.62-5.26,2,3.34,5.26,6.62S306.26,36.57,306.64,36.2Z"/><path class="cls-42" d="M302.43,56.2c.71-.71-3.72-6.29-9.89-12.46s-11.75-10.6-12.46-9.89,3.72,6.29,9.89,12.46S301.72,56.91,302.43,56.2Z"/><path class="cls-43" d="M297.13,51c.38-.37-2-3.34-5.26-6.62s-6.24-5.63-6.62-5.26,2,3.35,5.26,6.63S296.75,51.41,297.13,51Z"/><path class="cls-44" d="M319.36,42.91c-.71-.71,3.72-6.28,9.89-12.46S341,19.86,341.71,20.57,338,26.85,331.82,33,320.07,43.62,319.36,42.91Z"/><path class="cls-45" d="M324.66,37.75c-.38-.38,2-3.35,5.26-6.63s6.24-5.63,6.62-5.25-2,3.34-5.26,6.62S325,38.12,324.66,37.75Z"/><ellipse class="cls-46" cx="340.04" cy="46.57" rx="15.8" ry="1.82" transform="translate(66.66 254.09) rotate(-45)"/><path class="cls-47" d="M334.17,52.58c-.38-.38,2-3.34,5.26-6.62s6.24-5.64,6.62-5.26-2,3.34-5.26,6.62S334.55,53,334.17,52.58Z"/><ellipse class="cls-48" cx="291.11" cy="71.24" rx="15.8" ry="1.82" transform="translate(34.89 226.71) rotate(-45)"/><path class="cls-49" d="M285.1,77.11c.38.38,3.35-2,6.63-5.26s5.63-6.24,5.25-6.62-3.34,2-6.62,5.26S284.73,76.73,285.1,77.11Z"/><path class="cls-50" d="M294.19,92.44c.7.71,6.28-3.71,12.45-9.89s10.6-11.74,9.89-12.45-6.29,3.72-12.46,9.89S293.48,91.73,294.19,92.44Z"/><path class="cls-51" d="M299.35,87.14c.38.38,3.34-2,6.62-5.25s5.64-6.25,5.26-6.63-3.34,2-6.62,5.26S299,86.77,299.35,87.14Z"/><path class="cls-52" d="M328.19,58c-.71.71,3.71,6.28,9.88,12.45S349.82,81,350.53,80.3s-3.72-6.28-9.89-12.45S328.89,57.25,328.19,58Z"/><path class="cls-53" d="M333.48,63.12c-.37.38,2,3.34,5.26,6.63S345,75.38,345.36,75s-2-3.34-5.25-6.62S333.86,62.75,333.48,63.12Z"/><path class="cls-54" d="M318.15,72.21c-.71.7,3.72,6.28,9.89,12.45s11.75,10.6,12.46,9.89-3.72-6.29-9.89-12.46S318.86,71.5,318.15,72.21Z"/><path class="cls-55" d="M323.45,77.37c-.38.38,2,3.34,5.26,6.62s6.24,5.64,6.62,5.26-2-3.34-5.26-6.62S323.83,77,323.45,77.37Z"/><ellipse class="cls-56" cx="316.34" cy="106.64" rx="42.73" ry="6.66"/><path class="cls-57" d="M129.58,10.24h1.32a13.95,13.95,0,0,1,13.95,13.95V28a14,14,0,0,1-14,14h-1.32a0,0,0,0,1,0,0V10.24a0,0,0,0,1,0,0Z" transform="translate(21.47 104.25) rotate(-44.79)"/><path class="cls-10" d="M143,42.72h0l-22.33-22.5h0l.94-.93a13.9,13.9,0,0,1,9.85-4.06h.05a13.91,13.91,0,0,1,9.87,4.12L144,22a14,14,0,0,1-.07,19.77ZM120.68,20.21,143,42.65l.92-.91A13.93,13.93,0,0,0,144,22.05l-2.66-2.68a13.81,13.81,0,0,0-9.83-4.11h-.05a13.83,13.83,0,0,0-9.81,4Z"/><path class="cls-57" d="M51.6,86.46h1.32a14,14,0,0,1,14,14v3.77a13.95,13.95,0,0,1-13.95,13.95H51.6a0,0,0,0,1,0,0V86.46a0,0,0,0,1,0,0Z" transform="translate(172.14 137.29) rotate(137.3)"/><path class="cls-10" d="M65.17,113.37h-.58a13.91,13.91,0,0,1-9.71-4.48l-2.55-2.78a14,14,0,0,1,.79-19.75l1-.91v0l21.5,23.29,0,0-1,.9A13.86,13.86,0,0,1,65.17,113.37Zm-12-27a13.93,13.93,0,0,0-.79,19.68l2.56,2.77a13.85,13.85,0,0,0,9.68,4.47h.57a13.85,13.85,0,0,0,9.43-3.69l1-.88L54.1,85.51Z"/><rect class="cls-57" x="46.92" y="54.65" width="2.5" height="20.69" transform="translate(-32.66 61.69) rotate(-51.11)"/><path class="cls-10" d="M42,53.42a5.1,5.1,0,1,1-7.17.77A5.11,5.11,0,0,1,42,53.42Z"/><rect class="cls-58" x="56.22" y="36.05" width="99.18" height="74.84" rx="16.5" transform="translate(-21.04 95.89) rotate(-44.8)"/><polygon class="cls-57" points="104.23 22.3 102.03 13.87 96.28 14.82 94.61 8.73 96.5 8.3 97.81 12.73 103.55 11.95 105.95 20.6 104.23 22.3"/><rect class="cls-10" x="55.53" y="50.41" width="85.13" height="30.57" rx="13.96" transform="translate(-17.8 88.2) rotate(-44.8)"/><path class="cls-10" d="M131.4,60.08s.12-.16.37-.45a14.86,14.86,0,0,0,1.1-1.33,17,17,0,0,0,2.93-5.87,18.94,18.94,0,0,0,.67-4.7,18.57,18.57,0,0,0-.9-5.56,17.22,17.22,0,0,0-3.12-5.65l-1.18-1.3L130,33.94a26.54,26.54,0,0,0-2.76-2.52,17.42,17.42,0,0,0-19.91-.85,21.75,21.75,0,0,0-3.61,3l-7,7L65.23,71.84a17.41,17.41,0,0,0-5,10.11,18.06,18.06,0,0,0,.18,5.59A17.53,17.53,0,0,0,63.88,95c.59.69,1.17,1.36,1.83,2a30.29,30.29,0,0,0,3.94,3.62,17.35,17.35,0,0,0,19,.87,18.61,18.61,0,0,0,1.95-1.33c.6-.51,1.18-1,1.74-1.57l3.28-3.25,12-11.85L125,66.31l4.74-4.64,1.24-1.2c.28-.26.44-.39.44-.39s-.13.15-.4.43l-1.21,1.24-4.67,4.7L107.86,83.7,95.93,95.6l-3.27,3.26c-.56.55-1.17,1.08-1.77,1.6a19.85,19.85,0,0,1-2,1.38A17.84,17.84,0,0,1,69.36,101a31.68,31.68,0,0,1-4-3.67c-.65-.63-1.26-1.34-1.87-2a20.56,20.56,0,0,1-1.56-2.33,17.94,17.94,0,0,1-2-5.3,18.83,18.83,0,0,1-.18-5.76,17.85,17.85,0,0,1,5.11-10.4L96.32,40.27l7.07-7a21.63,21.63,0,0,1,3.7-3.07,17.72,17.72,0,0,1,20.36.93,26.56,26.56,0,0,1,2.79,2.57L131.51,35l1.19,1.32a17.6,17.6,0,0,1,3.15,5.78,18.45,18.45,0,0,1,.86,5.65,19.29,19.29,0,0,1-.71,4.76A16.66,16.66,0,0,1,133,58.37a11.53,11.53,0,0,1-1.14,1.29Z"/><path class="cls-59" d="M79.5,91.55a75.67,75.67,0,0,1-.39-9,79.85,79.85,0,0,1,.13-9,76.1,76.1,0,0,1,.39,9A79.51,79.51,0,0,1,79.5,91.55Z"/><path class="cls-59" d="M88.21,81.84a75.1,75.1,0,0,1-9,.67,81.18,81.18,0,0,1-9,.15,75.1,75.1,0,0,1,9-.67A81.16,81.16,0,0,1,88.21,81.84Z"/><path class="cls-59" d="M115.14,55.23a76.1,76.1,0,0,1-.39-9,79.51,79.51,0,0,1,.13-9,76.1,76.1,0,0,1,.39,9A79.51,79.51,0,0,1,115.14,55.23Z"/><path class="cls-59" d="M123.85,45.52a80.44,80.44,0,0,1-9,.67,76.89,76.89,0,0,1-9,.14,79.16,79.16,0,0,1,9-.66A78.34,78.34,0,0,1,123.85,45.52Z"/><circle class="cls-10" cx="94.38" cy="5.1" r="5.1" transform="translate(-0.07 1.46) rotate(-0.89)"/><path class="cls-10" d="M110.25,121.8a5.09,5.09,0,0,1-.88-.73c-.55-.49-1.32-1.22-2.27-2.12-1.9-1.8-4.49-4.33-7.32-7.14s-5.38-5.38-7.2-7.27a22.26,22.26,0,0,1-2.81-3.18,11.05,11.05,0,0,1,.84.77l2.23,2.15c2,1.91,4.5,4.41,7.3,7.16s5.39,5.38,7.22,7.25l2.15,2.24A4.71,4.71,0,0,1,110.25,121.8Z"/><path class="cls-10" d="M153.56,78.17a4.79,4.79,0,0,1-.88-.73c-.54-.49-1.31-1.21-2.26-2.11-1.9-1.81-4.49-4.33-7.33-7.14s-5.38-5.39-7.19-7.28a24.11,24.11,0,0,1-2.82-3.17,6.36,6.36,0,0,1,.85.76c.6.59,1.35,1.3,2.23,2.15l7.3,7.17c2.83,2.81,5.39,5.37,7.22,7.24l2.15,2.24A4.72,4.72,0,0,1,153.56,78.17Z"/><rect class="cls-10" x="90.54" y="81.7" width="52.15" height="5.72" transform="translate(-25.45 108.37) rotate(-45.46)"/><path class="cls-10" d="M91.34,107.94a1.1,1.1,0,1,1-1-1.13A1.1,1.1,0,0,1,91.34,107.94Z"/><path class="cls-10" d="M99.68,116.75a1.1,1.1,0,0,1-2.19-.09,1.1,1.1,0,1,1,2.19.09Z"/><path class="cls-10" d="M140.36,58a1.1,1.1,0,0,1-1.14,1,1.1,1.1,0,1,1,.09-2.19A1.1,1.1,0,0,1,140.36,58Z"/><path class="cls-10" d="M148.7,66.84a1.09,1.09,0,1,1-2.18-.09,1.09,1.09,0,1,1,2.18.09Z"/><path class="cls-59" d="M59.19,109.09a27.16,27.16,0,0,0-2.31-2c-.75-.59-1.7-1.23-2.67-2.09a10.37,10.37,0,0,1-2.54-3.34,11.3,11.3,0,0,1-.79-7.48A8.89,8.89,0,0,1,51.7,92c.27-.47.44-.72.47-.7a22.92,22.92,0,0,0-.93,2.93,11.54,11.54,0,0,0,.9,7.17c1.2,2.66,3.52,4.12,5,5.37A7,7,0,0,1,59.19,109.09Z"/><path class="cls-59" d="M102.66,28.65c.1.1-10.41,10.48-23.47,23.17S55.44,74.73,55.34,74.63,65.75,64.15,78.82,51.45,102.56,28.55,102.66,28.65Z"/><path class="cls-59" d="M37.66,61c0,.06-.52,0-1.19-.45a4.1,4.1,0,0,1-1.2-5.6c.44-.69.88-.95.92-.9s-.28.41-.59,1.07a4.19,4.19,0,0,0,1.09,5.14C37.25,60.73,37.69,60.91,37.66,61Z"/><path class="cls-59" d="M93.2,8.81c0,.06-.57,0-1.28-.51a4.27,4.27,0,0,1-1.71-2.86,4.24,4.24,0,0,1,.93-3.19c.56-.67,1.08-.88,1.1-.83s-.37.38-.8,1a4.45,4.45,0,0,0-.72,2.91A4.4,4.4,0,0,0,92.15,8C92.74,8.54,93.23,8.73,93.2,8.81Z"/><path class="cls-59" d="M131.06,16.83a22.58,22.58,0,0,0-4.11.94,22.54,22.54,0,0,0-3.63,2.13,6.58,6.58,0,0,1,3.44-2.62A6.69,6.69,0,0,1,131.06,16.83Z"/><path class="cls-59" d="M89.55,123.58a103.24,103.24,0,0,1-7.47-7.35A102.31,102.31,0,0,1,75,108.52c.1-.1,3.44,3.19,7.46,7.35S89.65,123.48,89.55,123.58Z"/><rect class="cls-58" x="162.18" y="363.74" width="42.79" height="60.65"/><path class="cls-10" d="M162.51,423.35h42.14a5.7,5.7,0,0,1,5.7,5.7v.54a0,0,0,0,1,0,0H156.8a0,0,0,0,1,0,0v-.54A5.7,5.7,0,0,1,162.51,423.35Z"/><rect class="cls-58" x="151.92" y="429.59" width="64.99" height="9.88"/><path class="cls-10" d="M204.76,417.73c0,.14-9.49.26-21.18.26s-21.19-.12-21.19-.26,9.48-.26,21.19-.26S204.76,417.58,204.76,417.73Z"/><path class="cls-10" d="M204.76,410.51c0,.15-9.49.26-21.18.26s-21.19-.11-21.19-.26,9.48-.26,21.19-.26S204.76,410.37,204.76,410.51Z"/><path class="cls-10" d="M204.76,403.43c0,.14-9.49.26-21.18.26s-21.19-.12-21.19-.26,9.48-.26,21.19-.26S204.76,403.29,204.76,403.43Z"/><path class="cls-10" d="M204.76,396.22c0,.14-9.49.26-21.18.26s-21.19-.12-21.19-.26,9.48-.26,21.19-.26S204.76,396.07,204.76,396.22Z"/><path class="cls-10" d="M204.76,389.13c0,.15-9.49.26-21.18.26s-21.19-.11-21.19-.26,9.48-.26,21.19-.26S204.76,389,204.76,389.13Z"/><path class="cls-10" d="M204.76,381.92c0,.15-9.49.26-21.18.26s-21.19-.11-21.19-.26,9.48-.26,21.19-.26S204.76,381.78,204.76,381.92Z"/><path class="cls-10" d="M204.76,374.84c0,.14-9.49.26-21.18.26s-21.19-.12-21.19-.26,9.48-.26,21.19-.26S204.76,374.69,204.76,374.84Z"/><path class="cls-10" d="M204.76,367.63c0,.14-9.49.26-21.18.26s-21.19-.12-21.19-.26,9.48-.26,21.19-.26S204.76,367.48,204.76,367.63Z"/><g class="cls-60"><polygon points="162.18 372.19 204.76 371.01 204.76 364.83 161.79 364.83 162.18 372.19"/></g><rect class="cls-58" x="229.2" y="363.74" width="42.79" height="60.65"/><path class="cls-10" d="M229.53,423.35h42.14a5.7,5.7,0,0,1,5.7,5.7v.54a0,0,0,0,1,0,0H223.82a0,0,0,0,1,0,0v-.54A5.7,5.7,0,0,1,229.53,423.35Z"/><rect class="cls-58" x="218.94" y="429.59" width="64.99" height="9.88"/><path class="cls-10" d="M271.78,417.73c0,.14-9.48.26-21.18.26s-21.19-.12-21.19-.26,9.48-.26,21.19-.26S271.78,417.58,271.78,417.73Z"/><path class="cls-10" d="M271.78,410.51c0,.15-9.48.26-21.18.26s-21.19-.11-21.19-.26,9.48-.26,21.19-.26S271.78,410.37,271.78,410.51Z"/><path class="cls-10" d="M271.78,403.43c0,.14-9.48.26-21.18.26s-21.19-.12-21.19-.26,9.48-.26,21.19-.26S271.78,403.29,271.78,403.43Z"/><path class="cls-10" d="M271.78,396.22c0,.14-9.48.26-21.18.26s-21.19-.12-21.19-.26,9.48-.26,21.19-.26S271.78,396.07,271.78,396.22Z"/><path class="cls-10" d="M271.78,389.13c0,.15-9.48.26-21.18.26s-21.19-.11-21.19-.26,9.48-.26,21.19-.26S271.78,389,271.78,389.13Z"/><path class="cls-10" d="M271.78,381.92c0,.15-9.48.26-21.18.26s-21.19-.11-21.19-.26,9.48-.26,21.19-.26S271.78,381.78,271.78,381.92Z"/><path class="cls-10" d="M271.78,374.84c0,.14-9.48.26-21.18.26s-21.19-.12-21.19-.26,9.48-.26,21.19-.26S271.78,374.69,271.78,374.84Z"/><path class="cls-10" d="M271.78,367.63c0,.14-9.48.26-21.18.26s-21.19-.12-21.19-.26,9.48-.26,21.19-.26S271.78,367.48,271.78,367.63Z"/><g class="cls-60"><polygon points="229.2 372.19 271.78 371.01 271.78 364.83 228.82 364.83 229.2 372.19"/></g><path class="cls-11" d="M281.91,188.77h4.32a1.83,1.83,0,0,1,1.83,1.83v17.68a0,0,0,0,1,0,0h-8a0,0,0,0,1,0,0V190.61A1.83,1.83,0,0,1,281.91,188.77Z" transform="translate(22.04 425.36) rotate(-75.83)"/><g class="cls-60"><path d="M281.91,188.77h4.32a1.83,1.83,0,0,1,1.83,1.83v17.68a0,0,0,0,1,0,0h-8a0,0,0,0,1,0,0V190.61A1.83,1.83,0,0,1,281.91,188.77Z" transform="translate(22.04 425.36) rotate(-75.83)"/></g><path class="cls-58" d="M277.56,202.82h5.94a3,3,0,0,1,3,3v16.47a0,0,0,0,1,0,0h-12a0,0,0,0,1,0,0V205.86A3,3,0,0,1,277.56,202.82Z" transform="translate(5.75 432.53) rotate(-75.83)"/><rect class="cls-58" x="278.08" y="202.14" width="20.39" height="7.7" transform="translate(17.99 435.07) rotate(-75.83)"/><path class="cls-58" d="M299.42,275.54s31.95-1.3,29.31-31.92c-2-23.45-36.91-23.66-36.91-23.66l8.92-19.49S341.5,204,349.55,233.7c9.09,33.54-11.93,60.89-50.13,60.25Z"/><rect class="cls-10" x="288.06" y="196.06" width="12.44" height="27.68" transform="translate(52.23 -58.56) rotate(12.46)"/><path class="cls-57" d="M297.89,221.9c0,.23-2.75-.24-6-1a35.59,35.59,0,0,1-5.91-1.64,38,38,0,0,1,6,1.13c1.65.38,3.14.74,4.21,1l1.27.34A1.7,1.7,0,0,1,297.89,221.9Z"/><path class="cls-57" d="M299,217c0,.23-2.75-.24-6.05-1a33.84,33.84,0,0,1-5.9-1.64,38.26,38.26,0,0,1,6,1.13c1.65.38,3.13.74,4.21,1l1.26.34A1.89,1.89,0,0,1,299,217Z"/><path class="cls-57" d="M300.26,212.16c0,.24-2.76-.23-6.05-1a35.59,35.59,0,0,1-5.91-1.64,37.84,37.84,0,0,1,6,1.13c1.65.37,3.14.73,4.21,1l1.27.33Z"/><path class="cls-57" d="M301.12,207.3c0,.23-2.75-.24-6.05-1a34.52,34.52,0,0,1-5.9-1.64,38.26,38.26,0,0,1,6,1.13c1.65.38,3.13.74,4.21,1l1.26.34A1.7,1.7,0,0,1,301.12,207.3Z"/><path class="cls-57" d="M302.37,202.74c0,.24-2.75-.23-6-1a35.59,35.59,0,0,1-5.91-1.64,38,38,0,0,1,6,1.13c1.65.37,3.14.73,4.21,1l1.26.33A3.55,3.55,0,0,1,302.37,202.74Z"/><path class="cls-10" d="M306.4,293.75a13.34,13.34,0,0,1-.65-2.7c-.32-1.68-.7-4-1-6.61s-.45-5-.51-6.67a13.76,13.76,0,0,1,0-2.78,14.56,14.56,0,0,1,.34,2.75c.15,1.7.36,4.05.66,6.64s.61,4.92.83,6.61A16.43,16.43,0,0,1,306.4,293.75Z"/><path class="cls-10" d="M316.33,292.2a93.17,93.17,0,0,1-2.91-9.54A95,95,0,0,1,311,273a96,96,0,0,1,2.91,9.55A97.71,97.71,0,0,1,316.33,292.2Z"/><path class="cls-10" d="M329.68,287.42a18.68,18.68,0,0,1-1.71-2.65c-1.08-1.8-2.41-4-3.89-6.52l-3.92-6.5a20.32,20.32,0,0,1-1.54-2.75,17.48,17.48,0,0,1,1.85,2.55c1.08,1.62,2.52,3.89,4,6.43s2.85,4.89,3.77,6.61A18.81,18.81,0,0,1,329.68,287.42Z"/><path class="cls-10" d="M340.91,278.42c-.1.11-4.07-3-8.88-7s-8.64-7.32-8.55-7.43,4.07,3,8.88,7S341,278.3,340.91,278.42Z"/><path class="cls-10" d="M348.14,266.07c-.06.14-4.76-1.7-10.51-4.09s-10.36-4.44-10.3-4.57,4.76,1.7,10.5,4.09S348.19,265.94,348.14,266.07Z"/><path class="cls-10" d="M351.68,252.75a24.32,24.32,0,0,1-3.37-.32l-8.08-1-8.09-1a20.55,20.55,0,0,1-3.34-.51,20.89,20.89,0,0,1,3.38.14c2.08.16,4.95.44,8.11.83s6,.8,8.07,1.15A20,20,0,0,1,351.68,252.75Z"/><path class="cls-10" d="M350,238.93a17.94,17.94,0,0,1-3,1c-1.89.55-4.53,1.23-7.47,1.85s-5.63,1.06-7.58,1.32a17.33,17.33,0,0,1-3.18.27,23.09,23.09,0,0,1,3.12-.64c1.94-.35,4.6-.84,7.53-1.46s5.57-1.24,7.48-1.7A21.76,21.76,0,0,1,350,238.93Z"/><path class="cls-10" d="M346,225.67c.06.13-4.22,2.42-9.57,5.12s-9.75,4.78-9.81,4.65,4.22-2.42,9.57-5.12S345.94,225.55,346,225.67Z"/><path class="cls-10" d="M337.77,214.92c.09.11-3.47,3.33-8,7.2s-8.2,6.91-8.29,6.8,3.46-3.33,8-7.2S337.68,214.81,337.77,214.92Z"/><path class="cls-10" d="M323.87,206.94c.12.07-2.13,4-5,8.83a97,97,0,0,1-5.48,8.57c-.12-.07,2.13-4,5-8.84A100,100,0,0,1,323.87,206.94Z"/><path class="cls-10" d="M311.42,201.94c.13,0-1.2,4.46-3,9.86s-3.34,9.74-3.47,9.7a99.88,99.88,0,0,1,3-9.87A101.3,101.3,0,0,1,311.42,201.94Z"/><g class="cls-60"><path d="M326.42,259.3a24.63,24.63,0,0,1-11.58,11.88,36.67,36.67,0,0,1-7.85,3.06c6.12,3.26,14.09,1.31,19.44-3.1s8.16-11.41,8.35-18.34a21.73,21.73,0,0,0-1.73-9.6c-1.36-3-3.61-6.12-6.58-7.5a18.45,18.45,0,0,1,1.86,5.25A30.68,30.68,0,0,1,326.42,259.3Z"/></g><path class="cls-10" d="M91.57,313.24a8.6,8.6,0,0,1,1,1.11c.62.73,1.46,1.82,2.46,3.21a70.45,70.45,0,0,1,6.62,11.58,69.49,69.49,0,0,1,4.29,12.63c.39,1.66.65,3,.79,4a9.26,9.26,0,0,1,.17,1.48,7.49,7.49,0,0,1-.37-1.44c-.2-.93-.52-2.27-1-3.91a77.8,77.8,0,0,0-10.86-24.09c-.95-1.41-1.74-2.53-2.31-3.3A7.57,7.57,0,0,1,91.57,313.24Z"/><path class="cls-10" d="M87.32,309.7c.1-.11.57.15,1.06.59s.8.87.71,1-.57-.15-1.06-.59S87.23,309.8,87.32,309.7Z"/><path class="cls-10" d="M88.3,306.76c.12-.07.61.52,1.1,1.34s.78,1.53.66,1.6-.62-.52-1.11-1.34S88.17,306.83,88.3,306.76Z"/><path class="cls-57" d="M106.8,347.84a5.24,5.24,0,0,1,.15-.8q.21-.85.54-2.28c.47-2,1.14-4.84,1.91-8.39,1.54-7.1,3.41-17,4.78-28,.73-5.48,1-10.8,2.28-15.49a23.35,23.35,0,0,1,2.68-6.31,18.86,18.86,0,0,1,11.72-8.23,14.87,14.87,0,0,1,2.32-.35,4.64,4.64,0,0,1,.82,0,6.05,6.05,0,0,1-.81.12,21.6,21.6,0,0,0-2.29.44,19.47,19.47,0,0,0-7.54,3.86,18.55,18.55,0,0,0-3.85,4.4,23.25,23.25,0,0,0-2.59,6.22c-1.24,4.62-1.49,9.93-2.22,15.43-1.38,11-3.31,20.89-4.94,28-.82,3.55-1.55,6.4-2.07,8.36l-.64,2.25A4.44,4.44,0,0,1,106.8,347.84Z"/><path class="cls-10" d="M108,268.54a15,15,0,0,0,12.17,8.4,36.27,36.27,0,0,0,10.91-.46l3.3-.58a6.67,6.67,0,0,1,1.22-.16,5.25,5.25,0,0,1-1.18.36c-.77.19-1.88.46-3.27.74a32.94,32.94,0,0,1-11,.61,16.48,16.48,0,0,1-9.81-4.94,10.79,10.79,0,0,1-1.88-2.81A4.82,4.82,0,0,1,108,268.54Z"/><path class="cls-10" d="M104.19,265.38c.1-.1.58.21,1.06.7s.8,1,.7,1.06-.58-.21-1.07-.69S104.08,265.48,104.19,265.38Z"/><path class="cls-10" d="M105.32,263.64c.13-.08.58.43,1,1.13s.69,1.34.57,1.41-.57-.43-1-1.13S105.2,263.71,105.32,263.64Z"/><path class="cls-10" d="M108.45,263.41c.14,0,.17.61.06,1.32s-.32,1.25-.46,1.23-.17-.61-.06-1.32S108.31,263.39,108.45,263.41Z"/><path class="cls-57" d="M117.87,302.46a10.35,10.35,0,0,1-.08,1.78c-.09,1.15-.26,2.8-.5,4.83-.47,4.08-1.31,9.68-2.55,15.81s-2.69,11.62-3.85,15.56c-.57,2-1.07,3.55-1.43,4.63a12.65,12.65,0,0,1-.62,1.67,11.43,11.43,0,0,1,.42-1.73c.33-1.18.76-2.76,1.28-4.67,1.06-3.95,2.43-9.44,3.69-15.56s2.13-11.7,2.7-15.75c.27-2,.49-3.59.65-4.81A14.78,14.78,0,0,1,117.87,302.46Z"/><path class="cls-57" d="M135.6,279.31c0,.1-1.43.11-3.64.69a18.05,18.05,0,0,0-12.54,11.58c-.76,2.15-.88,3.59-1,3.57a2.79,2.79,0,0,1,0-1,15,15,0,0,1,.58-2.68,17.37,17.37,0,0,1,12.8-11.82,15.36,15.36,0,0,1,2.72-.37A3.48,3.48,0,0,1,135.6,279.31Z"/><path class="cls-57" d="M111.54,347.63a4.23,4.23,0,0,1,0-.75c0-.49.13-1.22.26-2.15a20,20,0,0,1,2.37-7.57c.84-1.47,2-2.91,2.94-4.61a9.67,9.67,0,0,0,1-2.78,11.45,11.45,0,0,0,.08-3.16c-.16-2.17-.79-4.51-.31-7a8.43,8.43,0,0,1,1.61-3.39c.73-1,1.57-2,2.24-3a6.37,6.37,0,0,0,1.13-3.41,15.35,15.35,0,0,0-.48-3.57,21.11,21.11,0,0,1-.58-7,19.9,19.9,0,0,1,10.54-15.89,17.52,17.52,0,0,1,2-.88,4.26,4.26,0,0,1,.72-.23,3.85,3.85,0,0,1-.68.32c-.45.21-1.11.51-1.92,1a20.62,20.62,0,0,0-6,5.08,19.78,19.78,0,0,0-4.2,10.67,20.85,20.85,0,0,0,.6,6.82,14.8,14.8,0,0,1,.49,3.69,6.78,6.78,0,0,1-1.2,3.68c-.7,1.11-1.55,2.05-2.26,3.05a8,8,0,0,0-1.53,3.19c-.46,2.31.13,4.62.29,6.84a12,12,0,0,1-.11,3.29,10.21,10.21,0,0,1-1.11,2.9c-1,1.74-2.16,3.16-3,4.59a20.78,20.78,0,0,0-2.48,7.42c-.15.88-.26,1.59-.35,2.12A3.54,3.54,0,0,1,111.54,347.63Z"/><path class="cls-3" d="M136.78,289.67a10,10,0,0,0-2.46.35,9.77,9.77,0,0,0-5.17,4.13c-1.6,2.39-2.31,5.82-2.69,9.6a121.14,121.14,0,0,1-1.83,12.32,200.58,200.58,0,0,1-6,21.82c-.9,2.75-1.66,5-2.19,6.49-.25.72-.46,1.3-.62,1.75a2.49,2.49,0,0,1-.26.6,4.25,4.25,0,0,1,.16-.63c.13-.46.31-1.05.53-1.78l2-6.54c1.69-5.53,4-13.18,5.8-21.82.88-4.31,1.46-8.46,1.86-12.27s1.17-7.3,2.87-9.74a9.74,9.74,0,0,1,5.42-4.12,6.25,6.25,0,0,1,1.86-.23A4.13,4.13,0,0,1,136.78,289.67Z"/><path class="cls-58" d="M100,344.05H119.4s-11.75,93.29-76.61,93l.83-18.19S87.75,416.1,100,344.05Z"/><path class="cls-11" d="M24.44,407.66h4.32a1.83,1.83,0,0,1,1.83,1.83v17.68a0,0,0,0,1,0,0h-8a0,0,0,0,1,0,0V409.49A1.83,1.83,0,0,1,24.44,407.66Z" transform="translate(-391.22 436.67) rotate(-88.99)"/><g class="cls-60"><path d="M24.44,407.66h4.32a1.83,1.83,0,0,1,1.83,1.83v17.68a0,0,0,0,1,0,0h-8a0,0,0,0,1,0,0V409.49A1.83,1.83,0,0,1,24.44,407.66Z" transform="translate(-391.22 436.67) rotate(-88.99)"/></g><path class="cls-58" d="M23.37,422.14h5.94a3,3,0,0,1,3,3v16.47a0,0,0,0,1,0,0h-12a0,0,0,0,1,0,0V425.18A3,3,0,0,1,23.37,422.14Z" transform="matrix(0.02, -1, 1, 0.02, -405.95, 450.65)"/><rect class="cls-58" x="22.19" y="419.87" width="20.39" height="7.7" transform="translate(-391.83 448.66) rotate(-88.99)"/><rect class="cls-10" x="32.91" y="412.32" width="12.44" height="27.68" transform="translate(-5.2 0.51) rotate(-0.7)"/><path class="cls-57" d="M45.38,437c0,.23-2.74.4-6.11.42a34.37,34.37,0,0,1-6.13-.26,38.67,38.67,0,0,1,6.12-.27c1.69,0,3.22,0,4.33,0l1.31,0A2.44,2.44,0,0,1,45.38,437Z"/><path class="cls-57" d="M45.32,432c0,.23-2.74.39-6.11.41a35,35,0,0,1-6.13-.25,38.67,38.67,0,0,1,6.12-.27c1.69,0,3.22,0,4.33,0l1.31,0A1.75,1.75,0,0,1,45.32,432Z"/><path class="cls-57" d="M45.46,427c0,.23-2.73.39-6.11.41a34.83,34.83,0,0,1-6.12-.25,38.67,38.67,0,0,1,6.12-.27c1.69,0,3.22,0,4.32,0L45,427A2,2,0,0,1,45.46,427Z"/><path class="cls-57" d="M45.2,422.07c0,.23-2.74.4-6.12.42a34.29,34.29,0,0,1-6.12-.26,38.67,38.67,0,0,1,6.12-.27c1.69,0,3.22,0,4.33,0l1.31,0A2.57,2.57,0,0,1,45.2,422.07Z"/><path class="cls-57" d="M45.38,417.35c0,.23-2.74.4-6.11.42a36.2,36.2,0,0,1-6.13-.25,36,36,0,0,1,6.12-.27c1.69,0,3.22,0,4.33,0l1.31,0A2.44,2.44,0,0,1,45.38,417.35Z"/><path class="cls-10" d="M52.18,436.1s0,.16.06.5l0,.58-.18-.56a84,84,0,0,1-1.9-9.16c-.43-2.69-.73-5.13-.89-6.91a14.66,14.66,0,0,1-.13-2.89,18.89,18.89,0,0,1,.5,2.85c.25,1.76.6,4.19,1,6.87.69,4.34,1.39,8,1.55,9.2l-.16,0C52.12,436.26,52.15,436.1,52.18,436.1Z"/><path class="cls-10" d="M61.38,434.33a92.86,92.86,0,0,1-3.22-9.42,92.86,92.86,0,0,1-2.73-9.57,95.91,95.91,0,0,1,3.22,9.42A92.86,92.86,0,0,1,61.38,434.33Z"/><path class="cls-10" d="M72.24,429.74c-.12.07-2.26-4-4.77-9.06s-4.43-9.24-4.3-9.3a99.8,99.8,0,0,1,4.77,9.07A99.39,99.39,0,0,1,72.24,429.74Z"/><path class="cls-10" d="M81.88,422.54a91.87,91.87,0,0,1-6.18-7.91,98.59,98.59,0,0,1-5.77-8.23,95.09,95.09,0,0,1,6.18,7.92C79.41,418.78,82,422.46,81.88,422.54Z"/><path class="cls-10" d="M90.28,414.56a97,97,0,0,1-7.19-6.85,96.19,96.19,0,0,1-6.82-7.22,94.54,94.54,0,0,1,7.19,6.85A93.74,93.74,0,0,1,90.28,414.56Z"/><path class="cls-10" d="M97.21,405a15.28,15.28,0,0,1-2.5-1.34l-5.92-3.46-5.92-3.45a15.68,15.68,0,0,1-2.4-1.53,15.05,15.05,0,0,1,2.58,1.21c1.56.81,3.69,2,6,3.32s4.37,2.64,5.84,3.6A14.57,14.57,0,0,1,97.21,405Z"/><path class="cls-10" d="M101.91,395.28a13.82,13.82,0,0,1-2.43-1.09c-1.47-.72-3.51-1.71-5.77-2.76s-4.34-1.95-5.85-2.61a15.61,15.61,0,0,1-2.4-1.14,11.93,11.93,0,0,1,2.54.8c1.54.57,3.65,1.43,5.93,2.48s4.29,2.1,5.72,2.9A13.26,13.26,0,0,1,101.91,395.28Z"/><path class="cls-10" d="M107.51,385.9a14,14,0,0,1-2.78-.46c-1.69-.37-4-.94-6.57-1.68s-4.81-1.51-6.44-2.11a14.17,14.17,0,0,1-2.59-1.09,16.24,16.24,0,0,1,2.71.74c1.65.51,3.93,1.22,6.47,2s4.84,1.36,6.51,1.82A16.1,16.1,0,0,1,107.51,385.9Z"/><path class="cls-10" d="M110.5,376.44a84.06,84.06,0,0,1-9.25-.92,84.45,84.45,0,0,1-9.18-1.43,84.06,84.06,0,0,1,9.25.92A79,79,0,0,1,110.5,376.44Z"/><path class="cls-10" d="M113.68,367.19a12.64,12.64,0,0,1-2.69-.08c-1.66-.12-3.95-.32-6.47-.57s-4.81-.51-6.45-.73a13.79,13.79,0,0,1-2.66-.45,14.26,14.26,0,0,1,2.7.09c1.66.12,3.94.32,6.46.57s4.8.51,6.45.72A15.07,15.07,0,0,1,113.68,367.19Z"/><path class="cls-10" d="M116.13,358.23a92.12,92.12,0,0,1-9.64.56,86.39,86.39,0,0,1-9.65,0,92.12,92.12,0,0,1,9.64-.56A89.44,89.44,0,0,1,116.13,358.23Z"/><path class="cls-10" d="M117.14,350.91a13.17,13.17,0,0,1-2.64.41c-1.64.17-3.91.31-6.43.32s-4.79-.11-6.43-.26A13,13,0,0,1,99,351a15.19,15.19,0,0,1,2.67,0c1.64.06,3.9.13,6.4.11s4.76-.1,6.4-.17A15,15,0,0,1,117.14,350.91Z"/><path class="cls-59" d="M100.87,346.82a.72.72,0,0,1,0,.25v.74c0,.65,0,1.61-.06,2.84A74,74,0,0,1,99.6,361a78.32,78.32,0,0,1-4.35,14.89,79.8,79.8,0,0,1-9.13,16.65,79.93,79.93,0,0,1-12.91,13.93,78.86,78.86,0,0,1-12.76,8.83A73.72,73.72,0,0,1,51,419.79c-1.14.46-2.06.74-2.67,1l-.71.23a.72.72,0,0,1-.24.06.7.7,0,0,1,.23-.11l.68-.28c.6-.25,1.51-.56,2.64-1A82.14,82.14,0,0,0,60.27,415a79.89,79.89,0,0,0,39-54,81.57,81.57,0,0,0,1.39-10.33c.11-1.22.11-2.18.16-2.83,0-.3,0-.54,0-.74A.87.87,0,0,1,100.87,346.82Z"/><path class="cls-11" d="M190.66,238.1s-10.73-14.51-35.53-12.36c0,0,25.25-19.4,10.39-39.33,0,0,31.89,9.42,32.25-30.44,0,0,5.8,37,35.88,26.46,0,0,2.14,29.36,23,23.93-10.07,9.92-19.87,18.65-17.88,31.31"/><g class="cls-61"><path class="cls-59" d="M190.66,238.1s-10.73-14.51-35.53-12.36c0,0,25.25-19.4,10.39-39.33,0,0,31.89,9.42,32.25-30.44,0,0,5.8,37,35.88,26.46,0,0,2.14,29.36,23,23.93-10.07,9.92-19.87,18.65-17.88,31.31"/></g><path class="cls-11" d="M190.66,238.1s-.25-16.92-20.18-15.19c0,0,18.53-10.69,6.6-26.7,0,0,25.62,7.57,25.91-24.45,0,0,4.65,29.69,28.81,21.25,0,0-2.88,21.54,13.85,17.17-8.1,8-11.38,17-9.77,27.2"/><g class="cls-62"><path class="cls-59" d="M190.66,238.1s-.25-16.92-20.18-15.19c0,0,18.53-10.69,6.6-26.7,0,0,25.62,7.57,25.91-24.45,0,0,4.65,29.69,28.81,21.25,0,0-2.88,21.54,13.85,17.17-8.1,8-11.38,17-9.77,27.2"/></g><path class="cls-11" d="M223.39,125.88a5.13,5.13,0,0,1-.24.63c-.21.45-.47,1-.79,1.76s-.77,1.69-1.22,2.8-1,2.33-1.51,3.74-1.13,2.93-1.68,4.6-1.12,3.46-1.7,5.35c-1.09,3.8-2.13,8-3,12.52S212,166.1,211.69,170c-.11,2-.24,3.85-.26,5.61s-.05,3.4,0,4.89.08,2.85.12,4,.1,2.21.17,3l.12,1.92a3,3,0,0,1,0,.68,3.7,3.7,0,0,1-.11-.67c-.05-.49-.13-1.13-.21-1.92s-.2-1.85-.26-3-.18-2.55-.19-4-.08-3.14,0-4.91.11-3.65.22-5.63a113.18,113.18,0,0,1,4.57-25.39c.59-1.89,1.14-3.7,1.75-5.35s1.18-3.2,1.74-4.59,1.12-2.64,1.6-3.73.92-2,1.3-2.77l.87-1.72A3,3,0,0,1,223.39,125.88Z"/><path class="cls-11" d="M151.81,119a33.43,33.43,0,0,0-6-4.49,33.26,33.26,0,0,0-7.06-2.52,6.79,6.79,0,0,1,2.23.22,18.73,18.73,0,0,1,9.42,5A6.55,6.55,0,0,1,151.81,119Z"/><path class="cls-11" d="M159.49,162.54a2.34,2.34,0,0,1,.42.4l1.11,1.19c1,1,2.31,2.59,3.91,4.56s3.43,4.37,5.36,7.11,3.92,5.86,5.86,9.2,3.62,6.64,5.06,9.67,2.6,5.82,3.5,8.19,1.59,4.31,2,5.66q.3.94.48,1.56a2.08,2.08,0,0,1,.14.56,2.26,2.26,0,0,1-.23-.53c-.16-.4-.35-.9-.58-1.52-.47-1.33-1.2-3.25-2.15-5.59s-2.16-5.1-3.59-8.12-3.15-6.27-5.08-9.62-3.92-6.42-5.81-9.18-3.68-5.18-5.25-7.16-2.85-3.58-3.77-4.66l-1-1.25A2.44,2.44,0,0,1,159.49,162.54Z"/><path class="cls-11" d="M228.25,167.65a2.26,2.26,0,0,1-.21.46l-.67,1.25c-.31.54-.67,1.2-1.06,2S225.44,173,225,174c-1,2-2,4.42-3,7.16a76.79,76.79,0,0,0-4.16,18.47c-.27,2.9-.39,5.53-.38,7.74,0,1.1,0,2.1.05,3s.06,1.63.1,2.25.05,1,.07,1.42a1.73,1.73,0,0,1,0,.5,2.25,2.25,0,0,1-.09-.49c0-.38-.1-.85-.17-1.42s-.15-1.37-.19-2.25-.13-1.88-.13-3a71,71,0,0,1,.28-7.79A72.75,72.75,0,0,1,221.57,181a70.42,70.42,0,0,1,3.09-7.16c.47-1,1-1.87,1.39-2.65s.81-1.43,1.14-2,.56-.88.76-1.21S228.23,167.64,228.25,167.65Z"/><path class="cls-11" d="M247.89,171.53c.05.06-.83.71-2.17,1.87a37,37,0,0,0-8.51,10.7,26.43,26.43,0,0,1-1.35,2.53,11.4,11.4,0,0,1,1-2.7,30.44,30.44,0,0,1,3.68-5.9,30.11,30.11,0,0,1,4.93-4.91A11.07,11.07,0,0,1,247.89,171.53Z"/><path class="cls-11" d="M164.39,197a11,11,0,0,1,2.44,1.52,34.6,34.6,0,0,1,5.16,4.68,33.84,33.84,0,0,1,4.12,5.61,11.66,11.66,0,0,1,1.27,2.59,25.07,25.07,0,0,1-1.58-2.4,44,44,0,0,0-9.19-10.19A25.79,25.79,0,0,1,164.39,197Z"/><path class="cls-11" d="M159.32,187.73c-.08.14-2.12-1-4.88-1.7s-5.09-.71-5.09-.87a14.5,14.5,0,0,1,10,2.57Z"/><path class="cls-63" d="M138.75,156.43a6.82,6.82,0,0,1,.65-1.66l-.9-1.38,1.9-2,1.41.85a7.26,7.26,0,0,1,1.64-.71l.33-1.61,2.74-.05.39,1.61a6.75,6.75,0,0,1,1.65.65l1.39-.9,2,1.9-.86,1.41a6.31,6.31,0,0,1,.71,1.64l1.62.33,0,2.74-1.6.39a6.78,6.78,0,0,1-.66,1.65l.91,1.39-1.9,2-1.42-.86a6.25,6.25,0,0,1-1.63.71l-.34,1.62-2.73,0-.39-1.6a6.85,6.85,0,0,1-1.66-.66l-1.38.9-2-1.9.85-1.41a6.58,6.58,0,0,1-.7-1.63l-1.62-.34-.05-2.73,1.61-.39Zm3.6,1.55a2.93,2.93,0,1,0,2.88-3A2.93,2.93,0,0,0,142.35,158Z"/><path class="cls-64" d="M253.31,230.32a4.77,4.77,0,0,1,.48-1.22l-.67-1,1.41-1.45,1,.63a5,5,0,0,1,1.2-.52l.25-1.19,2,0,.29,1.19a4.77,4.77,0,0,1,1.22.48l1-.67,1.45,1.41-.63,1a5.13,5.13,0,0,1,.52,1.2l1.19.25,0,2-1.18.29a5.17,5.17,0,0,1-.48,1.22l.66,1-1.4,1.45-1-.63a5,5,0,0,1-1.21.52l-.25,1.19-2,0-.29-1.18a5.17,5.17,0,0,1-1.22-.48l-1,.66-1.45-1.4.63-1a5,5,0,0,1-.52-1.21l-1.19-.25,0-2,1.19-.29Zm2.65,1.14a2.17,2.17,0,1,0,2.13-2.2A2.17,2.17,0,0,0,256,231.46Z"/><rect class="cls-3" x="227.92" y="147.22" width="10.43" height="4.72" transform="translate(-2.02 295.98) rotate(-64.59)"/><path class="cls-10" d="M228.77,153.28a10.74,10.74,0,0,1,1.23.49c.76.32,1.82.78,3.11,1.36l-.25.09c1.12-2.45,2.67-5.79,4.41-9.45-.11-.31.15.43.12.35h-.07l-.07,0-.14-.06-.27-.14-.56-.26-1.08-.52-2.06-1,.33-.11c-1.3,2.68-2.45,5-3.29,6.64l-1,1.95a4.56,4.56,0,0,1-.41.72,2.67,2.67,0,0,1,.25-.68c.24-.54.52-1.19.86-1.95.75-1.69,1.83-4.1,3.14-6.89l.11-.23.22.11,2.07,1,1.09.51.55.26.28.14.14.06.07,0h.07c0-.08.23.66.12.35-1.74,3.66-3.34,7-4.54,9.39l-.08.17-.17-.09c-1.34-.66-2.41-1.21-3.13-1.59A7.85,7.85,0,0,1,228.77,153.28Z"/><path class="cls-3" d="M237.09,140.87a4.34,4.34,0,0,0-5.79,2.06l7.86,3.74A4.36,4.36,0,0,0,237.09,140.87Z"/><path class="cls-10" d="M237.09,140.87s.18,0,.48.18a4.09,4.09,0,0,1,1.13.9,4.28,4.28,0,0,1,1,2,4.45,4.45,0,0,1-.32,2.83l-.09.22-.23-.1L235.11,145l-3.92-1.89-.22-.1.11-.22a4.54,4.54,0,0,1,2-2,4.4,4.4,0,0,1,2.17-.48,3.86,3.86,0,0,1,1.4.3c.31.14.45.24.44.26a8.49,8.49,0,0,0-1.85-.27,4.22,4.22,0,0,0-2,.55,4.16,4.16,0,0,0-1.76,1.89l-.11-.32,3.94,1.85,3.92,1.88-.32.12a4.27,4.27,0,0,0,.36-2.56,4.35,4.35,0,0,0-.83-1.88A8,8,0,0,0,237.09,140.87Z"/><path class="cls-3" d="M237.19,143.36a2.74,2.74,0,0,0-.86-2.8"/><path class="cls-10" d="M236.33,140.56c.06-.13.8.27,1.08,1.2s-.09,1.66-.22,1.6,0-.71-.27-1.45S236.24,140.68,236.33,140.56Z"/><path class="cls-10" d="M232.39,145.19a9,9,0,0,1,2.28.94,9.41,9.41,0,0,1,2.23,1.09,4.68,4.68,0,0,1-2.44-.62C233.18,146,232.31,145.3,232.39,145.19Z"/><path class="cls-10" d="M231.86,146.29a9.71,9.71,0,0,1,2.29,1,9.17,9.17,0,0,1,2.22,1.08,4.52,4.52,0,0,1-2.44-.61C232.66,147.14,231.78,146.41,231.86,146.29Z"/><path class="cls-10" d="M231.33,147.4a8.82,8.82,0,0,1,2.29.94,9.41,9.41,0,0,1,2.23,1.09,7.15,7.15,0,0,1-4.52-2Z"/><path class="cls-10" d="M230.81,148.5a9.71,9.71,0,0,1,2.29.95,9.41,9.41,0,0,1,2.22,1.08,4.52,4.52,0,0,1-2.44-.61C231.61,149.35,230.73,148.62,230.81,148.5Z"/><path class="cls-10" d="M230.28,149.61a9.26,9.26,0,0,1,2.29.94,9.4,9.4,0,0,1,2.22,1.09,7.15,7.15,0,0,1-4.51-2Z"/><path class="cls-10" d="M229.76,150.72a9,9,0,0,1,2.29.94,9.21,9.21,0,0,1,2.22,1.09,7.23,7.23,0,0,1-4.51-2Z"/><path class="cls-10" d="M229.23,151.82a9.71,9.71,0,0,1,2.29,1,9.17,9.17,0,0,1,2.22,1.08,4.48,4.48,0,0,1-2.43-.61C230,152.67,229.15,151.94,229.23,151.82Z"/><rect class="cls-3" x="125.58" y="227.02" width="10.43" height="4.72" transform="translate(-83.07 74.52) rotate(-24.4)"/><path class="cls-10" d="M136.51,229.37a11.2,11.2,0,0,1-.62-1.17c-.37-.73-.89-1.77-1.5-3l.25.09c-2.44,1.15-5.78,2.7-9.46,4.37-.12.31.15-.42.12-.34h0v0l0,0,0,.07.06.14.13.28.25.56.49,1.09c.33.72.64,1.42.94,2.09l-.33-.12c2.73-1.22,5.09-2.23,6.8-3l2-.84a5,5,0,0,1,.78-.29,3,3,0,0,1-.63.36l-1.91.94c-1.66.8-4.05,2-6.85,3.24l-.23.1-.1-.23c-.31-.66-.62-1.36-1-2.07-.17-.36-.33-.73-.5-1.1l-.25-.55-.13-.29-.07-.14,0-.07v-.05h0l.13-.34c3.69-1.68,7-3.17,9.53-4.24l.17-.08.08.17c.59,1.38,1,2.49,1.35,3.24A7,7,0,0,1,136.51,229.37Z"/><path class="cls-3" d="M122.15,233.48a4.35,4.35,0,0,0,5.76,2.17l-3.6-7.93A4.34,4.34,0,0,0,122.15,233.48Z"/><path class="cls-10" d="M122.15,233.48s-.12-.14-.26-.44a4.09,4.09,0,0,1-.27-1.42,4.34,4.34,0,0,1,.52-2.16,4.54,4.54,0,0,1,2.07-2l.22-.1.1.22c.57,1.23,1.18,2.56,1.82,4s1.22,2.73,1.78,4l.1.22-.22.1a4.52,4.52,0,0,1-2.84.26,4.37,4.37,0,0,1-2-1,4,4,0,0,1-.87-1.13c-.15-.31-.2-.48-.17-.49a7.9,7.9,0,0,0,1.23,1.4,4.26,4.26,0,0,0,4.43.55l-.12.32-1.82-4-1.78-4,.32.12a4.17,4.17,0,0,0-1.92,1.72,4.22,4.22,0,0,0-.58,2A7.18,7.18,0,0,0,122.15,233.48Z"/><path class="cls-3" d="M123.68,231.52a2.74,2.74,0,0,0-1.15,2.69"/><path class="cls-10" d="M122.53,234.21c-.13.06-.44-.73-.06-1.61s1.15-1.21,1.21-1.08-.43.56-.73,1.28S122.67,234.18,122.53,234.21Z"/><path class="cls-10" d="M128.53,233.22c-.15.05-.56-1-1.14-2.19a9.38,9.38,0,0,1-1-2.27,4.65,4.65,0,0,1,1.47,2A4.75,4.75,0,0,1,128.53,233.22Z"/><path class="cls-10" d="M129.64,232.72a9.58,9.58,0,0,1-1.14-2.2,8.85,8.85,0,0,1-1-2.26c.11-.09.86.77,1.46,2A4.5,4.5,0,0,1,129.64,232.72Z"/><path class="cls-10" d="M130.76,232.21a8.79,8.79,0,0,1-1.14-2.19,9.38,9.38,0,0,1-1-2.27,4.65,4.65,0,0,1,1.47,2A4.75,4.75,0,0,1,130.76,232.21Z"/><path class="cls-10" d="M131.87,231.71a9.85,9.85,0,0,1-1.14-2.2,8.68,8.68,0,0,1-1-2.27,4.67,4.67,0,0,1,1.46,2A4.53,4.53,0,0,1,131.87,231.71Z"/><path class="cls-10" d="M133,231.2a8.75,8.75,0,0,1-1.14-2.2,9.4,9.4,0,0,1-1-2.26,4.65,4.65,0,0,1,1.47,2A4.73,4.73,0,0,1,133,231.2Z"/><path class="cls-10" d="M134.1,230.69A9.37,9.37,0,0,1,133,228.5a9.11,9.11,0,0,1-1-2.27,4.67,4.67,0,0,1,1.46,2A4.52,4.52,0,0,1,134.1,230.69Z"/><path class="cls-10" d="M135.22,230.19a9.14,9.14,0,0,1-1.14-2.2,9.59,9.59,0,0,1-1-2.26c.11-.09.87.77,1.47,2A4.73,4.73,0,0,1,135.22,230.19Z"/><path class="cls-58" d="M155.26,107.5s12.11,12,15.13,19.43c2.87,7.11,4.77,13.73,4.77,13.73s3.12-5.46,6.63,0,20.1,71.77,22.83,96.73h10.57s-4.93-41.73-7.27-46.41-4.29-6.24-4.29-6.24-2.73-17.56-4.68-20.29a13.16,13.16,0,0,0-4.29-3.9s-3.51-19.11-8.58-23-9-1.95-9-1.95S173.88,115.15,155.26,107.5Z"/><path class="cls-57" d="M254.41,196.08a55.81,55.81,0,0,0-7,2.38,57.12,57.12,0,0,0-6.41,3.72,6.81,6.81,0,0,1,1.62-1.48,24.09,24.09,0,0,1,9.62-4.37A7.24,7.24,0,0,1,254.41,196.08Z"/><path class="cls-57" d="M254,194a71.6,71.6,0,0,0-7.06,3.13,75.34,75.34,0,0,0-6.39,4.32,7.79,7.79,0,0,1,1.6-1.63,28,28,0,0,1,4.54-3.14,26.89,26.89,0,0,1,5.07-2.18A7.81,7.81,0,0,1,254,194Z"/><path class="cls-57" d="M252,199.09c0,.16-2.2.19-4.79.94s-4.49,1.85-4.57,1.72a13.27,13.27,0,0,1,9.36-2.66Z"/><path class="cls-10" d="M228.62,237.29c-1.77-14,2.83-30.42,14-38.28l2.66,2.17s-13.91,8.28-12.89,36.21"/><path class="cls-57" d="M171.15,217.12a33.58,33.58,0,0,0-5.37,2.39,34.87,34.87,0,0,0-4.56,3.71,13.8,13.8,0,0,1,9.93-6.1Z"/><path class="cls-57" d="M170.87,215.88a51.19,51.19,0,0,1-5.44,2.1,51.75,51.75,0,0,1-5.5,2,24.23,24.23,0,0,1,5.32-2.46A23.63,23.63,0,0,1,170.87,215.88Z"/><path class="cls-10" d="M201.68,240.74l-4.84-1.26a11,11,0,0,0-1.3-8.48,10.79,10.79,0,0,0-2.35-2.65,9.21,9.21,0,0,1-5.31,7.13,7.86,7.86,0,0,1-6.65-.42,6.9,6.9,0,0,1-3.63-4.72,7.86,7.86,0,0,1,3.87-8,9.8,9.8,0,0,1,3.66-1.24c-.11-.1-.24-.2-.36-.29a13.38,13.38,0,0,0-15.08-.41l-2.82-4.13a18.33,18.33,0,0,1,20.94.56,14.92,14.92,0,0,1,4.35,5.22,15.83,15.83,0,0,1,9.52,18.72ZM186.78,226a5.35,5.35,0,0,0-2.76.67,2.91,2.91,0,0,0-1.52,2.75,2.08,2.08,0,0,0,1.09,1.29,2.93,2.93,0,0,0,2.37.2,4.5,4.5,0,0,0,2.32-4.58l0-.2A8.44,8.44,0,0,0,186.78,226Z"/><path class="cls-11" d="M161.08,147.88a8.31,8.31,0,0,1,1.34.71c.85.48,2.05,1.24,3.48,2.23a59.31,59.31,0,0,1,4.84,3.78,61.55,61.55,0,0,1,10.08,11.14,58.32,58.32,0,0,1,3.27,5.19c.85,1.53,1.49,2.79,1.88,3.69a8.79,8.79,0,0,1,.57,1.4,8,8,0,0,1-.75-1.31c-.45-.87-1.13-2.1-2-3.59s-2-3.24-3.34-5.11a67.21,67.21,0,0,0-10-11c-1.73-1.51-3.34-2.81-4.74-3.84s-2.56-1.83-3.38-2.36A8.61,8.61,0,0,1,161.08,147.88Z"/><path class="cls-10" d="M144.16,259.3H145a0,0,0,0,1,0,0v50.51a0,0,0,0,1,0,0h-.85a9,9,0,0,1-9-9V268.26A9,9,0,0,1,144.16,259.3Z"/><path class="cls-10" d="M289.61,259.3h.94a8.88,8.88,0,0,1,8.88,8.88v32.76a8.88,8.88,0,0,1-8.88,8.88h-.94a0,0,0,0,1,0,0V259.3A0,0,0,0,1,289.61,259.3Z"/><rect class="cls-58" x="142.43" y="249.44" width="149.39" height="109.99" rx="14.12"/><path class="cls-59" d="M236.13,261.13a34.22,34.22,0,0,0-34.23,34.23h68.47A34.23,34.23,0,0,0,236.13,261.13Z"/><path class="cls-3" d="M263.71,293.7c1.44,0,2.74,0,3.68,0a6.73,6.73,0,0,1,1.53.1,7.91,7.91,0,0,1-1.53.11c-.94,0-2.24,0-3.68,0l-3.68,0-1.12,0a1.75,1.75,0,0,1-.41,0,1.26,1.26,0,0,1,.41,0l1.12-.05Z"/><path class="cls-3" d="M261.32,283.35c2.6-1.24,4.76-2.11,4.83-2s-2,1.24-4.62,2.41a34.84,34.84,0,0,1-4.83,2A34.26,34.26,0,0,1,261.32,283.35Z"/><path class="cls-3" d="M254.9,274.89c1.9-2.16,3.54-3.82,3.67-3.71s-1.35,1.93-3.29,4.05a33.89,33.89,0,0,1-3.67,3.7A34.86,34.86,0,0,1,254.9,274.89Z"/><path class="cls-3" d="M245.74,269.48c1-2.71,1.89-4.85,2-4.79s-.54,2.28-1.58,5a34.94,34.94,0,0,1-2.05,4.79A34.19,34.19,0,0,1,245.74,269.48Z"/><path class="cls-3" d="M235.25,267.7c0-2.88.08-5.21.25-5.21s.28,2.33.25,5.21a33.18,33.18,0,0,1-.25,5.21A33.18,33.18,0,0,1,235.25,267.7Z"/><path class="cls-3" d="M224.78,269.66c-1-2.69-1.73-4.91-1.57-5s1.08,2.08,2,4.79a33.77,33.77,0,0,1,1.58,5A35.67,35.67,0,0,1,224.78,269.66Z"/><path class="cls-3" d="M215.72,275.23c-1.95-2.12-3.42-3.93-3.29-4.05s1.77,1.55,3.67,3.71a34.86,34.86,0,0,1,3.29,4A32.88,32.88,0,0,1,215.72,275.23Z"/><path class="cls-3" d="M209.46,283.82c-2.62-1.18-4.69-2.26-4.62-2.42s2.24.72,4.84,2a35.13,35.13,0,0,1,4.62,2.41A35.29,35.29,0,0,1,209.46,283.82Z"/><path class="cls-3" d="M207.29,294c-1.44,0-2.74,0-3.69,0a7.86,7.86,0,0,1-1.52-.11,6.67,6.67,0,0,1,1.52-.1c1,0,2.25,0,3.69,0l3.68.06,1.11.05a1.2,1.2,0,0,1,.41,0,1.65,1.65,0,0,1-.41,0l-1.11,0Z"/><path class="cls-59" d="M179.05,267.12a4.55,4.55,0,1,1-4.55-4.54A4.55,4.55,0,0,1,179.05,267.12Z"/><path class="cls-57" d="M179.05,280.82a4.55,4.55,0,1,1-4.55-4.54A4.55,4.55,0,0,1,179.05,280.82Z"/><path class="cls-10" d="M265.17,349.94s0-.29,0-.85,0-1.39,0-2.45c0-2.17,0-5.32-.05-9.38,0-8.13-.06-19.85-.1-34.3l.19.19-93.17.07h0l.26-.26c0,16.57,0,32.46,0,47l-.24-.24,66.91.11,19.31.07,5.16,0,1.34,0h.46l-.43,0h-1.31l-5.11,0-19.25.07-67.08.12h-.25v-.25c0-14.52,0-30.41,0-47v-.26H172l93.17.07h.19V303c0,14.5-.07,26.26-.1,34.41,0,4,0,7.19-.05,9.34,0,1.05,0,1.86,0,2.42S265.17,349.94,265.17,349.94Z"/><path class="cls-10" d="M157.84,359.21H276.4a0,0,0,0,1,0,0v.59a6.23,6.23,0,0,1-6.23,6.23H164.07a6.23,6.23,0,0,1-6.23-6.23v-.59A0,0,0,0,1,157.84,359.21Z"/><g class="cls-60"><path d="M255.2,309.55a2.83,2.83,0,0,0,1.94,3,3.11,3.11,0,0,0,3.39-1.24,3.49,3.49,0,0,0,.05-3.67,3.48,3.48,0,0,1-.78,2.35,2.57,2.57,0,0,1-2.26.88,2,2,0,0,1-1.69-1.64"/></g><path class="cls-3" d="M260.55,308.44a2.77,2.77,0,1,1-2.76-2.76A2.76,2.76,0,0,1,260.55,308.44Z"/><path class="cls-10" d="M260.55,308.44a3.69,3.69,0,0,1-.18-.65,2.78,2.78,0,0,0-1-1.4,2.61,2.61,0,0,0-2.42-.32,2.53,2.53,0,0,0,0,4.74,2.61,2.61,0,0,0,2.42-.32,2.78,2.78,0,0,0,1-1.4,4.08,4.08,0,0,1,.18-.65s.09.25,0,.7a2.7,2.7,0,0,1-1,1.64,2.92,2.92,0,0,1-2.81.48,3,3,0,0,1,0-5.64,2.92,2.92,0,0,1,2.81.48,2.7,2.7,0,0,1,1,1.64C260.64,308.19,260.58,308.44,260.55,308.44Z"/><path class="cls-10" d="M259.06,307.26c.05.14-.6.48-1.21,1.12s-.93,1.29-1.08,1.24,0-.87.71-1.61S259,307.12,259.06,307.26Z"/><path class="cls-10" d="M259.06,309.3c-.12.08-.58-.42-1.26-.87s-1.32-.7-1.29-.85.8-.11,1.58.42S259.18,309.24,259.06,309.3Z"/><g class="cls-60"><path d="M256.5,343.75a2.83,2.83,0,0,0,1.94,3,3.11,3.11,0,0,0,3.39-1.24,3.49,3.49,0,0,0,.05-3.66,3.43,3.43,0,0,1-.79,2.34,2.55,2.55,0,0,1-2.25.88,2,2,0,0,1-1.7-1.63"/></g><circle class="cls-3" cx="259.08" cy="342.63" r="2.76"/><path class="cls-10" d="M261.85,342.63c-.05,0-.06-.24-.19-.65a2.71,2.71,0,0,0-1-1.4,2.61,2.61,0,0,0-2.42-.32,2.54,2.54,0,1,0,2.42,4.42,2.67,2.67,0,0,0,1-1.4c.13-.4.14-.65.19-.65a1.33,1.33,0,0,1,0,.7,2.85,2.85,0,0,1-1,1.65,2.93,2.93,0,0,1-2.81.47,3,3,0,0,1,0-5.64,3,3,0,0,1,2.81.48,2.8,2.8,0,0,1,1,1.64A1.29,1.29,0,0,1,261.85,342.63Z"/><path class="cls-10" d="M260.36,341.45c.05.14-.61.48-1.21,1.12s-.94,1.29-1.08,1.25,0-.88.7-1.61S260.33,341.32,260.36,341.45Z"/><path class="cls-10" d="M260.36,343.49c-.13.09-.59-.42-1.27-.87s-1.31-.7-1.28-.85.8-.11,1.58.42S260.48,343.43,260.36,343.49Z"/><g class="cls-60"><path d="M176.12,309.51a2.83,2.83,0,0,0,1.94,3,3.12,3.12,0,0,0,3.39-1.25,3.49,3.49,0,0,0,.05-3.66,3.45,3.45,0,0,1-.79,2.35,2.55,2.55,0,0,1-2.25.88,2,2,0,0,1-1.7-1.64"/></g><circle class="cls-3" cx="178.7" cy="308.4" r="2.76"/><path class="cls-10" d="M181.47,308.4c-.05,0-.06-.25-.19-.65a2.73,2.73,0,0,0-1-1.4,2.61,2.61,0,0,0-2.42-.32,2.53,2.53,0,0,0,0,4.74,2.61,2.61,0,0,0,2.42-.32,2.73,2.73,0,0,0,1-1.4c.13-.4.14-.65.19-.65a1.33,1.33,0,0,1,0,.7,2.8,2.8,0,0,1-1,1.64,2.93,2.93,0,0,1-2.81.48,3,3,0,0,1,0-5.64,2.93,2.93,0,0,1,2.81.48,2.8,2.8,0,0,1,1,1.64A1.33,1.33,0,0,1,181.47,308.4Z"/><path class="cls-10" d="M180,307.22c.05.14-.61.48-1.21,1.12s-.94,1.29-1.08,1.24,0-.88.7-1.61S180,307.08,180,307.22Z"/><path class="cls-10" d="M180,309.26c-.13.08-.59-.42-1.27-.87s-1.31-.7-1.28-.85.8-.11,1.57.41S180.1,309.19,180,309.26Z"/><g class="cls-60"><path d="M175.53,343.41a2.82,2.82,0,0,0,1.94,3,3.11,3.11,0,0,0,3.39-1.24,3.47,3.47,0,0,0,0-3.66,3.47,3.47,0,0,1-.78,2.34,2.58,2.58,0,0,1-2.26.89,2,2,0,0,1-1.69-1.64"/></g><circle class="cls-3" cx="178.12" cy="342.29" r="2.76"/><path class="cls-10" d="M180.88,342.29s-.06-.24-.18-.65a2.87,2.87,0,0,0-1-1.4,2.61,2.61,0,0,0-2.42-.32,2.54,2.54,0,1,0,2.42,4.42,2.78,2.78,0,0,0,1-1.4,4.08,4.08,0,0,1,.18-.65s.09.25,0,.7a2.72,2.72,0,0,1-1,1.65,3,3,0,0,1-2.81.48,3,3,0,0,1,0-5.65,3,3,0,0,1,2.81.48,2.72,2.72,0,0,1,1,1.65C181,342.05,180.91,342.3,180.88,342.29Z"/><path class="cls-10" d="M179.39,341.11c.05.14-.6.48-1.21,1.12s-.93,1.29-1.08,1.25,0-.88.71-1.61S179.36,341,179.39,341.11Z"/><path class="cls-10" d="M179.39,343.16c-.12.08-.58-.43-1.26-.88s-1.32-.7-1.29-.85.8-.11,1.58.42S179.51,343.09,179.39,343.16Z"/><g class="cls-60"><path d="M172,350.2c10.82,2.35,23.46,2.44,35.15,1.87,5.62-.28,11.79-.63,16.29,2.76,1,.74,2.14,1.71,3.3,1.28,1.68-.63,1.74-3.71,3.54-3.77.9,0,1.58.83,1.88,1.68a13,13,0,0,0,.82,2.56c.46.78,1.55,1.3,2.27.75,1.13-.87-.18-2.74.25-4.11s2.47-1.53,3.85-1,2.72,1.54,4.19,1.32a8.19,8.19,0,0,0,2.83-1.45c2.63-1.61,5.88-1.7,9-1.76,3.25-.05,6.6-.36,9.85-.42Z"/></g><path class="cls-11" d="M237.84,290.19c.77-.41,23.24-7.64,23.24-7.64l-21.48,12Z"/><path class="cls-10" d="M235.5,287.76a7.6,7.6,0,0,0-7.6,7.6h15.2A7.61,7.61,0,0,0,235.5,287.76Z"/><path class="cls-10" d="M159.09,359.21c-.15,0-.26-24.42-.26-54.54s.11-54.55.26-54.55.26,24.42.26,54.55S159.23,359.21,159.09,359.21Z"/><path class="cls-10" d="M277.93,359.21c-.14,0-.26-24.42-.26-54.54s.12-54.55.26-54.55.27,24.42.27,54.55S278.08,359.21,277.93,359.21Z"/><circle class="cls-10" cx="154.1" cy="263.75" r="1.17"/><circle class="cls-10" cx="154.1" cy="285.63" r="1.17"/><circle class="cls-10" cx="154.1" cy="307.52" r="1.17"/><circle class="cls-10" cx="154.1" cy="329.41" r="1.17"/><circle class="cls-10" cx="154.1" cy="351.29" r="1.17"/><circle class="cls-10" cx="284.04" cy="263.75" r="1.17"/><circle class="cls-10" cx="284.04" cy="285.63" r="1.17"/><circle class="cls-10" cx="284.04" cy="307.52" r="1.17"/><circle class="cls-10" cx="284.04" cy="329.41" r="1.17"/><circle class="cls-10" cx="284.04" cy="351.29" r="1.17"/><rect class="cls-57" x="188.04" y="237.39" width="51.1" height="12.04"/><path class="cls-10" d="M191.73,249.44a32.12,32.12,0,0,1-.26-5.82,32,32,0,0,1,.26-5.81,33.09,33.09,0,0,1,.26,5.81A33.25,33.25,0,0,1,191.73,249.44Z"/><path class="cls-10" d="M197,249.44a33.25,33.25,0,0,1-.26-5.82,33.09,33.09,0,0,1,.26-5.81,32,32,0,0,1,.26,5.81A32.12,32.12,0,0,1,197,249.44Z"/><path class="cls-10" d="M202.22,249.44a33.25,33.25,0,0,1-.26-5.82,33.09,33.09,0,0,1,.26-5.81,33.09,33.09,0,0,1,.26,5.81A33.25,33.25,0,0,1,202.22,249.44Z"/><path class="cls-10" d="M207.47,249.44a32.12,32.12,0,0,1-.26-5.82,32,32,0,0,1,.26-5.81,33.09,33.09,0,0,1,.26,5.81A33.25,33.25,0,0,1,207.47,249.44Z"/><path class="cls-10" d="M212.71,249.44a33.25,33.25,0,0,1-.26-5.82,33.09,33.09,0,0,1,.26-5.81,32,32,0,0,1,.26,5.81A32.12,32.12,0,0,1,212.71,249.44Z"/><path class="cls-10" d="M218,249.44a33.25,33.25,0,0,1-.26-5.82,33.09,33.09,0,0,1,.26-5.81,33.09,33.09,0,0,1,.26,5.81A33.25,33.25,0,0,1,218,249.44Z"/><path class="cls-10" d="M223.21,249.44a32.12,32.12,0,0,1-.26-5.82,32,32,0,0,1,.26-5.81,33.09,33.09,0,0,1,.26,5.81A33.25,33.25,0,0,1,223.21,249.44Z"/><path class="cls-10" d="M228.45,249.44a33.25,33.25,0,0,1-.26-5.82,33.09,33.09,0,0,1,.26-5.81,32,32,0,0,1,.26,5.81A32.12,32.12,0,0,1,228.45,249.44Z"/><path class="cls-10" d="M233.7,249.44a33.25,33.25,0,0,1-.26-5.82,33.09,33.09,0,0,1,.26-5.81,33.09,33.09,0,0,1,.26,5.81A33.25,33.25,0,0,1,233.7,249.44Z"/><g class="cls-60"><path d="M299.42,275.54c1.24,6.26,2.39,12.16,3.62,18.42a26.7,26.7,0,0,1-3.62,0c0-6,0-12.41,0-18.41"/></g><path class="cls-59" d="M145.88,261.17c.15,0,0,18.68-.34,41.71s-.71,41.7-.86,41.7,0-18.67.34-41.71S145.74,261.17,145.88,261.17Z"/><path class="cls-59" d="M167.63,347.15c-.15,0-.26-9.3-.26-20.77s.11-20.77.26-20.77.26,9.3.26,20.77S167.77,347.15,167.63,347.15Z"/><path class="cls-59" d="M265.84,252.8c0,.15-22.93.26-51.2.26s-51.2-.11-51.2-.26,22.92-.26,51.2-.26S265.84,252.66,265.84,252.8Z"/><path class="cls-65" d="M240.69,339.93,228,318a1.36,1.36,0,0,1,0,.21l.08,23.32a1.11,1.11,0,0,1-1.66,1l-20-11.43a1,1,0,0,1,0-1.76l20.25-11.84a.86.86,0,0,1,1,.13l-6.18-10.71a1.41,1.41,0,0,0-2.43,0l-19.12,33.29a1.65,1.65,0,0,0,1.43,2.49h37.65A1.81,1.81,0,0,0,240.69,339.93Z"/><path class="cls-65" d="M227.78,317.58l.24.41A.89.89,0,0,0,227.78,317.58Z"/><path class="cls-65" d="M219,335.74l-1.14-2-2.51-5.23c0-.09-.08-.19-.13-.28a1.45,1.45,0,0,1-.11-.29.78.78,0,0,1-.05-.27.68.68,0,0,1,.29-.52,1.21,1.21,0,0,1,.74-.23,1,1,0,0,1,.78.26,3.08,3.08,0,0,1,.46.82l2.38,5.4,2.4-5.44a4.54,4.54,0,0,1,.28-.6.86.86,0,0,1,.3-.3,1.12,1.12,0,0,1,.59-.14,1.23,1.23,0,0,1,.51.11.89.89,0,0,1,.37.28.54.54,0,0,1,.13.35.87.87,0,0,1,0,.26c0,.09-.07.18-.11.27s-.09.18-.13.28l-2.55,5.27-1,1.91A.87.87,0,0,1,219,335.74Z"/></g></g></g></svg>